#N canvas 98 19 1279 541 12;
#X declare -path Fraise;
#X declare -path pdlua -lib pdlua;
#X declare -path moonlib;
#X obj 26 6 declare -path Fraise;
#X msg 172 324 Ehello;
#X msg 49 322 c 1 c \$1;
#X obj 52 296 hsl 170 20 2 40 0 0 empty empty led\ period 5 10 0 12 #ffe3c6 #7c7c7c #000000 0 1;
#X obj 26 34 pied/pied 1;
#X obj 34 350 fruit/send2 fruit0;
#X obj 173 5 declare -path pdlua -lib pdlua;
#N canvas 87 196 660 401 test-dmx 0;
#X obj 36 175 mknob 100 -1 0 360 0 0 empty empty empty -2 -6 0 8 #fcfcfc #000000 #000000 0 1;
#X obj 155 181 mknob 100 400 -135 135 0 0 empty empty empty -2 -6 0 8 #fcfcfc #000000 #000000 0 1;
#X floatatom 177 298 12 0 0 0 - - - 0;
#X obj 36 321 pack f f;
#X obj 58 293 t b f;
#N canvas 104 46 714 529 testseq 0;
#X obj 150 75 tgl 20 0 empty empty empty 0 -10 0 12 #fcfcfc #000000 #000000 0 1;
#X obj 150 100 metro 2000;
#X obj 150 162 tgl 20 0 empty empty empty 0 -10 0 12 #fcfcfc #000000 #000000 0 1;
#X obj 150 347 pack f 2000;
#X obj 150 372 line;
#X obj 150 187 * 2;
#X obj 150 284 - 1;
#X floatatom 102 422 5 0 0 0 - - - 0;
#X obj 150 125 t b b, f 11;
#X obj 245 347 pack f 2000;
#X obj 245 372 line;
#X floatatom 261 425 5 0 0 0 - - - 0;
#X obj 150 429 pack f f;
#X obj 150 454 outlet;
#X obj 307 95 f;
#X msg 305 56 1000;
#X obj 245 286 +;
#X obj 245 164 random 2000;
#X obj 245 189 - 1000;
#X obj 245 219 / 1000;
#X msg 393 57 500;
#X obj 150 309 * 45;
#X msg 350 51 750;
#X msg 292 247 50;
#X msg 414 208 1 \, 0 500;
#X obj 414 233 line~;
#X obj 414 258 *~;
#X obj 414 283 *~;
#X obj 414 333 dac~;
#X obj 464 276 osc~ 1000;
#X obj 414 308 *~ 0.1;
#X msg 266 53 2000;
#X obj 244 311 clip 0 360;
#X msg 344 253 90;
#X msg 350 426 20;
#X obj 245 253 * 45;
#X floatatom 336 121 10 0 0 0 - - - 0;
#X msg 222 57 3000;
#X connect 0 0 1 0;
#X connect 1 0 8 0;
#X connect 2 0 5 0;
#X connect 3 0 4 0;
#X connect 4 0 12 0;
#X connect 5 0 6 0;
#X connect 6 0 21 0;
#X connect 8 0 2 0;
#X connect 8 1 17 0;
#X connect 9 0 10 0;
#X connect 10 0 12 1;
#X connect 12 0 13 0;
#X connect 14 0 1 1;
#X connect 14 0 3 1;
#X connect 14 0 9 1;
#X connect 14 0 36 0;
#X connect 15 0 14 0;
#X connect 16 0 32 0;
#X connect 17 0 18 0;
#X connect 18 0 19 0;
#X connect 19 0 35 0;
#X connect 20 0 14 0;
#X connect 21 0 3 0;
#X connect 22 0 14 0;
#X connect 23 0 35 1;
#X connect 24 0 25 0;
#X connect 25 0 26 0;
#X connect 25 0 26 1;
#X connect 26 0 27 0;
#X connect 27 0 30 0;
#X connect 29 0 27 1;
#X connect 30 0 28 0;
#X connect 31 0 14 0;
#X connect 32 0 16 1;
#X connect 32 0 9 0;
#X connect 33 0 35 1;
#X connect 34 0 4 2;
#X connect 34 0 10 2;
#X connect 35 0 16 0;
#X connect 37 0 14 0;
#X restore 33 89 pd testseq;
#X obj 33 114 unpack f f;
#X msg 272 129 200 i \$1 c \$2;
#X obj 36 348 s DMXpos;
#X obj 517 105 r DMXpos;
#X msg 517 207 201 i \$1 \$2;
#X obj 517 130 unpack f f;
#X obj 517 155 * 32;
#X obj 517 180 pack f f, f 10;
#X obj 584 154 * 32;
#X msg 379 171 204;
#X text 368 151 dmachan;
#X msg 450 170 203;
#X text 438 150 reset;
#X obj 30 29 declare -path moonlib;
#X obj 402 262 outlet;
#N canvas 166 407 1087 551 Maxi_spot_60 0;
#X obj 38 74 hsl 170 20 0 65535 0 0 empty empty pan -2 -10 0 12 #fcfcfc #000000 #000000 0 1;
#X msg 49 188 1 \$1;
#X msg 109 188 2 \$1;
#X obj 49 135 t f f, f 9;
#X obj 49 160 div 256;
#X obj 109 161 mod 256;
#X obj 244 109 hsl 170 20 0 65535 0 0 empty empty tilt -2 -10 0 12 #fcfcfc #000000 #000000 0 1;
#X obj 241 134 t f f, f 9;
#X obj 241 159 div 256;
#X obj 301 160 mod 256;
#X msg 241 187 3 \$1;
#X msg 301 187 4 \$1;
#X floatatom 181 155 8 0 0 0 - - - 0;
#X obj 441 116 hsl 170 20 0 255 0 0 empty empty slow -2 -10 0 12 #fcfcfc #000000 #000000 0 1;
#X msg 438 178 5 \$1;
#X obj 630 121 hsl 170 20 0 255 0 0 empty empty color -2 -10 0 12 #fcfcfc #000000 #000000 0 1;
#X msg 627 183 6 \$1;
#X obj 687 158 hsl 170 20 0 255 0 0 empty empty gobo -2 -10 0 12 #fcfcfc #000000 #000000 0 1;
#X msg 684 220 7 \$1;
#X obj 770 217 hsl 170 20 0 255 0 0 empty empty light -2 -10 0 12 #fcfcfc #000000 #000000 0 1;
#X msg 767 279 8 \$1;
#X floatatom 639 153 5 0 255 0 - - - 0;
#X floatatom 704 195 5 0 255 0 - - - 0;
#X obj 719 321 hradio 20 1 0 8 empty empty empty 0 -10 0 12 #fcfcfc #000000 #000000 0;
#X obj 720 352 * 8, f 6;
#X floatatom 775 349 5 0 0 0 - - - 0;
#X msg 296 73 32768;
#X obj 35 108 i;
#X msg 35 36 45490;
#X msg 86 36 1644;
#X obj 947 159 tgl 20 0 empty empty empty 0 -10 0 12 #fcfcfc #000000 #000000 0 1;
#X obj 947 184 * 255;
#X obj 990 156 del 50;
#X msg 990 181 0;
#X msg 1032 183 1;
#X obj 976 96 tgl 20 0 empty empty empty 0 -10 0 12 #fcfcfc #000000 #000000 0 1;
#X obj 990 131 metro 350;
#X msg 49 475 \$1 \$2;
#X obj 49 500 outlet;
#X connect 0 0 27 0;
#X connect 1 0 37 0;
#X connect 2 0 37 0;
#X connect 3 0 4 0;
#X connect 3 1 5 0;
#X connect 4 0 1 0;
#X connect 5 0 2 0;
#X connect 6 0 7 0;
#X connect 7 0 8 0;
#X connect 7 1 9 0;
#X connect 8 0 10 0;
#X connect 9 0 11 0;
#X connect 10 0 37 0;
#X connect 11 0 37 0;
#X connect 13 0 14 0;
#X connect 14 0 37 0;
#X connect 15 0 16 0;
#X connect 16 0 37 0;
#X connect 17 0 18 0;
#X connect 18 0 37 0;
#X connect 19 0 20 0;
#X connect 20 0 37 0;
#X connect 21 0 16 0;
#X connect 22 0 18 0;
#X connect 23 0 24 0;
#X connect 23 0 25 0;
#X connect 24 0 22 0;
#X connect 26 0 6 0;
#X connect 27 0 3 0;
#X connect 28 0 0 0;
#X connect 29 0 0 0;
#X connect 30 0 31 0;
#X connect 31 0 19 0;
#X connect 32 0 33 0;
#X connect 33 0 30 0;
#X connect 34 0 30 0;
#X connect 35 0 36 0;
#X connect 36 0 32 0;
#X connect 36 0 34 0;
#X connect 37 0 38 0;
#X restore 273 64 pd Maxi_spot_60;
#N canvas 258 458 1142 542 Movobeam_100 0;
#X obj 38 74 hsl 170 20 0 65535 0 0 empty empty pan -2 -10 0 12 #fcfcfc #000000 #000000 0 1;
#X msg 49 188 1 \$1;
#X msg 109 188 2 \$1;
#X obj 49 135 t f f, f 9;
#X obj 49 160 div 256;
#X obj 109 161 mod 256;
#X obj 244 109 hsl 170 20 0 65535 0 0 empty empty tilt -2 -10 0 12 #fcfcfc #000000 #000000 0 1;
#X obj 241 134 t f f, f 9;
#X obj 241 159 div 256;
#X obj 301 160 mod 256;
#X floatatom 181 155 8 0 0 0 - - - 0;
#X obj 436 124 hsl 170 20 0 255 0 0 empty empty light -2 -10 0 12 #fcfcfc #000000 #000000 0 1;
#X msg 296 73 32768;
#X obj 35 108 i;
#X msg 35 36 45490;
#X msg 86 36 1644;
#X obj 479 72 tgl 20 0 empty empty empty 0 -10 0 12 #fcfcfc #000000 #000000 0 1;
#X obj 479 97 * 255;
#X obj 522 69 del 50;
#X msg 522 94 0;
#X msg 564 96 1;
#X obj 508 9 tgl 20 0 empty empty empty 0 -10 0 12 #fcfcfc #000000 #000000 0 1;
#X obj 522 44 metro 350;
#X msg 49 475 \$1 \$2;
#X obj 49 500 outlet;
#X msg 241 187 4 \$1;
#X msg 301 187 5 \$1;
#X msg 433 186 7 \$1;
#X msg 503 240 9 \, 10 \, 11;
#X msg 503 265 \$1 0;
#X msg 587 242 12 255;
#X obj 670 168 vsl 20 80 0 255 0 0 empty empty empty 0 -9 0 12 #ff0400 #000000 #000000 0 1;
#X obj 695 168 vsl 20 80 0 255 0 0 empty empty empty 0 -9 0 12 #00ff04 #000000 #000000 0 1;
#X obj 719 168 vsl 20 80 0 255 0 0 empty empty empty 0 -9 0 12 #00faff #000000 #000000 0 1;
#X obj 744 168 vsl 20 80 0 255 0 0 empty empty empty 0 -9 0 12 #ffffff #000000 #000000 0 1;
#X msg 640 270 9 \$1;
#X msg 679 270 10 \$1;
#X msg 724 270 11 \$1;
#X msg 771 270 12 \$1;
#X obj 640 295 t a;
#X obj 774 11 tgl 20 0 empty empty empty 0 -10 0 12 #fcfcfc #000000 #000000 0 1;
#X obj 788 71 tgl 20 0 empty empty empty 0 -10 0 12 #fcfcfc #000000 #000000 0 1;
#X obj 788 46 metro 80;
#X obj 824 70 == 0;
#X obj 788 96 * 255;
#X obj 824 95 * 255;
#X obj 884 239 hsl 170 20 0 133 0 0 empty empty ring -2 -10 0 12 #fcfcfc #000000 #000000 0 1;
#X msg 881 267 14 \$1;
#X obj 882 351 hsl 170 20 0 255 0 0 empty empty ringspeed -2 -10 0 12 #fcfcfc #000000 #000000 0 1;
#X msg 879 378 15 \$1;
#X msg 431 282 8 0;
#X obj 159 8 tgl 20 0 empty empty empty 0 -10 0 12 #fcfcfc #000000 #000000 0 1;
#X obj 157 32 * 43847;
#X connect 0 0 13 0;
#X connect 0 0 10 0;
#X connect 1 0 23 0;
#X connect 2 0 23 0;
#X connect 3 0 4 0;
#X connect 3 1 5 0;
#X connect 4 0 1 0;
#X connect 5 0 2 0;
#X connect 6 0 7 0;
#X connect 7 0 8 0;
#X connect 7 1 9 0;
#X connect 8 0 25 0;
#X connect 9 0 26 0;
#X connect 11 0 27 0;
#X connect 12 0 6 0;
#X connect 13 0 3 0;
#X connect 14 0 0 0;
#X connect 15 0 0 0;
#X connect 16 0 17 0;
#X connect 17 0 11 0;
#X connect 18 0 19 0;
#X connect 19 0 16 0;
#X connect 20 0 16 0;
#X connect 21 0 22 0;
#X connect 22 0 18 0;
#X connect 22 0 20 0;
#X connect 23 0 24 0;
#X connect 25 0 23 0;
#X connect 26 0 23 0;
#X connect 27 0 23 0;
#X connect 28 0 29 0;
#X connect 29 0 39 0;
#X connect 30 0 39 0;
#X connect 31 0 35 0;
#X connect 32 0 36 0;
#X connect 33 0 37 0;
#X connect 34 0 38 0;
#X connect 35 0 39 0;
#X connect 36 0 39 0;
#X connect 37 0 39 0;
#X connect 38 0 39 0;
#X connect 39 0 23 0;
#X connect 40 0 42 0;
#X connect 41 0 43 0;
#X connect 41 0 44 0;
#X connect 42 0 41 0;
#X connect 43 0 45 0;
#X connect 44 0 31 0;
#X connect 45 0 32 0;
#X connect 46 0 47 0;
#X connect 47 0 23 0;
#X connect 48 0 49 0;
#X connect 49 0 23 0;
#X connect 50 0 23 0;
#X connect 51 0 52 0;
#X connect 52 0 0 0;
#X restore 391 63 pd Movobeam_100;
#N canvas 321 388 450 300 reset 0;
#X msg 165 62 50;
#X obj 165 87 t b b f, f 18;
#X obj 165 112 metro 5;
#X obj 165 137 i;
#X obj 196 138 + 1;
#X msg 224 113 0;
#X obj 165 162 moses 50, f 18;
#X msg 165 187 \$1 0;
#X obj 165 212 outlet;
#X obj 207 29 inlet;
#X connect 0 0 1 0;
#X connect 1 0 2 0;
#X connect 1 1 5 0;
#X connect 1 2 6 1;
#X connect 2 0 3 0;
#X connect 3 0 4 0;
#X connect 3 0 6 0;
#X connect 4 0 3 1;
#X connect 5 0 3 1;
#X connect 6 0 7 0;
#X connect 7 0 8 0;
#X connect 9 0 1 0;
#X restore 202 88 pd reset;
#X msg 203 63 50;
#X connect 0 0 3 0;
#X connect 1 0 4 0;
#X connect 1 0 2 0;
#X connect 3 0 8 0;
#X connect 4 0 3 0;
#X connect 4 1 3 1;
#X connect 5 0 6 0;
#X connect 6 0 1 0;
#X connect 6 1 0 0;
#X connect 7 0 20 0;
#X connect 9 0 11 0;
#X connect 10 0 20 0;
#X connect 11 0 12 0;
#X connect 11 1 14 0;
#X connect 12 0 13 0;
#X connect 13 0 10 0;
#X connect 14 0 13 1;
#X connect 15 0 20 0;
#X connect 17 0 20 0;
#X connect 21 0 7 0;
#X connect 22 0 7 0;
#X connect 23 0 7 0;
#X connect 24 0 23 0;
#X restore 311 224 pd test-dmx;
#X obj 466 139 tgl 20 0 empty empty Game_ON 0 -10 0 12 #fcfcfc #000000 #000000 0 1;
#X obj 466 201 + 150;
#X msg 519 208 152 i \$1;
#X msg 552 149 1000;
#X msg 629 147 2000;
#X msg 710 146 4000;
#N canvas 82 335 809 449 test_pixels 0;
#X obj 216 248 list prepend 10;
#X obj 216 273 outlet;
#X msg 165 161 10 \$1;
#X obj 171 135 tgl 20 0 empty empty empty 0 -10 0 12 #fcfcfc #000000 #000000 0 1;
#X obj 268 95 t f f b;
#X obj 350 134 f;
#X floatatom 274 42 5 0 300 0 - - - 0;
#X msg 248 173 20 c \$1 c 255 0 0;
#X msg 392 172 20 c \$1 c 0 0 50;
#X msg 432 85 30 l \$1;
#X floatatom 435 50 5 0 0 0 - - - 0;
#X msg 525 169 100;
#X text 517 148 dmachan;
#X obj 622 128 fruit/receive fruit0;
#X listbox 540 299 20 0 0 0 - - - 0;
#X obj 689 248 print;
#X obj 540 274 route load l;
#X obj 673 182 route 22;
#X msg 124 348 100;
#X connect 0 0 1 0;
#X connect 2 0 0 0;
#X connect 3 0 2 0;
#X connect 4 0 5 1;
#X connect 4 1 7 0;
#X connect 4 2 5 0;
#X connect 5 0 8 0;
#X connect 6 0 4 0;
#X connect 7 0 0 0;
#X connect 8 0 0 0;
#X connect 9 0 0 0;
#X connect 10 0 9 0;
#X connect 11 0 0 0;
#X connect 16 0 14 0;
#X connect 17 1 15 0;
#X connect 18 0 1 0;
#X restore 46 226 pd test_pixels;
#N canvas 930 46 1104 515 config 1;
#X obj 79 248 s DMXpos;
#X msg 170 248 200 i \$1 c \$2;
#X obj 170 273 fruit/send2 fruit0;
#X obj 328 236 list prepend 20;
#X floatatom 328 149 5 0 0 2 total_leds - - 0;
#X floatatom 412 148 5 0 0 2 leds_angle_offset - - 0;
#X floatatom 539 144 5 0 0 2 distance_max - - 0;
#X floatatom 630 144 5 0 0 2 distance_min - - 0;
#X floatatom 722 145 5 0 0 2 lidar_angle_offset - - 0;
#X floatatom 860 140 5 0 0 2 proj_tilt_amp - - 0;
#X msg 328 186 1 i \$1;
#X msg 412 198 2 i \$1;
#X msg 539 181 3 i \$1;
#X msg 630 186 4 i \$1;
#X msg 721 182 5 i \$1;
#X msg 860 177 6 i \$1;
#X obj 179 307 fruit/receive fruit0;
#X msg 45 225 0 0;
#X msg 34 348 \$1 45;
#X floatatom 39 314 5 0 0 0 - - - 0;
#X msg 320 278 SAVE_EEPROM;
#X msg 327 75 212 22 1700 400 167 43 43539, f 36;
#X obj 327 50 list trim;
#X obj 327 26 list prepend set;
#X obj 412 173 +;
#X obj 440 172 t b f;
#X floatatom 90 112 5 0 0 0 - - - 0;
#X obj 825 269 metro 100;
#X floatatom 825 484 5 0 0 0 - - - 0;
#X obj 828 242 tgl 20 0 empty empty empty 0 -10 0 12 #fcfcfc #000000 #000000 0 1;
#X obj 825 294 f 1;
#X obj 825 319 +;
#X obj 825 344 f;
#X obj 825 375 moses 3;
#X obj 883 376 moses 358;
#X msg 825 400 0;
#X msg 943 400 359;
#X msg 975 401 -1;
#X msg 791 401 1;
#X floatatom 738 372 5 0 0 0 - - - 0;
#X obj 901 464 f;
#X obj 791 429 * 1;
#X msg 102 66 0;
#X msg 144 71 360;
#X floatatom 969 141 8 0 0 2 proj_pan_amp - - 0;
#X msg 969 178 7 i \$1;
#X obj 329 100 unpack f f f f f f f, f 89;
#X msg 1013 26 44850;
#X msg 113 469 4 \$1;
#X msg 109 428 0;
#X msg 148 427 1;
#X msg 186 427 2;
#X text 102 409 reset;
#X text 146 406 stop;
#X text 186 407 start;
#X text 60 426 LIDAR;
#X msg 239 427 3;
#X text 239 407 snap;
#X obj 265 142 * 1;
#X obj 900 308 tgl 20 0 empty empty empty 0 -10 0 12 #fcfcfc #000000 #000000 0 1;
#X msg 881 336 360;
#X obj 48 43 metro 100;
#X obj 51 16 tgl 20 0 empty empty empty 0 -10 0 12 #fcfcfc #000000 #000000 0 1;
#X msg 1024 55 43847;
#X text 492 232 get params;
#X msg 493 255 101;
#X obj 179 331 route 200;
#X obj 179 356 fruit/decode int16 int16 int16 int16 int16 int16 uint16;
#X listbox 179 382 45 0 0 0 - - - 0;
#X msg 170 223 7 128;
#X msg 217 223 7 0;
#X msg 79 223 0 \$1;
#X floatatom 107 189 5 0 0 0 - - - 0;
#X msg 90 136 \$1 40;
#X msg 1041 88 43539;
#X obj 330 430 bng 20 250 50 0 empty empty empty 0 -10 0 12 #fcfcfc #000000 #000000;
#X msg 254 480 9 0 \, 10 0 \, 11 0 \, 12 255;
#X text 275 460 blanc;
#X connect 1 0 2 0;
#X connect 3 0 2 0;
#X connect 4 0 10 0;
#X connect 5 0 24 0;
#X connect 6 0 12 0;
#X connect 7 0 13 0;
#X connect 8 0 14 0;
#X connect 9 0 15 0;
#X connect 10 0 3 0;
#X connect 11 0 3 0;
#X connect 12 0 3 0;
#X connect 13 0 3 0;
#X connect 14 0 3 0;
#X connect 15 0 3 0;
#X connect 16 0 66 0;
#X connect 17 0 0 0;
#X connect 18 0 0 0;
#X connect 19 0 18 0;
#X connect 20 0 2 1;
#X connect 21 0 46 0;
#X connect 22 0 21 0;
#X connect 23 0 22 0;
#X connect 24 0 11 0;
#X connect 25 0 24 0;
#X connect 25 1 24 1;
#X connect 26 0 73 0;
#X connect 26 0 58 0;
#X connect 27 0 30 0;
#X connect 29 0 27 0;
#X connect 30 0 31 0;
#X connect 31 0 32 0;
#X connect 32 0 31 1;
#X connect 32 0 33 0;
#X connect 32 0 39 0;
#X connect 33 0 35 0;
#X connect 33 0 38 0;
#X connect 33 1 34 0;
#X connect 34 0 40 0;
#X connect 34 1 36 0;
#X connect 34 1 37 0;
#X connect 35 0 40 0;
#X connect 37 0 40 0;
#X connect 37 0 41 0;
#X connect 38 0 41 0;
#X connect 40 0 26 0;
#X connect 41 0 30 1;
#X connect 42 0 26 0;
#X connect 43 0 26 0;
#X connect 44 0 45 0;
#X connect 45 0 3 0;
#X connect 46 0 4 0;
#X connect 46 1 5 0;
#X connect 46 2 6 0;
#X connect 46 3 7 0;
#X connect 46 4 8 0;
#X connect 46 5 9 0;
#X connect 46 6 44 0;
#X connect 47 0 44 0;
#X connect 48 0 2 0;
#X connect 49 0 48 0;
#X connect 50 0 48 0;
#X connect 51 0 48 0;
#X connect 56 0 48 0;
#X connect 58 0 25 0;
#X connect 59 0 30 1;
#X connect 60 0 32 0;
#X connect 61 0 26 0;
#X connect 62 0 61 0;
#X connect 63 0 44 0;
#X connect 65 0 3 0;
#X connect 66 0 67 0;
#X connect 67 0 68 0;
#X connect 67 0 23 0;
#X connect 67 0 75 0;
#X connect 69 0 1 0;
#X connect 70 0 1 0;
#X connect 71 0 0 0;
#X connect 72 0 71 0;
#X connect 73 0 0 0;
#X connect 74 0 44 0;
#X connect 76 0 1 0;
#X restore 280 54 pd config;
#X msg 592 149 1500;
#X msg 519 147 750;
#X obj 27 110 fruit/fruit 1 fruit0 1 fw;
#X msg 667 146 3000;
#N canvas 102 292 847 663 mp3_test 0;
#X obj 209 484 list prepend 33;
#X obj 209 345 t a a, f 6;
#X obj 209 375 list split 1;
#X obj 273 457 list;
#X obj 209 400 t f b;
#X obj 241 426 del 2;
#X msg 124 247 32;
#X msg 381 334 126 255 6 3 0 0 \$1 239;
#X obj 381 306 hradio 20 1 0 17 empty empty empty 0 -10 0 12 #fcfcfc #000000 #000000 0;
#X obj 126 187 hsl 170 20 0 30 0 0 empty empty volume -2 -10 0 12 #fcfcfc #000000 #000000 0 1;
#X msg 123 215 31 \$1;
#X text 544 332 play track;
#X msg 391 364 1 3;
#X text 564 391 folder track;
#X msg 380 391 126 255 6 15 0 \$1 \$2 239;
#X msg 434 361 6 2;
#X msg 131 138 34 \$1 \$2;
#X msg 131 94 1 3;
#X msg 174 91 6 2;
#X msg 477 362 0 1;
#X text 198 137 folder track;
#X obj 128 18 hradio 20 1 0 17 empty empty empty 0 -10 0 12 #fcfcfc #000000 #000000 0;
#X text 188 45 play track;
#X msg 128 45 30 i \$1;
#X text 156 242 status;
#X text 323 486 putc;
#X msg 208 306 126 255 6 8 0 0 \$1 239;
#X obj 210 279 hradio 20 1 0 17 empty empty empty 0 -10 0 12 #fcfcfc #000000 #000000 0;
#X text 552 280 loop track;
#X msg 432 429 1 3;
#X text 605 456 folder track;
#X msg 421 456 126 255 6 15 0 \$1 \$2 239;
#X msg 475 426 6 2;
#X msg 518 427 0 1;
#X obj 338 61 hradio 20 1 0 17 empty empty empty 0 -10 0 12 #fcfcfc #000000 #000000 0;
#X msg 474 105 101 \, 1 \, 102 \, 2 \, 104;
#X msg 379 178 35 \$1 i \$2;
#X msg 525 218 1;
#X msg 627 219 -100;
#X msg 379 145 1 \$1;
#X msg 524 242 101;
#X msg 516 145 101 \, 8 \, -1000 \, 102 \, 2 \, -800 \, 103;
#X msg 518 176 1 \, 2 \, 3 \, -500 \, 4 \, 5 \, 6 \, -500 \, 7 \, 8 \, 9 \, 10;
#X obj 62 603 outlet;
#X msg 292 537 50;
#X obj 410 531 b;
#X obj 410 556 del 100;
#X text 287 519 isplaying;
#X obj 62 578 list prepend 30 2;
#X msg 697 249 105 \, -500 \, 1;
#X connect 0 0 48 0;
#X connect 1 0 2 0;
#X connect 2 0 4 0;
#X connect 2 1 3 1;
#X connect 3 0 2 0;
#X connect 4 0 0 0;
#X connect 4 1 5 0;
#X connect 5 0 3 0;
#X connect 6 0 48 0;
#X connect 7 0 1 0;
#X connect 8 0 7 0;
#X connect 9 0 10 0;
#X connect 10 0 48 0;
#X connect 12 0 14 0;
#X connect 14 0 1 0;
#X connect 15 0 14 0;
#X connect 16 0 48 0;
#X connect 17 0 16 0;
#X connect 18 0 16 0;
#X connect 19 0 14 0;
#X connect 21 0 23 0;
#X connect 23 0 48 0;
#X connect 26 0 1 0;
#X connect 27 0 26 0;
#X connect 29 0 31 0;
#X connect 31 0 1 0;
#X connect 32 0 31 0;
#X connect 33 0 31 0;
#X connect 34 0 39 0;
#X connect 35 0 39 0;
#X connect 36 0 48 0;
#X connect 37 0 39 0;
#X connect 38 0 39 0;
#X connect 39 0 36 0;
#X connect 40 0 39 0;
#X connect 40 0 45 0;
#X connect 41 0 39 0;
#X connect 42 0 39 0;
#X connect 44 0 48 0;
#X connect 45 0 46 0;
#X connect 46 0 44 0;
#X connect 48 0 43 0;
#X connect 49 0 39 0;
#X restore 34 200 pd mp3_test;
#N canvas 549 93 1444 773 audio_test 0;
#X obj 56 639 outlet;
#X msg 58 183 40;
#X msg 116 199 41 i \$1;
#X msg 180 199 42 i \$1;
#X msg 182 164 65535;
#X msg 116 155 6000;
#X msg 264 201 43 l \$1;
#X obj 264 163 * 65535;
#X msg 264 125 50;
#X msg 110 112 100, f 6;
#X floatatom 311 116 5 0 0 0 - - - 0;
#X obj 169 17 hsl 170 20 0 1 0 0 empty empty empty -2 -10 0 12 #fcfcfc #000000 #000000 0 1;
#X obj 166 42 pow 2;
#X obj 166 67 * 65535;
#X floatatom 74 24 5 0 0 0 - - - 0;
#X obj 33 66 * 100;
#X floatatom 498 65 5 0 0 0 - - - 0;
#X obj 498 89 * 2048;
#X obj 498 114 * 65536;
#X floatatom 498 164 11 0 0 0 - - - 0;
#X floatatom 350 192 12 0 0 0 - - - 0;
#X obj 684 186 dac~;
#X obj 686 96 osc~ 100;
#X floatatom 694 56 5 0 0 0 - - - 0;
#X floatatom 92 77 9 0 0 0 - - - 0;
#X msg 532 227 44100 1.53;
#X obj 532 252 /;
#X floatatom 532 277 11 0 0 0 - - - 0;
#X obj 459 345 919000;
#X msg 532 301 919000 \$1;
#X obj 532 326 /;
#X floatatom 532 351 7 0 0 0 - - - 0;
#X obj 633 257 /;
#X floatatom 633 282 13 0 0 0 - - - 0;
#X obj 499 139 / 57000;
#X obj 843 183 phasor~;
#X obj 918 183 phasor~;
#X obj 843 208 -~;
#X floatatom 845 91 5 0 0 0 - - - 0;
#X obj 910 132 t b f;
#X floatatom 955 18 5 0 0 0 - - - 0;
#X obj 881 137 *;
#X obj 928 106 + 1;
#X obj 932 75 / 1000;
#X obj 203 263 / 200;
#X msg 203 288 24000 \$1;
#X floatatom 203 341 8 0 0 0 - - - 0;
#X obj 203 315 /;
#X floatatom 335 291 9 0 0 0 - - - 0;
#X obj 335 242 / 2048;
#X obj 335 266 * 24000;
#X msg 713 24 200;
#X msg 759 20 440;
#X obj 621 338 * 24000;
#X msg 390 221 57143;
#X obj 438 232 t b f;
#X floatatom 450 201 8 0 0 0 - - - 0;
#X floatatom 451 295 9 0 0 0 - - - 0;
#X obj 451 270 * 16;
#X floatatom 136 410 5 0 0 0 - - - 0;
#X obj 136 434 mtof;
#X floatatom 277 410 10 0 0 0 - - - 0;
#X obj 277 385 * 440;
#X msg 355 359 440 \$1;
#X obj 355 384 /;
#X floatatom 355 409 9 0 0 0 - - - 0;
#X obj 685 129 *~ 0;
#X obj 781 41 hsl 170 20 0 1 0 0 empty empty empty -2 -10 0 12 #fcfcfc #000000 #000000 0 1;
#X obj 778 66 pow 2;
#X msg 633 232 919000 16;
#X obj 776 343 /;
#X floatatom 776 368 9 0 0 0 - - - 0;
#X msg 776 318 1.25e+08 136;
#X obj 776 392 / 16;
#X floatatom 776 417 10 0 0 0 - - - 0;
#X obj 776 441 / 2;
#X floatatom 776 466 8 0 0 0 - - - 0;
#X obj 879 446 / 24000;
#X floatatom 879 471 8 0 0 0 - - - 0;
#X floatatom 205 93 8 0 0 0 - - - 0;
#X obj 1276 218 phasor~;
#X obj 1088 453 dac~;
#X obj 1089 396 *~ 0;
#X obj 1161 366 hsl 170 20 0 1 0 0 empty empty empty -2 -10 0 12 #fcfcfc #000000 #000000 0 1;
#X obj 1158 391 pow 2;
#X floatatom 1291 169 5 0 0 0 - - - 0;
#X obj 1277 242 bob~, f 14;
#X obj 1337 187 *~;
#X obj 1132 98 line~;
#X obj 1376 192 *~ 1000;
#X obj 1337 162 +~ 2;
#X obj 1337 137 osc~ 5;
#X obj 1060 292 *~, f 25;
#X obj 1344 213 sig~ 2;
#X obj 1046 223 *~ 800;
#X obj 1046 249 osc~;
#X obj 1133 256 +~ 200;
#X msg 1132 73 1 \, 0 100;
#X floatatom 1136 204 5 0 0 0 - - - 0;
#X floatatom 1079 196 5 0 0 0 - - - 0;
#X obj 1023 173 +~ 1;
#X floatatom 1088 145 5 0 0 0 - - - 0;
#X obj 1088 169 * -1;
#X obj 1023 148 *~ -0.5;
#X obj 1182 195 lop~ 100;
#X msg 241 538 1;
#X obj 225 583 list prepend 30 1;
#X msg 456 635 2 i 50 0 51 0;
#X floatatom 437 478 5 0 0 0 - - - 0;
#X obj 437 502 t f f;
#X obj 437 527 + 1;
#X obj 437 552 pack f f;
#X obj 712 600 * 100;
#X obj 712 657 / 1e+09;
#X msg 712 682 1 \$1;
#X obj 712 707 /;
#X floatatom 712 732 5 0 0 0 - - - 0;
#X obj 712 629 * 6.28;
#X msg 712 575 220;
#X floatatom 528 483 5 0 0 0 - - - 0;
#X msg 442 586 2 i \$1 30000 \$2 -20000;
#X obj 494 523 t b f;
#X obj 586 415 t b b;
#X obj 598 388 bng 20 250 50 0 empty empty empty 0 -10 0 12 #fcfcfc #000000 #000000;
#X msg 616 441 100;
#X obj 578 484 del 400;
#X msg 338 666 3 1;
#X obj 292 698 b;
#X obj 292 723 del 300;
#X floatatom 936 580 5 0 0 0 - - - 0;
#X obj 936 604 * 24000;
#X msg 936 629 3.2768e+07 \$1;
#X obj 936 654 /;
#X floatatom 936 679 12 0 0 0 - - - 0;
#X msg 384 670 3 2;
#X text 424 679 bounce;
#X text 338 644 buzz;
#X msg 388 700 3 3 i 120 200 5000;
#X msg 388 727 3 3 i 100 1000 -5000;
#X text 248 519 cpu;
#X obj 1060 573 fruit/receive fruit0;
#X obj 1060 598 route cpu;
#X obj 1060 623 print;
#X connect 1 0 0 0;
#X connect 2 0 0 0;
#X connect 3 0 0 0;
#X connect 4 0 3 0;
#X connect 5 0 2 0;
#X connect 6 0 0 0;
#X connect 7 0 6 0;
#X connect 7 0 20 0;
#X connect 8 0 7 0;
#X connect 9 0 2 0;
#X connect 10 0 7 0;
#X connect 10 0 49 0;
#X connect 11 0 12 0;
#X connect 12 0 13 0;
#X connect 13 0 3 0;
#X connect 13 0 79 0;
#X connect 14 0 15 0;
#X connect 15 0 2 0;
#X connect 16 0 17 0;
#X connect 17 0 18 0;
#X connect 18 0 34 0;
#X connect 22 0 66 0;
#X connect 23 0 22 0;
#X connect 24 0 2 0;
#X connect 24 0 44 0;
#X connect 25 0 26 0;
#X connect 26 0 27 0;
#X connect 27 0 28 0;
#X connect 27 0 29 0;
#X connect 29 0 30 0;
#X connect 30 0 31 0;
#X connect 32 0 33 0;
#X connect 34 0 19 0;
#X connect 34 0 6 0;
#X connect 35 0 37 0;
#X connect 36 0 37 1;
#X connect 38 0 35 0;
#X connect 38 0 41 0;
#X connect 39 0 41 0;
#X connect 39 1 41 1;
#X connect 40 0 43 0;
#X connect 41 0 36 0;
#X connect 42 0 39 0;
#X connect 43 0 42 0;
#X connect 44 0 45 0;
#X connect 45 0 47 0;
#X connect 47 0 46 0;
#X connect 49 0 50 0;
#X connect 49 0 62 0;
#X connect 49 0 63 0;
#X connect 50 0 48 0;
#X connect 51 0 23 0;
#X connect 52 0 23 0;
#X connect 54 0 50 1;
#X connect 55 0 50 0;
#X connect 55 1 50 1;
#X connect 55 1 58 0;
#X connect 56 0 55 0;
#X connect 58 0 57 0;
#X connect 59 0 60 0;
#X connect 60 0 24 0;
#X connect 62 0 61 0;
#X connect 63 0 64 0;
#X connect 64 0 65 0;
#X connect 66 0 21 0;
#X connect 66 0 21 1;
#X connect 67 0 68 0;
#X connect 68 0 66 1;
#X connect 69 0 32 0;
#X connect 70 0 71 0;
#X connect 71 0 73 0;
#X connect 72 0 70 0;
#X connect 73 0 74 0;
#X connect 74 0 75 0;
#X connect 74 0 77 0;
#X connect 75 0 76 0;
#X connect 77 0 78 0;
#X connect 80 0 86 0;
#X connect 82 0 81 0;
#X connect 82 0 81 1;
#X connect 83 0 84 0;
#X connect 84 0 82 1;
#X connect 85 0 80 0;
#X connect 87 0 86 1;
#X connect 88 0 103 0;
#X connect 88 0 104 0;
#X connect 89 0 87 1;
#X connect 90 0 87 0;
#X connect 91 0 90 0;
#X connect 92 0 82 0;
#X connect 93 0 86 2;
#X connect 94 0 95 0;
#X connect 95 0 92 0;
#X connect 97 0 88 0;
#X connect 98 0 96 1;
#X connect 99 0 94 1;
#X connect 100 0 94 0;
#X connect 101 0 102 0;
#X connect 102 0 103 1;
#X connect 103 0 100 0;
#X connect 104 0 92 1;
#X connect 105 0 106 0;
#X connect 106 0 0 0;
#X connect 107 0 106 0;
#X connect 108 0 109 0;
#X connect 109 0 110 0;
#X connect 109 1 111 1;
#X connect 110 0 111 0;
#X connect 111 0 120 0;
#X connect 112 0 117 0;
#X connect 113 0 114 0;
#X connect 114 0 115 0;
#X connect 115 0 116 0;
#X connect 117 0 113 0;
#X connect 118 0 112 0;
#X connect 119 0 121 0;
#X connect 120 0 106 0;
#X connect 121 0 110 0;
#X connect 121 1 110 1;
#X connect 122 0 125 0;
#X connect 122 1 124 0;
#X connect 123 0 122 0;
#X connect 124 0 108 0;
#X connect 125 0 107 0;
#X connect 126 0 106 0;
#X connect 126 0 127 0;
#X connect 127 0 128 0;
#X connect 128 0 105 0;
#X connect 129 0 130 0;
#X connect 130 0 131 0;
#X connect 131 0 132 0;
#X connect 132 0 133 0;
#X connect 134 0 106 0;
#X connect 137 0 106 0;
#X connect 138 0 106 0;
#X connect 140 0 141 0;
#X connect 141 0 142 0;
#X restore 119 199 pd audio_test;
#N canvas 923 54 878 696 wavs_duration 1;
#X obj 166 85 table \$0-wavdur 25600;
#X obj 226 234 s \$0-wavdur;
#X msg 226 208 read wavs_dur_table.txt;
#X obj 663 385 tabread \$0-wavdur;
#X obj 663 280 unpack f f;
#X msg 663 232 1 \$1;
#X floatatom 663 189 5 0 0 0 - - - 0;
#X obj 663 305 - 1;
#X obj 663 330 * 256;
#X obj 663 355 +;
#X floatatom 663 410 5 0 0 0 - - - 0;
#X obj 146 260 i;
#X obj 179 260 + 1;
#X msg 146 206 1;
#X msg 181 207 0;
#X obj 146 315 moses 25600;
#X msg 220 341 0;
#X obj 146 288 * 10;
#X obj 146 377 array get \$0-wavdur 0 10;
#X listbox 276 493 41 0 0 0 - - - 0;
#X obj 146 150 bng 20 250 50 0 empty empty empty 0 -10 0 12 #fcfcfc #000000 #000000;
#X obj 146 235 metro 2;
#X obj 146 540 fruit/send2 fruit0;
#X obj 495 291 unpack f f;
#X msg 495 243 1 \$1;
#X floatatom 495 200 5 0 0 0 - - - 0;
#X obj 495 316 - 1;
#X obj 495 341 * 256;
#X obj 495 366 +;
#X floatatom 524 402 5 0 0 0 - - - 0;
#X msg 501 444 13 i \$1;
#X msg 278 269 25599 10;
#X msg 739 343 25599;
#X msg 72 476 10;
#X text 69 459 to_ram;
#X obj 146 440 list prepend 0;
#X obj 146 346 t f f;
#X msg 575 401 25599;
#X obj 146 472 list prepend 11 i;
#X msg 336 446 12;
#X text 336 429 save_to_flash;
#X obj 146 181 t b b b;
#X obj 495 173 bng 20 250 50 0 empty empty empty 0 -10 0 12 #fcfcfc #000000 #000000;
#X msg 340 600 50;
#X msg 272 619 32;
#X obj 146 513 list prepend 30 2;
#X connect 2 0 1 0;
#X connect 3 0 10 0;
#X connect 4 0 7 0;
#X connect 4 1 9 1;
#X connect 5 0 4 0;
#X connect 6 0 5 0;
#X connect 7 0 8 0;
#X connect 8 0 9 0;
#X connect 9 0 3 0;
#X connect 11 0 12 0;
#X connect 11 0 17 0;
#X connect 12 0 11 1;
#X connect 13 0 21 0;
#X connect 14 0 11 1;
#X connect 15 0 36 0;
#X connect 15 1 16 0;
#X connect 16 0 21 0;
#X connect 17 0 15 0;
#X connect 18 0 35 0;
#X connect 20 0 41 0;
#X connect 21 0 11 0;
#X connect 23 0 26 0;
#X connect 23 1 28 1;
#X connect 24 0 23 0;
#X connect 25 0 24 0;
#X connect 26 0 27 0;
#X connect 27 0 28 0;
#X connect 28 0 29 0;
#X connect 28 0 30 0;
#X connect 30 0 45 0;
#X connect 31 0 1 0;
#X connect 32 0 3 0;
#X connect 33 0 45 0;
#X connect 35 0 19 0;
#X connect 35 0 38 0;
#X connect 36 0 18 0;
#X connect 36 1 35 1;
#X connect 37 0 30 0;
#X connect 38 0 45 0;
#X connect 39 0 45 0;
#X connect 41 0 13 0;
#X connect 41 1 14 0;
#X connect 41 2 2 0;
#X connect 42 0 25 0;
#X connect 43 0 45 0;
#X connect 44 0 45 0;
#X connect 45 0 22 0;
#X restore 280 81 pd wavs_duration;
#N canvas 120 259 1473 979 lidar_analys 1;
#X obj 673 71 print from_fruit0;
#X obj 293 20 fruit/receive fruit0;
#X msg 325 271 4 \$1;
#X msg 321 230 0;
#X msg 360 229 1;
#X msg 398 229 2;
#X text 314 211 reset;
#X text 358 208 stop;
#X text 398 209 start;
#X text 342 189 LIDAR;
#X obj 293 117 text set lidar_text 1e+06;
#X obj 750 100 bng 20 250 50 0 empty empty empty 0 -10 0 12 #fcfcfc #000000 #000000;
#X msg 535 283 5;
#N canvas 1021 69 621 323 store_distance 0;
#X obj 25 24 inlet;
#X obj 25 165 array set lidar_distance;
#X listbox 223 173 33 0 0 0 - - - 0;
#X obj 148 72 fruit/decode uint16 uint16 uint16 uint16 uint16 uint16 uint16 uint16 uint16 uint16;
#X obj 25 49 fruit/decode uint8;
#X obj 25 74 * 10;
#X obj 25 99 t b f;
#X obj 25 124 list, f 16;
#X connect 0 0 4 0;
#X connect 3 0 7 1;
#X connect 4 0 5 0;
#X connect 4 1 3 0;
#X connect 5 0 6 0;
#X connect 6 0 7 0;
#X connect 6 1 1 1;
#X connect 7 0 1 0;
#X restore 322 92 pd store_distance;
#X obj 547 215 tgl 20 0 empty empty empty 0 -10 0 12 #fcfcfc #000000 #000000 0 1;
#X obj 535 254 metro 200;
#X msg 622 217 100;
#X msg 587 216 200;
#X obj 436 46 route d;
#X msg 451 229 3;
#X text 451 209 snap;
#X floatatom 569 301 5 0 0 0 - - - 0;
#X obj 550 327 f;
#X obj 550 352 tabread lidar_distance;
#X floatatom 550 377 5 0 0 0 - - - 0;
#X listbox 241 141 14 0 0 0 - - - 36;
#X obj 395 293 - 500;
#X obj 395 318 / 2000;
#X floatatom 395 343 5 0 0 0 - - - 24;
#X obj 396 264 unpack f f;
#N canvas 1031 120 621 323 store_background 0;
#X obj 25 24 inlet;
#X listbox 223 173 33 0 0 0 - - - 0;
#X obj 148 72 fruit/decode uint16 uint16 uint16 uint16 uint16 uint16 uint16 uint16 uint16 uint16;
#X obj 25 49 fruit/decode uint8;
#X obj 25 74 * 10;
#X obj 25 99 t b f;
#X obj 25 124 list, f 16;
#X obj 25 165 array set lidar_background;
#X connect 0 0 3 0;
#X connect 2 0 6 1;
#X connect 3 0 4 0;
#X connect 3 1 2 0;
#X connect 4 0 5 0;
#X connect 5 0 6 0;
#X connect 5 1 7 1;
#X connect 6 0 7 0;
#X restore 467 95 pd store_background;
#X msg 656 268 6;
#X text 560 282 get dist;
#X text 666 230 get bg;
#X msg 1045 89 360;
#X obj 1045 114 t f b;
#X obj 1045 139 until;
#X obj 1045 164 i;
#X obj 1082 163 + 1;
#X msg 1088 139 0;
#X obj 1045 189 t f f;
#X obj 1045 216 tabread lidar_distance;
#X obj 1045 241 moses;
#X obj 1091 241 tabread lidar_background;
#X msg 1077 268 0;
#X obj 1045 323 clip 0 1;
#X obj 1045 378 tabwrite lidar_diff;
#X obj 1286 158 array sum lidar_diff;
#X obj 1045 298 maxlib/scale 2500 500 0 1;
#X floatatom 1286 186 5 0 0 0 - - - 36;
#X obj 1286 123 bng 20 250 50 0 empty empty empty 0 -10 0 12 #fcfcfc #000000 #000000;
#X obj 1045 351 f;
#X obj 678 102 del 3000;
#X obj 676 152 del 200;
#X obj 677 125 bng 20 250 50 0 empty empty empty 0 -10 0 12 #fcfcfc #000000 #000000;
#X msg 227 368 103 i \$1;
#X floatatom 226 345 5 0 0 2 min_width - - 0;
#X floatatom 311 371 5 0 0 2 smooth - - 0;
#X msg 311 393 104 i \$1;
#X obj 227 399 t a;
#N canvas 1021 69 621 323 store_distance_masked 0;
#X obj 25 24 inlet;
#X obj 148 72 fruit/decode uint16 uint16 uint16 uint16 uint16 uint16 uint16 uint16 uint16 uint16;
#X obj 25 49 fruit/decode uint8;
#X obj 25 74 * 10;
#X obj 25 99 t b f;
#X obj 25 124 list, f 16;
#X obj 25 165 array set lidar_distance_masked;
#X connect 0 0 2 0;
#X connect 1 0 5 1;
#X connect 2 0 3 0;
#X connect 2 1 1 0;
#X connect 3 0 4 0;
#X connect 4 0 5 0;
#X connect 4 1 6 1;
#X connect 5 0 6 0;
#X restore 488 74 pd store_distance_masked;
#X obj 293 45 route 10 20 21 22;
#X msg 730 307 7;
#X text 734 289 get masked;
#X obj 794 186 tgl 20 0 empty empty empty 0 -10 0 12 #fcfcfc #000000 #000000 0 1;
#X obj 782 225 metro 200;
#X msg 869 188 100;
#X msg 834 187 200;
#X msg 782 369 4 4;
#X text 779 348 snap button;
#N canvas -153 485 1578 620 tables 0;
#N canvas 0 50 450 250 (subpatch) 0;
#X array lidar_distance 360 float 2;
#X coords 0 12000 360 0 392 299 1 0 0;
#X restore 17 33 graph;
#N canvas 0 50 450 250 (subpatch) 0;
#X array lidar_background 360 float 2;
#X coords 0 12000 360 0 393 299 1 0 0;
#X restore 418 33 graph;
#N canvas 0 50 450 250 (subpatch) 0;
#X array lidar_diff 360 float 2;
#X coords 0 1.2 360 0 340 297 1 0 0;
#X restore 817 33 graph;
#N canvas 0 50 450 250 (subpatch) 0;
#X array lidar_distance_masked 360 float 2;
#X coords 0 12000 360 0 392 298 1 0 0;
#X restore 1161 33 graph;
#X restore 35 411 pd tables;
#X floatatom 1217 380 5 0 0 0 - - - 0;
#X obj 1217 355 tabread lidar_distance_masked;
#X floatatom 1217 329 5 0 0 0 - - - 0;
#X msg 1107 740 pos \$1 \$2;
#X msg 190 517 size \$1;
#X floatatom 190 493 5 0 0 0 - - - 0;
#X listbox 827 583 20 0 0 0 - - - 0;
#X obj 874 498 fruit/decode uint16 uint16 uint16 uint16 uint16 uint16 uint16, f 62;
#X obj 846 645 bng 20 250 50 0 empty empty empty 0 -10 0 12 #fcfcfc #000000 #000000;
#X obj 892 644 list prepend players;
#X obj 892 669 list trim;
#X obj 830 771 t b b;
#X obj 830 796 timer;
#X floatatom 830 870 5 0 0 0 - - - 0;
#X obj 830 833 zexy/mavg 50;
#X msg 1025 584 1 \$1;
#X floatatom 1024 548 5 0 0 0 - - - 0;
#X obj 892 695 t b a;
#X obj 892 720 t a;
#X obj 501 42 route 100 101;
#X obj 1107 612 fruit/decode int16 int16;
#X obj 1107 637 unpack f f;
#X obj 1107 662 / 32;
#X obj 1174 662 / 32;
#X obj 1107 712 pack f f, f 10;
#X listbox 939 752 20 0 0 0 - - - 0;
#X obj 836 455 route bang;
#X obj 982 817 f;
#X obj 982 842 sel 0 1;
#X obj 964 919 line~;
#X obj 964 944 *~;
#X obj 1014 920 phasor~ 120;
#X obj 1131 959 dac~;
#X msg 964 894 1 \, 0 400;
#X obj 1099 861 line~;
#X obj 1099 886 *~;
#X msg 1099 836 1 \, 0 400;
#X obj 1149 862 osc~ 1500;
#X obj 1134 934 *~ 0.5;
#X obj 1107 687 +;
#X obj 1135 687 t b f;
#X floatatom 1154 552 5 0 0 2 pan_offset - - 0;
#X msg 1080 555 153 i \$1;
#X floatatom 1047 704 5 0 0 0 - - - 0;
#X floatatom 1221 724 5 0 0 0 - - - 0;
#X obj 1216 561 * 1;
#X obj 1213 585 + 180;
#X obj 190 543 s pongarGui;
#X obj 811 917 s pongarGui;
#X msg 34 478 \; pdluax reload;
#X obj 439 895 outlet;
#X obj 902 541 s Players;
#X obj 609 42 route touched l;
#X obj 826 420 spigot;
#X floatatom 532 459 5 0 0 0 - - - 0;
#X obj 532 434 tabread lidar_distance_masked;
#X floatatom 532 409 5 0 0 0 - - - 0;
#N canvas 202 108 549 518 record 0;
#X obj 35 25 inlet bang;
#X obj 35 95 array get lidar_distance_masked 0 360;
#X obj 35 55 spigot, f 12;
#X obj 60 226 text define \$0-masked_record;
#X obj 35 124 text set \$0-masked_record 1e+06;
#X obj 183 16 tgl 20 0 empty empty empty 0 -10 0 12 #fcfcfc #000000 #000000 0 1;
#X msg 93 189 clear;
#X obj 327 96 text size \$0-masked_record;
#X floatatom 327 121 5 0 0 0 - - - 0;
#X obj 327 69 bng 20 250 50 0 empty empty empty 0 -10 0 12 #fcfcfc #000000 #000000;
#X msg 159 190 write masked_record.txt;
#X msg 339 189 read masked_record.txt;
#X obj 84 289 metro 100;
#X obj 84 314 i;
#X obj 122 315 + 1;
#X obj 122 340 mod 50;
#X obj 86 255 tgl 20 0 empty empty empty 0 -10 0 12 #fcfcfc #000000 #000000 0 1;
#X floatatom 112 380 5 0 0 0 - - - 0;
#X obj 83 444 array set lidar_distance_masked 0;
#X listbox 127 488 20 0 0 0 - - - 0;
#X obj 83 415 text get \$0-masked_record 0 360;
#X connect 0 0 2 0;
#X connect 1 0 4 0;
#X connect 2 0 1 0;
#X connect 5 0 2 1;
#X connect 6 0 3 0;
#X connect 7 0 8 0;
#X connect 8 0 15 1;
#X connect 9 0 7 0;
#X connect 10 0 3 0;
#X connect 11 0 3 0;
#X connect 12 0 13 0;
#X connect 13 0 14 0;
#X connect 13 0 17 0;
#X connect 13 0 20 0;
#X connect 14 0 15 0;
#X connect 15 0 13 1;
#X connect 16 0 12 0;
#X connect 20 0 18 0;
#X restore 861 304 pd record;
#X obj 770 252 t b b;
#X obj 821 77 tgl 20 0 empty empty empty 0 -10 0 12 #fcfcfc #000000 #000000 0 1;
#X obj 809 116 metro 200;
#X msg 896 79 100;
#X msg 861 78 200;
#X msg 214 260 5;
#X text 205 238 get_state;
#X connect 1 0 61 0;
#X connect 2 0 121 0;
#X connect 3 0 2 0;
#X connect 4 0 2 0;
#X connect 5 0 2 0;
#X connect 11 0 52 0;
#X connect 12 0 121 0;
#X connect 14 0 15 0;
#X connect 15 0 12 0;
#X connect 15 0 22 0;
#X connect 15 0 34 0;
#X connect 16 0 15 1;
#X connect 17 0 15 1;
#X connect 18 0 25 0;
#X connect 18 1 90 0;
#X connect 19 0 2 0;
#X connect 21 0 22 1;
#X connect 22 0 23 0;
#X connect 23 0 24 0;
#X connect 25 0 29 0;
#X connect 26 0 27 0;
#X connect 27 0 28 0;
#X connect 29 0 26 0;
#X connect 31 0 121 0;
#X connect 34 0 35 0;
#X connect 34 0 50 0;
#X connect 35 0 36 0;
#X connect 35 1 39 0;
#X connect 36 0 37 0;
#X connect 37 0 38 0;
#X connect 37 0 40 0;
#X connect 38 0 37 1;
#X connect 39 0 37 1;
#X connect 40 0 41 0;
#X connect 40 1 43 0;
#X connect 40 1 46 1;
#X connect 41 0 42 0;
#X connect 42 0 48 0;
#X connect 42 1 44 0;
#X connect 43 0 42 1;
#X connect 44 0 45 0;
#X connect 45 0 51 0;
#X connect 47 0 49 0;
#X connect 48 0 45 0;
#X connect 50 0 47 0;
#X connect 51 0 46 0;
#X connect 52 0 54 0;
#X connect 53 0 31 0;
#X connect 54 0 53 0;
#X connect 54 0 19 0;
#X connect 55 0 59 0;
#X connect 56 0 55 0;
#X connect 57 0 58 0;
#X connect 58 0 59 0;
#X connect 59 0 121 0;
#X connect 61 0 10 0;
#X connect 61 1 13 0;
#X connect 61 2 30 0;
#X connect 61 3 60 0;
#X connect 61 4 18 0;
#X connect 62 0 121 0;
#X connect 64 0 65 0;
#X connect 65 0 119 0;
#X connect 65 0 129 0;
#X connect 66 0 65 1;
#X connect 67 0 65 1;
#X connect 68 0 121 0;
#X connect 72 0 71 0;
#X connect 73 0 72 0;
#X connect 74 0 119 0;
#X connect 75 0 118 0;
#X connect 76 0 75 0;
#X connect 77 0 79 0;
#X connect 78 0 80 0;
#X connect 78 0 77 0;
#X connect 78 0 122 0;
#X connect 80 0 81 0;
#X connect 81 0 88 0;
#X connect 82 0 83 0;
#X connect 82 1 83 1;
#X connect 83 0 85 0;
#X connect 85 0 84 0;
#X connect 86 0 80 0;
#X connect 87 0 86 0;
#X connect 88 0 89 0;
#X connect 88 1 89 0;
#X connect 89 0 119 0;
#X connect 90 0 124 0;
#X connect 90 1 91 0;
#X connect 90 2 123 0;
#X connect 91 0 92 0;
#X connect 92 0 93 0;
#X connect 92 1 94 0;
#X connect 93 0 110 0;
#X connect 93 0 114 0;
#X connect 94 0 95 1;
#X connect 94 0 115 0;
#X connect 95 0 74 0;
#X connect 97 0 80 0;
#X connect 97 1 78 0;
#X connect 98 0 99 0;
#X connect 99 0 104 0;
#X connect 99 1 107 0;
#X connect 100 0 101 0;
#X connect 101 0 109 0;
#X connect 102 0 101 1;
#X connect 104 0 100 0;
#X connect 105 0 106 0;
#X connect 106 0 109 0;
#X connect 107 0 105 0;
#X connect 108 0 106 1;
#X connect 109 0 103 0;
#X connect 109 0 103 1;
#X connect 110 0 95 0;
#X connect 111 0 110 0;
#X connect 111 1 110 1;
#X connect 112 0 113 0;
#X connect 112 0 116 0;
#X connect 113 0 121 0;
#X connect 116 0 117 0;
#X connect 117 0 111 0;
#X connect 123 0 98 0;
#X connect 123 1 0 0;
#X connect 124 0 97 0;
#X connect 124 0 82 0;
#X connect 126 0 125 0;
#X connect 127 0 126 0;
#X connect 129 0 62 0;
#X connect 129 1 128 0;
#X connect 130 0 131 0;
#X connect 131 0 31 0;
#X connect 132 0 131 1;
#X connect 133 0 131 1;
#X connect 134 0 2 0;
#X restore 224 200 pd lidar_analys;
#X obj 466 227 t a;
#X floatatom 520 177 5 0 0 0 - - - 0;
#X obj 772 0 pongarGui;
#X msg 524 269 153;
#X text 521 249 prepare;
#X msg 517 326 151;
#X text 514 306 start;
#X msg 452 333 4 4;
#X text 453 316 snap;
#X msg 567 328 150;
#X text 564 308 stop;
#X obj 68 393 fruit/receive fruit0;
#X obj 68 421 route pixel_update;
#X obj 68 446 t b b;
#X obj 68 471 timer;
#X floatatom 68 496 5 0 0 0 - - - 0;
#X obj 571 14 table pixelsRGB 800;
#N canvas 0 0 471 401 obj/players_analys 0;
#X obj 26 34 inlet;
#X obj 26 59 route 100 110 111, f 33;
#X msg 26 169 objreset;
#X msg 102 170 fobject \$1 \$2 \$3 \$4;
#X msg 178 108 fplayer \$1 \$2 \$3 \$4;
#X obj 26 221 s \$0-gui;
#X listbox 42 319 29 0 0 0 - - - 0;
#X listbox 227 247 22 0 0 0 - - - 0;
#X obj 102 142 fruit/decode uint8 uint16 uint16 uint16;
#X obj 178 84 fruit/decode uint8 uint16 uint16 uint16;
#X obj 122 289 print;
#X connect 0 0 1 0;
#X connect 1 0 2 0;
#X connect 1 1 8 0;
#X connect 1 2 9 0;
#X connect 2 0 5 0;
#X connect 3 0 5 0;
#X connect 4 0 5 0;
#X connect 8 0 6 0;
#X connect 8 0 3 0;
#X connect 9 0 4 0;
#X connect 9 0 7 0;
#X restore 207 421 pd obj/players_analys;
#X obj 425 406 pofgui/pofGui \$0-gui;
#X obj 630 283 metro 100;
#X obj 623 247 tgl 20 0 empty empty empty 0 -10 0 12 #fcfcfc #000000 #000000 0 1;
#X msg 648 391 154 \, 155;
#X msg 708 282 20;
#X msg 703 247 1000;
#X msg 630 313 155;
#X text 665 318 get players pos;
#X msg 509 363 149;
#X text 540 366 standby;
#N canvas 163 355 664 258 pio_sm_dma-cpuload 1;
#X obj 198 203 outlet;
#X msg 34 54 10 100;
#X text 36 31 ws2812;
#X msg 101 54 4 5;
#X text 102 34 lidar;
#X msg 164 56 204;
#X text 164 34 dmx;
#X msg 216 55 100;
#X text 219 36 fraise;
#X text 284 34 mp3;
#X msg 283 56 30 2 32;
#X msg 432 57 11;
#X msg 525 57 12;
#X text 417 33 cpu_loads;
#X text 510 33 cpu_loads_reset;
#X connect 1 0 0 0;
#X connect 3 0 0 0;
#X connect 5 0 0 0;
#X connect 7 0 0 0;
#X connect 10 0 0 0;
#X connect 11 0 0 0;
#X connect 12 0 0 0;
#X restore 149 224 pd pio_sm_dma-cpuload;
#X connect 1 0 5 1;
#X connect 2 0 5 0;
#X connect 3 0 2 0;
#X connect 7 0 5 0;
#X connect 8 0 9 0;
#X connect 9 0 24 0;
#X connect 10 0 24 0;
#X connect 11 0 25 0;
#X connect 12 0 25 0;
#X connect 13 0 25 0;
#X connect 14 0 5 0;
#X connect 16 0 25 0;
#X connect 17 0 25 0;
#X connect 19 0 25 0;
#X connect 20 0 5 0;
#X connect 21 0 5 0;
#X connect 23 0 5 0;
#X connect 24 0 5 0;
#X connect 25 0 10 0;
#X connect 27 0 24 0;
#X connect 29 0 24 0;
#X connect 31 0 24 0;
#X connect 33 0 24 0;
#X connect 35 0 36 0;
#X connect 36 0 37 0;
#X connect 36 1 41 0;
#X connect 37 0 38 0;
#X connect 37 1 38 1;
#X connect 38 0 39 0;
#X connect 43 0 48 0;
#X connect 44 0 43 0;
#X connect 46 0 43 1;
#X connect 47 0 43 1;
#X connect 48 0 24 0;
#X connect 50 0 24 0;
#X connect 52 0 5 0;
