#N canvas 97 38 1279 537 12;
#X declare -path Fraise;
#X declare -path pdlua -lib pdlua;
#X declare -path moonlib;
#X obj 26 6 declare -path Fraise;
#X msg 49 322 c 1 c \$1;
#X obj 52 296 hsl 170 20 2 40 0 0 empty empty led\ period 5 10 0 12 #ffe3c6 #7c7c7c #000000 0 1;
#X obj 26 34 pied/pied 1;
#X obj 34 350 fruit/send2 fruit0;
#X obj 173 5 declare -path pdlua -lib pdlua;
#N canvas 87 196 709 639 test-dmx 0;
#X obj 36 175 mknob 100 -1 0 360 0 0 empty empty empty -2 -6 0 8 #fcfcfc #000000 #000000 0 1;
#X obj 155 181 mknob 100 400 -135 135 0 0 empty empty empty -2 -6 0 8 #fcfcfc #000000 #000000 0 1;
#X floatatom 248 294 12 0 0 0 - - - 0;
#X obj 36 321 pack f f;
#X obj 58 293 t b f;
#N canvas 638 27 714 529 testseq 0;
#X obj 150 75 tgl 20 0 empty empty empty 0 -10 0 12 #fcfcfc #000000 #000000 0 1;
#X obj 150 100 metro 2000;
#X obj 150 162 tgl 20 0 empty empty empty 0 -10 0 12 #fcfcfc #000000 #000000 0 1;
#X obj 150 347 pack f 2000;
#X obj 150 372 line;
#X obj 150 187 * 2;
#X obj 150 284 - 1;
#X floatatom 102 422 5 0 0 0 - - - 0;
#X obj 150 125 t b b, f 11;
#X obj 245 347 pack f 2000;
#X obj 245 372 line;
#X floatatom 261 425 5 0 0 0 - - - 0;
#X obj 150 429 pack f f;
#X obj 150 454 outlet;
#X obj 307 95 f;
#X msg 305 56 1000;
#X obj 245 286 +;
#X obj 245 164 random 2000;
#X obj 245 189 - 1000;
#X obj 245 219 / 1000;
#X msg 393 57 500;
#X obj 150 309 * 45;
#X msg 350 51 750;
#X msg 292 247 50;
#X msg 414 208 1 \, 0 500;
#X obj 414 233 line~;
#X obj 414 258 *~;
#X obj 414 283 *~;
#X obj 414 333 dac~;
#X obj 464 276 osc~ 1000;
#X obj 414 308 *~ 0.1;
#X msg 266 53 2000;
#X obj 244 311 clip 0 360;
#X msg 344 253 90;
#X msg 350 426 20;
#X obj 245 253 * 45;
#X floatatom 336 121 10 0 0 0 - - - 0;
#X msg 222 57 3000;
#X msg 189 288 50;
#X obj 195 319 * 1;
#X msg 188 258 60;
#X msg 185 226 45;
#X connect 0 0 1 0;
#X connect 1 0 8 0;
#X connect 2 0 5 0;
#X connect 3 0 4 0;
#X connect 4 0 12 0;
#X connect 5 0 6 0;
#X connect 6 0 21 0;
#X connect 8 0 2 0;
#X connect 8 1 17 0;
#X connect 8 1 24 0;
#X connect 9 0 10 0;
#X connect 10 0 12 1;
#X connect 12 0 13 0;
#X connect 14 0 1 1;
#X connect 14 0 9 1;
#X connect 14 0 36 0;
#X connect 14 0 39 0;
#X connect 15 0 14 0;
#X connect 16 0 32 0;
#X connect 17 0 18 0;
#X connect 18 0 19 0;
#X connect 19 0 35 0;
#X connect 20 0 14 0;
#X connect 21 0 3 0;
#X connect 22 0 14 0;
#X connect 23 0 35 1;
#X connect 24 0 25 0;
#X connect 25 0 26 0;
#X connect 25 0 26 1;
#X connect 26 0 27 0;
#X connect 27 0 30 0;
#X connect 29 0 27 1;
#X connect 30 0 28 0;
#X connect 31 0 14 0;
#X connect 32 0 16 1;
#X connect 32 0 9 0;
#X connect 33 0 35 1;
#X connect 34 0 4 2;
#X connect 34 0 10 2;
#X connect 35 0 16 0;
#X connect 37 0 14 0;
#X connect 38 0 21 1;
#X connect 39 0 3 1;
#X connect 40 0 21 1;
#X connect 41 0 21 1;
#X restore 33 89 pd testseq;
#X obj 33 114 unpack f f;
#X msg 272 129 200 i \$1 c \$2;
#X obj 36 348 s DMXpos;
#X obj 517 105 r DMXpos;
#X msg 517 207 201 i \$1 \$2;
#X obj 517 130 unpack f f;
#X obj 517 155 * 32;
#X obj 517 180 pack f f, f 10;
#X obj 584 154 * 32;
#X msg 379 171 204;
#X text 368 151 dmachan;
#X msg 450 170 203;
#X text 438 150 reset;
#X obj 30 29 declare -path moonlib;
#X obj 402 262 outlet;
#N canvas 604 75 1087 674 Maxi_spot_60 0;
#X obj 38 74 hsl 170 20 0 65535 0 0 empty empty pan -2 -10 0 12 #fcfcfc #000000 #000000 0 1;
#X msg 49 188 1 \$1;
#X msg 109 188 2 \$1;
#X obj 49 135 t f f, f 9;
#X obj 49 160 div 256;
#X obj 109 161 mod 256;
#X obj 244 109 hsl 170 20 0 65535 0 0 empty empty tilt -2 -10 0 12 #fcfcfc #000000 #000000 0 1;
#X obj 241 134 t f f, f 9;
#X obj 241 159 div 256;
#X obj 301 160 mod 256;
#X msg 241 187 3 \$1;
#X msg 301 187 4 \$1;
#X floatatom 181 155 8 0 0 0 - - - 0;
#X obj 441 116 hsl 170 20 0 255 0 0 empty empty slow -2 -10 0 12 #fcfcfc #000000 #000000 0 1;
#X msg 438 178 5 \$1;
#X obj 630 121 hsl 170 20 0 255 0 0 empty empty color -2 -10 0 12 #fcfcfc #000000 #000000 0 1;
#X msg 627 183 6 \$1;
#X obj 687 158 hsl 170 20 0 255 0 0 empty empty gobo -2 -10 0 12 #fcfcfc #000000 #000000 0 1;
#X msg 684 220 7 \$1;
#X obj 770 217 hsl 170 20 0 255 0 0 empty empty light -2 -10 0 12 #fcfcfc #000000 #000000 0 1;
#X msg 767 279 8 \$1;
#X floatatom 639 153 5 0 255 0 - - - 0;
#X floatatom 704 195 5 0 255 0 - - - 0;
#X obj 719 321 hradio 20 1 0 8 empty empty empty 0 -10 0 12 #fcfcfc #000000 #000000 0;
#X obj 720 352 * 8, f 6;
#X floatatom 775 349 5 0 0 0 - - - 0;
#X msg 296 73 32768;
#X obj 35 108 i;
#X msg 35 36 45490;
#X msg 86 36 1644;
#X obj 947 159 tgl 20 0 empty empty empty 0 -10 0 12 #fcfcfc #000000 #000000 0 1;
#X obj 947 184 * 255;
#X obj 990 156 del 50;
#X msg 990 181 0;
#X msg 1032 183 1;
#X obj 976 96 tgl 20 0 empty empty empty 0 -10 0 12 #fcfcfc #000000 #000000 0 1;
#X obj 990 131 metro 350;
#X msg 49 475 \$1 \$2;
#X obj 49 500 outlet;
#X obj 464 410 tgl 20 0 empty empty empty 0 -10 0 12 #fcfcfc #000000 #000000 0 1;
#X obj 466 433 metro 1000;
#X obj 466 458 tgl 20 0 empty empty empty 0 -10 0 12 #fcfcfc #000000 #000000 0 1;
#X obj 466 483 * 2;
#X obj 466 508 - 1;
#X obj 354 547 + 32768;
#X msg 548 366 700;
#X obj 466 533 pack f 700;
#X obj 466 558 line;
#X msg 524 501 0;
#X msg 582 359 1000;
#X floatatom 555 443 5 0 0 0 - - - 0;
#X msg 624 360 2000;
#X obj 469 582 hsl 170 20 -1 1 0 0 empty empty empty -2 -10 0 12 #fcfcfc #000000 #000000 0 1;
#X msg 680 369 500;
#X obj 354 519 * 16000;
#X obj 662 19 hradio 20 1 0 8 empty empty empty 0 -10 0 12 #fcfcfc #000000 #000000 0;
#X obj 662 44 * 18;
#X obj 662 69 + 4;
#X floatatom 728 83 5 0 0 0 - - - 0;
#X msg 598 54 126;
#X text 593 31 orange;
#X connect 0 0 27 0;
#X connect 1 0 37 0;
#X connect 2 0 37 0;
#X connect 3 0 4 0;
#X connect 3 1 5 0;
#X connect 4 0 1 0;
#X connect 5 0 2 0;
#X connect 6 0 7 0;
#X connect 7 0 8 0;
#X connect 7 1 9 0;
#X connect 8 0 10 0;
#X connect 9 0 11 0;
#X connect 10 0 37 0;
#X connect 11 0 37 0;
#X connect 13 0 14 0;
#X connect 14 0 37 0;
#X connect 15 0 16 0;
#X connect 16 0 37 0;
#X connect 17 0 18 0;
#X connect 18 0 37 0;
#X connect 19 0 20 0;
#X connect 20 0 37 0;
#X connect 21 0 16 0;
#X connect 22 0 18 0;
#X connect 23 0 24 0;
#X connect 23 0 25 0;
#X connect 24 0 22 0;
#X connect 26 0 6 0;
#X connect 27 0 3 0;
#X connect 28 0 0 0;
#X connect 29 0 0 0;
#X connect 30 0 31 0;
#X connect 31 0 19 0;
#X connect 32 0 33 0;
#X connect 33 0 30 0;
#X connect 34 0 30 0;
#X connect 35 0 36 0;
#X connect 36 0 32 0;
#X connect 36 0 34 0;
#X connect 37 0 38 0;
#X connect 39 0 40 0;
#X connect 40 0 41 0;
#X connect 41 0 42 0;
#X connect 42 0 43 0;
#X connect 43 0 46 0;
#X connect 44 0 6 0;
#X connect 45 0 50 0;
#X connect 46 0 47 0;
#X connect 47 0 52 0;
#X connect 48 0 46 1;
#X connect 49 0 50 0;
#X connect 50 0 40 1;
#X connect 50 0 46 1;
#X connect 51 0 50 0;
#X connect 52 0 54 0;
#X connect 53 0 50 0;
#X connect 54 0 44 0;
#X connect 55 0 56 0;
#X connect 56 0 57 0;
#X connect 57 0 15 0;
#X connect 57 0 58 0;
#X connect 59 0 15 0;
#X restore 273 64 pd Maxi_spot_60;
#N canvas 97 442 1142 542 Movobeam_100 0;
#X obj 38 74 hsl 170 20 0 65535 0 0 empty empty pan -2 -10 0 12 #fcfcfc #000000 #000000 0 1;
#X msg 49 188 1 \$1;
#X msg 109 188 2 \$1;
#X obj 49 135 t f f, f 9;
#X obj 49 160 div 256;
#X obj 109 161 mod 256;
#X obj 244 109 hsl 170 20 0 65535 0 0 empty empty tilt -2 -10 0 12 #fcfcfc #000000 #000000 0 1;
#X obj 241 134 t f f, f 9;
#X obj 241 159 div 256;
#X obj 301 160 mod 256;
#X floatatom 181 155 8 0 0 0 - - - 0;
#X obj 436 124 hsl 170 20 0 255 0 0 empty empty light -2 -10 0 12 #feffc6 #000000 #000000 0 1;
#X msg 296 73 32768;
#X obj 35 108 i;
#X msg 35 36 45490;
#X msg 86 36 1644;
#X obj 479 72 tgl 20 0 empty empty empty 0 -10 0 12 #fcfcfc #000000 #000000 0 1;
#X obj 479 97 * 255;
#X obj 522 69 del 50;
#X msg 522 94 0;
#X msg 564 96 1;
#X obj 508 9 tgl 20 0 empty empty empty 0 -10 0 12 #fcfcfc #000000 #000000 0 1;
#X obj 522 44 metro 350;
#X msg 49 475 \$1 \$2;
#X obj 49 500 outlet;
#X msg 241 187 4 \$1;
#X msg 301 187 5 \$1;
#X msg 433 186 7 \$1;
#X msg 503 240 9 \, 10 \, 11;
#X msg 503 265 \$1 0;
#X msg 587 242 12 255;
#X obj 670 168 vsl 20 80 0 255 0 0 empty empty empty 0 -9 0 12 #ff0400 #000000 #000000 0 1;
#X obj 695 168 vsl 20 80 0 255 0 0 empty empty empty 0 -9 0 12 #00ff04 #000000 #000000 0 1;
#X obj 719 168 vsl 20 80 0 255 0 0 empty empty empty 0 -9 0 12 #00faff #000000 #000000 0 1;
#X obj 744 168 vsl 20 80 0 255 0 0 empty empty empty 0 -9 0 12 #ffffff #000000 #000000 0 1;
#X obj 640 295 t a;
#X obj 774 11 tgl 20 0 empty empty empty 0 -10 0 12 #fcfcfc #000000 #000000 0 1;
#X obj 788 71 tgl 20 0 empty empty empty 0 -10 0 12 #fcfcfc #000000 #000000 0 1;
#X obj 788 46 metro 80;
#X obj 824 70 == 0;
#X obj 788 96 * 255;
#X obj 824 95 * 255;
#X obj 884 239 hsl 170 20 0 133 0 0 empty empty ring -2 -10 0 12 #fcfcfc #000000 #000000 0 1;
#X msg 881 267 14 \$1;
#X obj 882 351 hsl 170 20 0 255 0 0 empty empty zoom -2 -10 0 12 #9c00ff #000000 #000000 0 1;
#X msg 879 378 15 \$1;
#X msg 431 282 8 0;
#X obj 159 8 tgl 20 0 empty empty empty 0 -10 0 12 #fcfcfc #000000 #000000 0 1;
#X obj 157 32 * 43847;
#X msg 640 270 10 \$1;
#X msg 679 270 11 \$1;
#X msg 724 270 12 \$1;
#X msg 771 270 13 \$1;
#X connect 0 0 13 0;
#X connect 0 0 10 0;
#X connect 1 0 23 0;
#X connect 2 0 23 0;
#X connect 3 0 4 0;
#X connect 3 1 5 0;
#X connect 4 0 1 0;
#X connect 5 0 2 0;
#X connect 6 0 7 0;
#X connect 7 0 8 0;
#X connect 7 1 9 0;
#X connect 8 0 25 0;
#X connect 9 0 26 0;
#X connect 11 0 27 0;
#X connect 12 0 6 0;
#X connect 13 0 3 0;
#X connect 14 0 0 0;
#X connect 15 0 0 0;
#X connect 16 0 17 0;
#X connect 17 0 11 0;
#X connect 18 0 19 0;
#X connect 19 0 16 0;
#X connect 20 0 16 0;
#X connect 21 0 22 0;
#X connect 22 0 18 0;
#X connect 22 0 20 0;
#X connect 23 0 24 0;
#X connect 25 0 23 0;
#X connect 26 0 23 0;
#X connect 27 0 23 0;
#X connect 28 0 29 0;
#X connect 29 0 35 0;
#X connect 30 0 35 0;
#X connect 31 0 49 0;
#X connect 32 0 50 0;
#X connect 33 0 51 0;
#X connect 34 0 52 0;
#X connect 35 0 23 0;
#X connect 36 0 38 0;
#X connect 37 0 39 0;
#X connect 37 0 40 0;
#X connect 38 0 37 0;
#X connect 39 0 41 0;
#X connect 40 0 31 0;
#X connect 41 0 32 0;
#X connect 42 0 43 0;
#X connect 43 0 23 0;
#X connect 44 0 45 0;
#X connect 45 0 23 0;
#X connect 46 0 23 0;
#X connect 47 0 48 0;
#X connect 48 0 0 0;
#X connect 49 0 35 0;
#X connect 50 0 35 0;
#X connect 51 0 35 0;
#X connect 52 0 35 0;
#X restore 391 63 pd Movobeam_100;
#N canvas 321 388 450 300 reset 0;
#X msg 165 62 50;
#X obj 165 87 t b b f, f 18;
#X obj 165 112 metro 5;
#X obj 165 137 i;
#X obj 196 138 + 1;
#X msg 224 113 0;
#X obj 165 162 moses 50, f 18;
#X msg 165 187 \$1 0;
#X obj 165 212 outlet;
#X obj 207 29 inlet;
#X connect 0 0 1 0;
#X connect 1 0 2 0;
#X connect 1 1 5 0;
#X connect 1 2 6 1;
#X connect 2 0 3 0;
#X connect 3 0 4 0;
#X connect 3 0 6 0;
#X connect 4 0 3 1;
#X connect 5 0 3 1;
#X connect 6 0 7 0;
#X connect 7 0 8 0;
#X connect 9 0 1 0;
#X restore 202 88 pd reset;
#X msg 203 63 50;
#N canvas 413 72 1329 942 EVOBeam 0;
#X obj 38 74 hsl 170 20 0 65535 0 0 empty empty pan -2 -10 0 12 #fcfcfc #000000 #000000 0 1;
#X msg 49 188 1 \$1;
#X msg 109 188 2 \$1;
#X obj 49 135 t f f, f 9;
#X obj 49 160 div 256;
#X obj 109 161 mod 256;
#X obj 244 109 hsl 170 20 0 65535 0 0 empty empty tilt -2 -10 0 12 #fcfcfc #000000 #000000 0 1;
#X obj 241 134 t f f, f 9;
#X obj 241 159 div 256;
#X obj 301 160 mod 256;
#X floatatom 181 155 8 0 0 0 - - - 0;
#X obj 436 124 hsl 170 20 0 255 0 0 empty empty light -2 -10 0 12 #feffc6 #000000 #000000 0 1;
#X msg 245 68 32768;
#X obj 35 108 i;
#X msg 35 36 45490;
#X msg 86 36 1644;
#X obj 479 72 tgl 20 0 empty empty empty 0 -10 0 12 #fcfcfc #000000 #000000 0 1;
#X obj 479 97 * 255;
#X obj 522 69 del 50;
#X msg 522 94 0;
#X msg 564 96 1;
#X obj 508 9 tgl 20 0 empty empty empty 0 -10 0 12 #fcfcfc #000000 #000000 0 1;
#X obj 522 44 metro 350;
#X msg 49 475 \$1 \$2;
#X obj 49 500 outlet;
#X obj 884 239 hsl 170 20 0 133 0 0 empty empty gobo -2 -10 0 12 #fcfcfc #000000 #000000 0 1;
#X msg 431 282 8 0;
#X obj 159 8 tgl 20 0 empty empty empty 0 -10 0 12 #fcfcfc #000000 #000000 0 1;
#X obj 157 32 * 43847;
#X msg 433 186 8 \$1;
#X msg 378 287 7 32;
#X msg 882 268 6 \$1;
#X obj 877 135 hradio 20 1 0 18 empty empty empty 0 -10 0 12 #fcfcfc #000000 #000000 0;
#X obj 877 160 * 5;
#X floatatom 902 188 5 0 0 0 - - - 0;
#X obj 1053 15 tgl 20 0 empty empty empty 0 -10 0 12 #fcfcfc #000000 #000000 0 1;
#X obj 1040 62 i;
#X obj 1040 87 + 1;
#X obj 1040 112 mod 18;
#X obj 1041 36 metro 500;
#X obj 894 411 hsl 170 20 0 133 0 0 empty empty color -2 -10 0 12 #fcfcfc #000000 #000000 0 1;
#X obj 875 315 hradio 20 1 0 18 empty empty empty 0 -10 0 12 #fcfcfc #000000 #000000 0;
#X floatatom 900 368 5 0 0 0 - - - 0;
#X obj 875 340 * 10;
#X msg 880 448 5 \$1;
#X msg 241 187 3 \$1;
#X msg 301 187 4 \$1;
#X msg 261 605 9 \$1;
#X obj 263 576 hsl 170 20 0 255 0 0 empty empty prism -2 -10 0 12 #fcfcfc #000000 #000000 0 1;
#X obj 265 650 hsl 170 20 0 255 0 0 empty empty froze -2 -10 0 12 #fcfcfc #000000 #000000 0 1;
#X msg 263 679 10 \$1;
#X obj 605 453 tgl 20 0 empty empty empty 0 -10 0 12 #fcfcfc #000000 #000000 0 1;
#X obj 607 476 metro 1000;
#X obj 607 501 tgl 20 0 empty empty empty 0 -10 0 12 #fcfcfc #000000 #000000 0 1;
#X obj 607 526 * 2;
#X obj 607 551 - 1;
#X obj 443 735 + 32768;
#X obj 443 707 * 14000;
#X msg 689 409 700;
#X obj 607 576 pack f 700;
#X obj 607 601 line;
#X msg 665 544 0;
#X msg 723 402 1000;
#X floatatom 696 486 5 0 0 0 - - - 0;
#X msg 765 403 2000;
#X obj 764 576 tgl 20 0 empty empty empty 0 -10 0 12 #fcfcfc #000000 #000000 0 1;
#X obj 764 601 metro 10;
#X obj 764 633 f;
#X floatatom 817 832 11 0 0 0 - - - 0;
#X obj 814 700 +;
#X obj 855 696 * -1;
#X obj 814 750 +;
#X obj 814 775 f;
#X obj 578 644 hsl 170 20 -1 1 0 0 empty empty empty -2 -10 0 12 #fcfcfc #000000 #000000 0 1;
#X obj 578 673 hsl 170 20 -1 1 0 0 empty empty empty -2 -10 0 12 #fcfcfc #000000 #000000 0 1;
#X obj 578 705 hsl 170 20 -1 1 0 0 empty empty empty -2 -10 0 12 #fcfcfc #000000 #000000 0 1;
#X obj 773 803 -;
#X floatatom 668 892 5 0 0 0 - - - 0;
#X obj 768 663 t f f f;
#X obj 746 848 +;
#X obj 986 769 +;
#X obj 1027 765 * -1;
#X obj 986 819 +;
#X obj 986 844 f;
#X obj 986 794 * 0.06;
#X obj 578 743 hsl 170 20 -1 1 0 0 empty empty empty -2 -10 0 12 #fcfcfc #000000 #000000 0 1;
#X obj 814 725 * 0.03;
#X msg 821 412 500;
#X msg 953 622 0.03 14000;
#X obj 953 647 *;
#X floatatom 953 672 5 0 0 0 - - - 0;
#X connect 0 0 13 0;
#X connect 0 0 10 0;
#X connect 1 0 23 0;
#X connect 2 0 23 0;
#X connect 3 0 4 0;
#X connect 3 1 5 0;
#X connect 4 0 1 0;
#X connect 5 0 2 0;
#X connect 6 0 7 0;
#X connect 7 0 8 0;
#X connect 7 1 9 0;
#X connect 8 0 45 0;
#X connect 9 0 46 0;
#X connect 11 0 29 0;
#X connect 12 0 6 0;
#X connect 13 0 3 0;
#X connect 14 0 0 0;
#X connect 15 0 0 0;
#X connect 16 0 17 0;
#X connect 17 0 11 0;
#X connect 18 0 19 0;
#X connect 19 0 16 0;
#X connect 20 0 16 0;
#X connect 21 0 22 0;
#X connect 22 0 18 0;
#X connect 22 0 20 0;
#X connect 23 0 24 0;
#X connect 25 0 31 0;
#X connect 26 0 23 0;
#X connect 27 0 28 0;
#X connect 28 0 0 0;
#X connect 29 0 23 0;
#X connect 30 0 23 0;
#X connect 31 0 23 0;
#X connect 32 0 33 0;
#X connect 33 0 31 0;
#X connect 33 0 34 0;
#X connect 35 0 39 0;
#X connect 36 0 37 0;
#X connect 37 0 38 0;
#X connect 38 0 36 1;
#X connect 38 0 32 0;
#X connect 39 0 36 0;
#X connect 40 0 44 0;
#X connect 41 0 43 0;
#X connect 43 0 44 0;
#X connect 43 0 42 0;
#X connect 44 0 23 0;
#X connect 45 0 23 0;
#X connect 46 0 23 0;
#X connect 47 0 23 0;
#X connect 48 0 47 0;
#X connect 49 0 50 0;
#X connect 50 0 23 0;
#X connect 51 0 52 0;
#X connect 52 0 53 0;
#X connect 53 0 54 0;
#X connect 54 0 55 0;
#X connect 55 0 59 0;
#X connect 56 0 6 0;
#X connect 57 0 56 0;
#X connect 58 0 63 0;
#X connect 59 0 60 0;
#X connect 60 0 73 0;
#X connect 61 0 59 1;
#X connect 62 0 63 0;
#X connect 63 0 52 1;
#X connect 63 0 59 1;
#X connect 64 0 63 0;
#X connect 65 0 66 0;
#X connect 66 0 67 0;
#X connect 67 0 78 0;
#X connect 69 0 86 0;
#X connect 70 0 69 1;
#X connect 71 0 72 0;
#X connect 72 0 71 1;
#X connect 72 0 70 0;
#X connect 72 0 68 0;
#X connect 72 0 74 0;
#X connect 72 0 76 1;
#X connect 73 0 67 1;
#X connect 73 0 57 0;
#X connect 76 0 79 1;
#X connect 78 0 79 0;
#X connect 78 1 76 0;
#X connect 78 2 69 0;
#X connect 79 0 75 0;
#X connect 79 0 80 0;
#X connect 80 0 84 0;
#X connect 81 0 80 1;
#X connect 82 0 83 0;
#X connect 83 0 82 1;
#X connect 83 0 81 0;
#X connect 83 0 85 0;
#X connect 84 0 82 0;
#X connect 86 0 71 0;
#X connect 87 0 63 0;
#X connect 88 0 89 0;
#X connect 89 0 90 0;
#X restore 515 64 pd EVOBeam;
#X obj 507 265 hsl 170 20 0 255 0 0 empty empty empty -2 -10 0 12 #fcfcfc #000000 #000000 0 1;
#X msg 505 290 205 \$1;
#X msg 279 443 0.03 \$1;
#X msg 278 406 0.03;
#X obj 279 468 unpack f f;
#X obj 279 493 * 65535;
#X obj 346 492 * 65535;
#X obj 279 518 pack f f, f 10;
#X msg 280 543 206 i \$1 \$2;
#X msg 323 406 0.6;
#X listbox 187 581 20 0 0 0 - - - 0;
#X msg 217 406 0.01;
#X floatatom 50 440 5 0 0 0 - - - 0;
#X msg 425 409 0.06 0.04;
#X obj 505 240 r DMXdimmer;
#X obj 100 461 s pixel_show_angle;
#X msg 135 128 180;
#X obj 116 70 hradio 20 1 0 4 empty empty empty 0 -10 0 12 #fcfcfc #000000 #000000 0;
#X obj 116 95 * 90;
#X msg 473 468 \$1 0.04;
#X msg 582 411 0.03;
#X msg 627 411 0.6;
#X msg 541 412 0.01;
#X floatatom 521 436 5 0 0 0 - - - 0;
#X msg 503 383 0.001;
#N canvas 672 79 1003 857 MartinMAC350Entour 0;
#X obj 38 74 hsl 170 20 0 65535 0 0 empty empty pan -2 -10 0 12 #fcfcfc #000000 #000000 0 1;
#X obj 49 135 t f f, f 9;
#X obj 49 160 div 256;
#X obj 109 161 mod 256;
#X obj 244 109 hsl 170 20 0 65535 0 0 empty empty tilt -2 -10 0 12 #fcfcfc #000000 #000000 0 1;
#X obj 241 134 t f f, f 9;
#X obj 241 159 div 256;
#X obj 301 160 mod 256;
#X floatatom 181 155 8 0 0 0 - - - 0;
#X obj 436 124 hsl 170 20 0 255 0 0 empty empty light -2 -10 0 12 #feffc6 #000000 #000000 0 1;
#X msg 245 68 32768;
#X obj 35 108 i;
#X msg 35 36 45490;
#X msg 86 36 1644;
#X obj 479 72 tgl 20 0 empty empty empty 0 -10 0 12 #fcfcfc #000000 #000000 0 1;
#X obj 479 97 * 255;
#X obj 522 69 del 50;
#X msg 522 94 0;
#X msg 564 96 1;
#X obj 508 9 tgl 20 0 empty empty empty 0 -10 0 12 #fcfcfc #000000 #000000 0 1;
#X obj 522 44 metro 350;
#X msg 49 475 \$1 \$2;
#X obj 49 500 outlet;
#X obj 884 239 hsl 170 20 0 133 0 0 empty empty gobo -2 -10 0 12 #fcfcfc #000000 #000000 0 1;
#X obj 159 8 tgl 20 0 empty empty empty 0 -10 0 12 #fcfcfc #000000 #000000 0 1;
#X obj 157 32 * 43847;
#X obj 877 135 hradio 20 1 0 18 empty empty empty 0 -10 0 12 #fcfcfc #000000 #000000 0;
#X floatatom 902 188 5 0 0 0 - - - 0;
#X obj 1053 15 tgl 20 0 empty empty empty 0 -10 0 12 #fcfcfc #000000 #000000 0 1;
#X obj 1040 62 i;
#X obj 1040 87 + 1;
#X obj 1041 36 metro 500;
#X obj 894 411 hsl 170 20 0 133 0 0 empty empty color -2 -10 0 12 #fcfcfc #000000 #000000 0 1;
#X obj 875 315 hradio 20 1 0 18 empty empty empty 0 -10 0 12 #fcfcfc #000000 #000000 0;
#X floatatom 900 368 5 0 0 0 - - - 0;
#X msg 261 605 9 \$1;
#X obj 263 576 hsl 170 20 0 255 0 0 empty empty prism -2 -10 0 12 #fcfcfc #000000 #000000 0 1;
#X obj 265 650 hsl 170 20 0 255 0 0 empty empty froze -2 -10 0 12 #fcfcfc #000000 #000000 0 1;
#X msg 263 679 10 \$1;
#X obj 605 453 tgl 20 0 empty empty empty 0 -10 0 12 #fcfcfc #000000 #000000 0 1;
#X obj 607 476 metro 1000;
#X obj 607 501 tgl 20 0 empty empty empty 0 -10 0 12 #fcfcfc #000000 #000000 0 1;
#X obj 607 526 * 2;
#X obj 607 551 - 1;
#X obj 443 735 + 32768;
#X obj 443 707 * 14000;
#X msg 689 409 700;
#X obj 607 576 pack f 700;
#X obj 607 601 line;
#X msg 665 544 0;
#X msg 723 402 1000;
#X floatatom 696 486 5 0 0 0 - - - 0;
#X msg 765 403 2000;
#X obj 764 576 tgl 20 0 empty empty empty 0 -10 0 12 #fcfcfc #000000 #000000 0 1;
#X obj 764 601 metro 10;
#X obj 764 633 f;
#X floatatom 817 832 11 0 0 0 - - - 0;
#X obj 814 700 +;
#X obj 855 696 * -1;
#X obj 814 750 +;
#X obj 814 775 f;
#X obj 578 644 hsl 170 20 -1 1 0 0 empty empty empty -2 -10 0 12 #fcfcfc #000000 #000000 0 1;
#X obj 578 673 hsl 170 20 -1 1 0 0 empty empty empty -2 -10 0 12 #fcfcfc #000000 #000000 0 1;
#X obj 578 705 hsl 170 20 -1 1 0 0 empty empty empty -2 -10 0 12 #fcfcfc #000000 #000000 0 1;
#X obj 773 803 -;
#X floatatom 668 892 5 0 0 0 - - - 0;
#X obj 768 663 t f f f;
#X obj 746 848 +;
#X obj 986 769 +;
#X obj 1027 765 * -1;
#X obj 986 819 +;
#X obj 986 844 f;
#X obj 986 794 * 0.06;
#X obj 578 743 hsl 170 20 -1 1 0 0 empty empty empty -2 -10 0 12 #fcfcfc #000000 #000000 0 1;
#X obj 814 725 * 0.03;
#X msg 821 412 500;
#X msg 953 622 0.03 14000;
#X obj 953 647 *;
#X floatatom 953 672 5 0 0 0 - - - 0;
#X msg 49 188 11 \$1;
#X msg 109 188 12 \$1;
#X msg 241 187 13 \$1;
#X msg 301 187 14 \$1;
#X msg 397 289 1 20;
#X text 400 267 open shutter;
#X msg 433 186 2 \$1;
#X msg 882 268 4 \$1;
#X obj 877 160 * 4;
#X obj 1040 112 mod 6;
#X obj 1102 179 tgl 20 0 empty empty empty 0 -10 0 12 #fcfcfc #000000 #000000 0 1;
#X obj 1089 226 i;
#X obj 1089 251 + 1;
#X obj 1090 200 metro 500;
#X obj 1089 276 mod 6;
#X obj 875 340 * 16;
#X msg 880 448 3 \$1;
#X msg 448 323 4 0 \, 3 0 \, 5 0;
#X msg 475 411 15 0;
#X msg 678 75 1 \, 2 \, 3 \, 4 \, 5 \, 6 \, 7 \, 8 \, 9 \, 10 \, 11 \, 12 \, 13 \, 14 \, 15 \, 16 \, 17 \, 18 \, 19;
#X msg 678 100 \$1 0;
#X connect 0 0 11 0;
#X connect 0 0 8 0;
#X connect 1 0 2 0;
#X connect 1 1 3 0;
#X connect 2 0 79 0;
#X connect 3 0 80 0;
#X connect 4 0 5 0;
#X connect 5 0 6 0;
#X connect 5 1 7 0;
#X connect 6 0 81 0;
#X connect 7 0 82 0;
#X connect 9 0 85 0;
#X connect 10 0 4 0;
#X connect 11 0 1 0;
#X connect 12 0 0 0;
#X connect 13 0 0 0;
#X connect 14 0 15 0;
#X connect 15 0 9 0;
#X connect 16 0 17 0;
#X connect 17 0 14 0;
#X connect 18 0 14 0;
#X connect 19 0 20 0;
#X connect 20 0 16 0;
#X connect 20 0 18 0;
#X connect 21 0 22 0;
#X connect 23 0 86 0;
#X connect 24 0 25 0;
#X connect 25 0 0 0;
#X connect 26 0 87 0;
#X connect 28 0 31 0;
#X connect 29 0 30 0;
#X connect 30 0 88 0;
#X connect 31 0 29 0;
#X connect 32 0 95 0;
#X connect 33 0 94 0;
#X connect 35 0 21 0;
#X connect 36 0 35 0;
#X connect 37 0 38 0;
#X connect 38 0 21 0;
#X connect 39 0 40 0;
#X connect 40 0 41 0;
#X connect 41 0 42 0;
#X connect 42 0 43 0;
#X connect 43 0 47 0;
#X connect 44 0 4 0;
#X connect 45 0 44 0;
#X connect 46 0 51 0;
#X connect 47 0 48 0;
#X connect 48 0 61 0;
#X connect 49 0 47 1;
#X connect 50 0 51 0;
#X connect 51 0 40 1;
#X connect 51 0 47 1;
#X connect 52 0 51 0;
#X connect 53 0 54 0;
#X connect 54 0 55 0;
#X connect 55 0 66 0;
#X connect 57 0 74 0;
#X connect 58 0 57 1;
#X connect 59 0 60 0;
#X connect 60 0 59 1;
#X connect 60 0 58 0;
#X connect 60 0 56 0;
#X connect 60 0 62 0;
#X connect 60 0 64 1;
#X connect 61 0 55 1;
#X connect 61 0 45 0;
#X connect 64 0 67 1;
#X connect 66 0 67 0;
#X connect 66 1 64 0;
#X connect 66 2 57 0;
#X connect 67 0 63 0;
#X connect 67 0 68 0;
#X connect 68 0 72 0;
#X connect 69 0 68 1;
#X connect 70 0 71 0;
#X connect 71 0 70 1;
#X connect 71 0 69 0;
#X connect 71 0 73 0;
#X connect 72 0 70 0;
#X connect 74 0 59 0;
#X connect 75 0 51 0;
#X connect 76 0 77 0;
#X connect 77 0 78 0;
#X connect 79 0 21 0;
#X connect 80 0 21 0;
#X connect 81 0 21 0;
#X connect 82 0 21 0;
#X connect 83 0 21 0;
#X connect 85 0 21 0;
#X connect 86 0 21 0;
#X connect 87 0 86 0;
#X connect 87 0 27 0;
#X connect 88 0 29 1;
#X connect 88 0 26 0;
#X connect 89 0 92 0;
#X connect 90 0 91 0;
#X connect 91 0 93 0;
#X connect 92 0 90 0;
#X connect 93 0 90 1;
#X connect 93 0 33 0;
#X connect 94 0 95 0;
#X connect 94 0 34 0;
#X connect 95 0 21 0;
#X connect 96 0 21 0;
#X connect 97 0 21 0;
#X connect 98 0 99 0;
#X connect 99 0 21 0;
#X restore 601 64 pd MartinMAC350Entour;
#X obj 132 395 * 180;
#X obj 132 363 < 0;
#X obj 89 392 +;
#X obj 104 518 mod 360;
#X floatatom 59 520 5 0 0 0 - - - 0;
#N canvas 557 596 492 444 anticiper 0;
#X obj 302 48 tgl 20 0 empty empty empty 0 -10 0 12 #fcfcfc #000000 #000000 0 1;
#X obj 302 73 metro 10;
#X obj 302 105 f;
#X floatatom 355 304 11 0 0 0 - - - 0;
#X obj 352 172 +;
#X obj 384 171 * -1;
#X obj 352 222 +;
#X obj 352 247 f;
#X obj 116 116 hsl 170 20 -1 1 0 0 empty empty empty -2 -10 0 12 #fcfcfc #000000 #000000 0 1;
#X obj 116 145 hsl 170 20 -1 1 0 0 empty empty empty -2 -10 0 12 #fcfcfc #000000 #000000 0 1;
#X obj 116 177 hsl 170 20 -1 1 0 0 empty empty empty -2 -10 0 12 #fcfcfc #000000 #000000 0 1;
#X obj 311 275 -;
#X obj 306 135 t f f f;
#X obj 284 320 +;
#X obj 116 215 hsl 170 20 -1 1 0 0 empty empty empty -2 -10 0 12 #fcfcfc #000000 #000000 0 1;
#X obj 352 197 * 0.03;
#X obj 89 23 inlet;
#X obj 89 376 outlet;
#X obj 89 49 list prepend 0;
#X obj 89 74 route 0 1, f 26;
#X msg 388 75 0.06;
#X msg 457 72 0.5;
#X msg 425 64 0.1;
#X floatatom 398 124 5 0 0 0 - - - 0;
#X connect 0 0 1 0;
#X connect 0 0 18 1;
#X connect 1 0 2 0;
#X connect 2 0 12 0;
#X connect 4 0 15 0;
#X connect 5 0 4 1;
#X connect 6 0 7 0;
#X connect 7 0 6 1;
#X connect 7 0 5 0;
#X connect 7 0 3 0;
#X connect 7 0 9 0;
#X connect 7 0 11 1;
#X connect 8 0 2 1;
#X connect 11 0 13 1;
#X connect 12 0 13 0;
#X connect 12 1 11 0;
#X connect 12 2 4 0;
#X connect 13 0 10 0;
#X connect 13 0 17 0;
#X connect 15 0 6 0;
#X connect 16 0 18 0;
#X connect 16 0 2 1;
#X connect 18 0 19 0;
#X connect 19 0 17 0;
#X connect 20 0 23 0;
#X connect 21 0 23 0;
#X connect 22 0 23 0;
#X connect 23 0 15 1;
#X restore 117 296 pd anticiper;
#X msg 191 147 0;
#X connect 0 0 3 0;
#X connect 0 0 38 0;
#X connect 0 0 54 0;
#X connect 1 0 2 0;
#X connect 1 0 53 0;
#X connect 1 0 57 0;
#X connect 3 0 8 0;
#X connect 4 0 3 0;
#X connect 4 1 3 1;
#X connect 5 0 6 0;
#X connect 6 0 1 0;
#X connect 6 1 0 0;
#X connect 7 0 20 0;
#X connect 9 0 11 0;
#X connect 10 0 20 0;
#X connect 11 0 12 0;
#X connect 11 1 14 0;
#X connect 12 0 13 0;
#X connect 13 0 10 0;
#X connect 14 0 13 1;
#X connect 15 0 20 0;
#X connect 17 0 20 0;
#X connect 21 0 7 0;
#X connect 22 0 7 0;
#X connect 23 0 7 0;
#X connect 24 0 23 0;
#X connect 25 0 7 0;
#X connect 26 0 27 0;
#X connect 27 0 20 0;
#X connect 28 0 30 0;
#X connect 29 0 28 0;
#X connect 30 0 31 0;
#X connect 30 1 32 0;
#X connect 31 0 33 0;
#X connect 32 0 33 1;
#X connect 33 0 34 0;
#X connect 34 0 20 0;
#X connect 34 0 36 0;
#X connect 35 0 28 0;
#X connect 37 0 28 0;
#X connect 39 0 30 0;
#X connect 40 0 26 0;
#X connect 42 0 0 0;
#X connect 43 0 44 0;
#X connect 44 0 0 0;
#X connect 45 0 30 0;
#X connect 46 0 49 0;
#X connect 47 0 49 0;
#X connect 48 0 49 0;
#X connect 49 0 45 0;
#X connect 50 0 49 0;
#X connect 51 0 7 0;
#X connect 52 0 54 1;
#X connect 53 0 52 0;
#X connect 54 0 41 0;
#X connect 57 0 4 0;
#X connect 58 0 1 0;
#X restore 311 224 pd test-dmx;
#N canvas 82 335 809 449 test_pixels 0;
#X obj 216 248 list prepend 10;
#X obj 216 273 outlet;
#X msg 130 174 10 \$1;
#X obj 136 148 tgl 20 0 empty empty empty 0 -10 0 12 #fcfcfc #000000 #000000 0 1;
#X obj 268 95 t f f b;
#X obj 350 134 f;
#X floatatom 191 23 5 0 300 0 - - - 0;
#X msg 248 173 20 c \$1 c 255 0 0;
#X msg 392 172 20 c \$1 c 0 0 50;
#X msg 432 85 30 l \$1;
#X floatatom 435 50 5 0 0 0 - - - 0;
#X msg 525 169 100;
#X text 517 148 dmachan;
#X obj 622 128 fruit/receive fruit0;
#X listbox 540 299 20 0 0 0 - - - 0;
#X obj 689 248 print;
#X obj 540 274 route load l;
#X obj 673 182 route 22;
#X msg 124 348 100;
#X obj 192 47 + 22;
#X obj 192 72 / 360;
#X obj 192 97 * 212;
#X obj 192 122 mod 212;
#X obj 256 27 r pixel_show_angle;
#X connect 0 0 1 0;
#X connect 2 0 0 0;
#X connect 3 0 2 0;
#X connect 4 0 5 1;
#X connect 4 1 7 0;
#X connect 4 2 5 0;
#X connect 5 0 8 0;
#X connect 6 0 19 0;
#X connect 7 0 0 0;
#X connect 8 0 0 0;
#X connect 9 0 0 0;
#X connect 10 0 9 0;
#X connect 11 0 0 0;
#X connect 16 0 14 0;
#X connect 17 1 15 0;
#X connect 18 0 1 0;
#X connect 19 0 20 0;
#X connect 20 0 21 0;
#X connect 21 0 22 0;
#X connect 22 0 4 0;
#X connect 23 0 6 0;
#X restore 46 226 pd test_pixels;
#N canvas 146 56 1257 515 config 0;
#X obj 79 248 s DMXpos;
#X msg 258 507 200 i \$1 c \$2;
#X obj 170 273 fruit/send2 fruit0;
#X obj 328 236 list prepend 20;
#X floatatom 328 149 5 0 0 2 total_leds - - 0;
#X floatatom 412 148 5 0 0 2 leds_angle_offset - - 0;
#X floatatom 539 144 5 0 0 2 distance_max - - 0;
#X floatatom 630 144 5 0 0 2 distance_min - - 0;
#X floatatom 722 145 5 0 0 2 lidar_angle_offset - - 0;
#X floatatom 860 140 5 0 0 2 proj_tilt_amp - - 0;
#X msg 328 186 1 i \$1;
#X msg 412 198 2 i \$1;
#X msg 539 181 3 i \$1;
#X msg 630 186 4 i \$1;
#X msg 721 182 5 i \$1;
#X msg 860 177 6 i \$1;
#X obj 179 307 fruit/receive fruit0;
#X msg 45 225 0 0;
#X msg 34 348 \$1 45;
#X floatatom 39 314 5 0 0 0 - - - 0;
#X msg 320 278 SAVE_EEPROM;
#X obj 327 50 list trim;
#X obj 327 26 list prepend set;
#X obj 412 173 +;
#X obj 440 172 t b f;
#X floatatom 90 112 5 0 0 0 - - - 0;
#X obj 825 269 metro 100;
#X floatatom 825 484 5 0 0 0 - - - 0;
#X obj 828 242 tgl 20 0 empty empty empty 0 -10 0 12 #fcfcfc #000000 #000000 0 1;
#X obj 825 294 f 1;
#X obj 825 319 +;
#X obj 825 344 f;
#X obj 825 375 moses 3;
#X obj 883 376 moses 358;
#X msg 825 400 0;
#X msg 943 400 359;
#X msg 975 401 -1;
#X msg 791 401 1;
#X floatatom 738 372 5 0 0 0 - - - 0;
#X obj 901 464 f;
#X obj 791 429 * 1;
#X msg 102 66 0;
#X msg 144 71 360;
#X floatatom 969 141 8 0 0 2 proj_pan_amp - - 0;
#X msg 969 178 7 i \$1;
#X msg 1013 26 44850;
#X msg 113 469 4 \$1;
#X msg 109 428 0;
#X msg 148 427 1;
#X msg 186 427 2;
#X text 102 409 reset;
#X text 146 406 stop;
#X text 186 407 start;
#X text 60 426 LIDAR;
#X msg 239 427 3;
#X text 239 407 snap;
#X obj 265 142 * 1;
#X obj 900 308 tgl 20 0 empty empty empty 0 -10 0 12 #fcfcfc #000000 #000000 0 1;
#X msg 881 336 360;
#X obj 48 43 metro 100;
#X obj 51 16 tgl 20 0 empty empty empty 0 -10 0 12 #fcfcfc #000000 #000000 0 1;
#X msg 1024 55 43847;
#X text 492 232 get params;
#X msg 493 255 101;
#X obj 179 331 route 200;
#X listbox 179 382 45 0 0 0 - - - 0;
#X msg 79 223 0 \$1;
#X floatatom 107 189 5 0 0 0 - - - 0;
#X msg 90 136 \$1 40;
#X msg 1041 88 43539;
#X obj 330 430 bng 20 250 50 0 empty empty empty 0 -10 0 12 #fcfcfc #000000 #000000;
#X msg 254 480 9 0 \, 10 0 \, 11 0 \, 12 255;
#X text 275 460 blanc;
#X obj 163 238 s DMXdimmer;
#X msg 163 198 40;
#X msg 200 197 0;
#X obj 491 155 bng 20 250 50 0 empty empty empty 0 -10 0 12 #fcfcfc #000000 #000000;
#X obj 329 100 unpack f f f f f f f f, f 108;
#X floatatom 1080 136 8 0 0 2 game_distance_min - - 0;
#X msg 1080 173 8 i \$1;
#X msg 327 75 212 22 1700 554 180 50 43539 820, f 36;
#X obj 179 356 fruit/decode int16 int16 int16 int16 int16 int16 uint16 uint16, f 63;
#X connect 1 0 2 0;
#X connect 3 0 2 0;
#X connect 4 0 10 0;
#X connect 5 0 23 0;
#X connect 6 0 12 0;
#X connect 7 0 13 0;
#X connect 8 0 14 0;
#X connect 9 0 15 0;
#X connect 10 0 3 0;
#X connect 11 0 3 0;
#X connect 12 0 3 0;
#X connect 13 0 3 0;
#X connect 14 0 3 0;
#X connect 15 0 3 0;
#X connect 16 0 64 0;
#X connect 17 0 0 0;
#X connect 18 0 0 0;
#X connect 19 0 18 0;
#X connect 20 0 2 1;
#X connect 21 0 80 0;
#X connect 22 0 21 0;
#X connect 23 0 11 0;
#X connect 24 0 23 0;
#X connect 24 1 23 1;
#X connect 25 0 68 0;
#X connect 25 0 56 0;
#X connect 26 0 29 0;
#X connect 28 0 26 0;
#X connect 29 0 30 0;
#X connect 30 0 31 0;
#X connect 31 0 30 1;
#X connect 31 0 32 0;
#X connect 31 0 38 0;
#X connect 32 0 34 0;
#X connect 32 0 37 0;
#X connect 32 1 33 0;
#X connect 33 0 39 0;
#X connect 33 1 35 0;
#X connect 33 1 36 0;
#X connect 34 0 39 0;
#X connect 36 0 39 0;
#X connect 36 0 40 0;
#X connect 37 0 40 0;
#X connect 39 0 25 0;
#X connect 40 0 29 1;
#X connect 41 0 25 0;
#X connect 42 0 25 0;
#X connect 43 0 44 0;
#X connect 44 0 3 0;
#X connect 45 0 43 0;
#X connect 46 0 2 0;
#X connect 47 0 46 0;
#X connect 48 0 46 0;
#X connect 49 0 46 0;
#X connect 54 0 46 0;
#X connect 56 0 24 0;
#X connect 57 0 29 1;
#X connect 58 0 31 0;
#X connect 59 0 25 0;
#X connect 60 0 59 0;
#X connect 61 0 43 0;
#X connect 63 0 3 0;
#X connect 64 0 81 0;
#X connect 66 0 0 0;
#X connect 67 0 66 0;
#X connect 68 0 0 0;
#X connect 69 0 43 0;
#X connect 71 0 1 0;
#X connect 74 0 73 0;
#X connect 75 0 73 0;
#X connect 76 0 5 0;
#X connect 77 0 4 0;
#X connect 77 1 5 0;
#X connect 77 2 6 0;
#X connect 77 3 7 0;
#X connect 77 4 8 0;
#X connect 77 5 9 0;
#X connect 77 6 43 0;
#X connect 77 7 78 0;
#X connect 78 0 79 0;
#X connect 79 0 3 0;
#X connect 80 0 77 0;
#X connect 81 0 65 0;
#X connect 81 0 22 0;
#X connect 81 0 70 0;
#X restore 440 42 pd config;
#X obj 28 111 fruit/fruit 1 fruit0 1 fw;
#N canvas 135 94 738 562 mp3_test 0;
#X msg 108 229 32;
#X obj 113 170 hsl 170 20 0 30 0 0 empty empty volume -2 -10 0 12 #fcfcfc #000000 #000000 0 1;
#X msg 110 198 31 \$1;
#X text 135 229 status;
#X obj 26 521 outlet;
#X msg 119 361 50;
#X text 114 343 isplaying;
#X obj 21 30 bng 20 250 50 0 \$0-reload-words \$0-reload-words reload-words 0 -10 0 12 #faff00 #000000 #000000;
#X floatatom 113 283 5 0 0 2 duration_offset - - 0;
#X msg 113 308 20 i \$1;
#N canvas 626 24 1045 451 non-buffered 0;
#X obj 53 242 list prepend 33;
#X obj 53 103 t a a, f 6;
#X obj 53 133 list split 1;
#X obj 117 215 list;
#X obj 53 158 t f b;
#X obj 85 184 del 2;
#X msg 225 92 126 255 6 3 0 0 \$1 239;
#X obj 225 64 hradio 20 1 0 17 empty empty empty 0 -10 0 12 #fcfcfc #000000 #000000 0;
#X text 388 90 play track;
#X msg 235 122 1 3;
#X text 408 149 folder track;
#X msg 224 149 126 255 6 15 0 \$1 \$2 239;
#X msg 278 119 6 2;
#X msg 321 120 0 1;
#X text 167 244 putc;
#X msg 52 64 126 255 6 8 0 0 \$1 239;
#X obj 54 37 hradio 20 1 0 17 empty empty empty 0 -10 0 12 #fcfcfc #000000 #000000 0;
#X text 396 38 loop track;
#X msg 276 187 1 3;
#X text 449 214 folder track;
#X msg 265 214 126 255 6 15 0 \$1 \$2 239;
#X msg 319 184 6 2;
#X msg 362 185 0 1;
#X obj 53 404 outlet;
#X text 56 12 LOW LEVEL (putc);
#X msg 667 176 34 \$1 \$2;
#X msg 667 132 1 3;
#X msg 710 129 6 2;
#X text 734 175 folder track;
#X obj 649 61 hradio 20 1 0 17 empty empty empty 0 -10 0 12 #fcfcfc #000000 #000000 0;
#X text 709 88 play track;
#X msg 649 88 30 i \$1;
#X obj 649 224 t a;
#X text 645 34 DIRECT (non buffered wavplayer);
#X connect 0 0 23 0;
#X connect 1 0 2 0;
#X connect 2 0 4 0;
#X connect 2 1 3 1;
#X connect 3 0 2 0;
#X connect 4 0 0 0;
#X connect 4 1 5 0;
#X connect 5 0 3 0;
#X connect 6 0 1 0;
#X connect 7 0 6 0;
#X connect 9 0 11 0;
#X connect 11 0 1 0;
#X connect 12 0 11 0;
#X connect 13 0 11 0;
#X connect 15 0 1 0;
#X connect 16 0 15 0;
#X connect 18 0 20 0;
#X connect 20 0 1 0;
#X connect 21 0 20 0;
#X connect 22 0 20 0;
#X connect 25 0 32 0;
#X connect 26 0 25 0;
#X connect 27 0 25 0;
#X connect 29 0 31 0;
#X connect 31 0 32 0;
#X connect 32 0 23 0;
#X restore 83 112 pd non-buffered;
#N canvas 742 19 729 530 buffered-manual 0;
#X obj 115 268 hradio 20 1 0 17 empty empty empty 0 -10 0 12 #fcfcfc #000000 #000000 0;
#X msg 156 294 101 \, 1 \, 102 \, 2 \, 104;
#X msg 61 367 35 \$1 i \$2;
#X msg 207 407 1;
#X msg 309 408 -100;
#X msg 115 328 1 \$1;
#X msg 206 431 101;
#X msg 198 334 101 \, 8 \, -1000 \, 102 \, 2 \, -800 \, 103;
#X msg 200 365 1 \, 2 \, 3 \, -500 \, 4 \, 5 \, 6 \, -500 \, 7 \, 8 \, 9 \, 10;
#X msg 363 410 105 \, -500 \, 1;
#X obj 61 427 outlet;
#N canvas 71 56 409 363 sentence_to_wordnum 0;
#X obj 28 12 inlet;
#X obj 134 177 text search \$0-words 1;
#X obj 134 201 text get \$0-words 0;
#X msg 156 110 bonjour;
#X obj 156 135 symbol;
#X msg 219 110 minute;
#X msg 276 109 _30;
#X obj 28 49 list split 1, f 20;
#X obj 28 75 t b a;
#X obj 73 76 list;
#X msg 311 109 _1;
#X msg 347 111 _2;
#X obj 60 113 route float;
#X obj 60 312 outlet;
#X connect 0 0 7 0;
#X connect 1 0 2 0;
#X connect 2 0 13 0;
#X connect 3 0 4 0;
#X connect 4 0 1 0;
#X connect 5 0 4 0;
#X connect 6 0 4 0;
#X connect 7 0 8 0;
#X connect 7 1 9 1;
#X connect 8 0 9 0;
#X connect 8 1 12 0;
#X connect 9 0 7 0;
#X connect 10 0 4 0;
#X connect 11 0 4 0;
#X connect 12 0 13 0;
#X connect 12 1 1 0;
#X restore 61 230 pd sentence_to_wordnum;
#X msg 61 255 3 \$1;
#X msg 78 109 debut_partie _1 joueur;
#X msg 260 105 _30 et _1;
#X msg 259 137 _1 -20 _2 _3 _4 _3 _2 _1;
#X msg 263 169 _1 _2 _3 _4 _3 _2 _1;
#X msg 65 83 debut_partie _2 joueur;
#X connect 0 0 5 0;
#X connect 1 0 5 0;
#X connect 2 0 10 0;
#X connect 3 0 5 0;
#X connect 4 0 5 0;
#X connect 5 0 2 0;
#X connect 6 0 5 0;
#X connect 7 0 5 0;
#X connect 8 0 5 0;
#X connect 9 0 5 0;
#X connect 11 0 12 0;
#X connect 12 0 2 0;
#X connect 13 0 11 0;
#X connect 14 0 11 0;
#X connect 15 0 11 0;
#X connect 16 0 11 0;
#X connect 17 0 11 0;
#X restore 27 72 pd buffered-manual;
#X obj 26 463 list prepend 31;
#X text 141 463 speaker;
#N canvas 735 420 450 300 words 0;
#X obj 31 201 text define \$0-words;
#X obj 31 150 pdcontrol;
#X obj 30 38 loadbang;
#X obj 30 63 s \$0-reload-words;
#X obj 31 99 r \$0-reload-words;
#X msg 31 124 dir;
#X msg 31 175 read \$1/pongaremul/words.txt;
#X connect 1 0 6 0;
#X connect 2 0 3 0;
#X connect 4 0 5 0;
#X connect 5 0 1 0;
#X connect 6 0 0 0;
#X restore 47 29 pd words;
#N canvas 71 56 409 363 sentence_to_wordnum 0;
#X obj 28 12 inlet;
#X obj 134 177 text search \$0-words 1;
#X obj 134 201 text get \$0-words 0;
#X msg 156 110 bonjour;
#X obj 156 135 symbol;
#X msg 219 110 minute;
#X msg 276 109 _30;
#X obj 28 49 list split 1, f 20;
#X obj 28 75 t b a;
#X obj 73 76 list;
#X msg 311 109 _1;
#X msg 347 111 _2;
#X obj 60 113 route float;
#X obj 60 312 outlet;
#X connect 0 0 7 0;
#X connect 1 0 2 0;
#X connect 2 0 13 0;
#X connect 3 0 4 0;
#X connect 4 0 1 0;
#X connect 5 0 4 0;
#X connect 6 0 4 0;
#X connect 7 0 8 0;
#X connect 7 1 9 1;
#X connect 8 0 9 0;
#X connect 8 1 12 0;
#X connect 9 0 7 0;
#X connect 10 0 4 0;
#X connect 11 0 4 0;
#X connect 12 0 13 0;
#X connect 12 1 1 0;
#X restore 346 179 pd sentence_to_wordnum;
#X msg 359 90 debut_partie _1 joueur;
#X msg 541 86 _30 et _1;
#X msg 540 118 _1 -20 _2 _3 _4 _3 _2 _1;
#X msg 544 150 _1 _2 _3 _4 _3 _2 _1;
#X msg 346 64 debut_partie _2 joueur;
#X obj 346 204 moses 0, f 10;
#X msg 346 254 37 i \$1;
#X msg 258 462 38;
#X text 256 439 say_alpague;
#X msg 413 229 34 \$1;
#X obj 346 279 t a;
#X obj 346 229 abs;
#X msg 118 410 60;
#X text 115 392 clear;
#X msg 523 282 bonjour;
#X msg 401 458 34 100 -1;
#X msg 404 483 34 100;
#X obj 237 64 / 255;
#X obj 237 89 * 30;
#X obj 521 368 fruit/receive fruit0;
#X obj 521 393 route R;
#X obj 521 418 route volume;
#X connect 0 0 12 0;
#X connect 1 0 2 0;
#X connect 2 0 12 0;
#X connect 5 0 12 0;
#X connect 8 0 9 0;
#X connect 9 0 12 0;
#X connect 10 0 12 0;
#X connect 11 0 12 0;
#X connect 12 0 4 0;
#X connect 15 0 21 0;
#X connect 16 0 15 0;
#X connect 17 0 15 0;
#X connect 18 0 15 0;
#X connect 19 0 15 0;
#X connect 20 0 15 0;
#X connect 21 0 27 0;
#X connect 21 1 25 0;
#X connect 22 0 26 0;
#X connect 23 0 4 0;
#X connect 25 0 26 0;
#X connect 26 0 4 0;
#X connect 27 0 22 0;
#X connect 28 0 12 0;
#X connect 30 0 15 0;
#X connect 31 0 4 0;
#X connect 32 0 4 0;
#X connect 33 0 34 0;
#X connect 34 0 1 0;
#X connect 35 0 36 0;
#X connect 36 0 37 0;
#X connect 37 0 33 0;
#X restore 34 200 pd mp3_test;
#N canvas 896 85 757 646 audio_test 0;
#X obj 102 477 outlet;
#X obj 111 210 b;
#X text 363 267 buzz;
#X text 35 252 cpu;
#X obj 522 111 fruit/receive fruit0;
#X obj 522 136 route cpu;
#X obj 522 161 print;
#X obj 280 102 tgl 20 0 empty empty seq\ play 0 -10 0 12 #fcfcfc #000000 #000000 0 1;
#X obj 288 181 hsl 170 20 100 400 0 0 empty empty seq\ tempo\ ms -2 -10 0 12 #fcfcfc #000000 #000000 0 1;
#X text 267 29 new song;
#X msg 36 276 32 1;
#X msg 268 48 11;
#X obj 111 235 del 250;
#X text 392 316 bounce;
#X listbox 496 235 33 0 0 0 - - - 0;
#X obj 368 319 tgl 20 0 empty empty empty 0 -10 0 12 #fcfcfc #000000 #000000 0 1;
#X obj 509 186 list;
#X obj 162 411 list prepend 33;
#X msg 285 208 7 i \$1;
#X msg 280 130 6 i \$1;
#X msg 302 271 0 i 500;
#X msg 315 315 1 i \$1;
#X text 399 360 tut;
#X msg 304 359 2 i 1000 40;
#X obj 321 412 hsl 170 20 0 255 0 0 empty empty seq_vol -2 -10 0 12 #fcfcfc #000000 #000000 0 1;
#X msg 318 468 12 i \$1;
#X msg 394 48 11 \, 6 i 1 1;
#X floatatom 318 441 5 0 0 0 - - - 0;
#X text 393 25 new song \, play once;
#X obj 67 20 hsl 170 20 0 255 0 0 empty empty empty -2 -10 0 12 #fcfcfc #000000 #000000 0 1;
#X obj 55 119 fruit/send2 fruit0;
#X floatatom 214 83 5 0 0 0 - - - 0;
#X obj 63 47 i;
#X listbox 85 172 20 0 0 0 - - - 0;
#X obj 85 147 list;
#X msg 63 74 Rset volume \$1;
#X listbox 387 566 20 0 0 0 - - - 0;
#X obj 387 518 r Fraise-fruit0-C-rcv;
#X obj 387 542 list;
#X msg 642 427 Rget state;
#X msg 640 352 Rset state 0;
#X connect 1 0 12 0;
#X connect 4 0 5 0;
#X connect 5 0 6 0;
#X connect 5 0 16 0;
#X connect 7 0 19 0;
#X connect 8 0 18 0;
#X connect 10 0 0 0;
#X connect 11 0 17 0;
#X connect 15 0 21 0;
#X connect 16 0 14 0;
#X connect 17 0 0 0;
#X connect 18 0 17 0;
#X connect 19 0 17 0;
#X connect 20 0 1 0;
#X connect 20 0 17 0;
#X connect 21 0 1 0;
#X connect 21 0 17 0;
#X connect 23 0 17 0;
#X connect 24 0 27 0;
#X connect 25 0 17 0;
#X connect 26 0 17 0;
#X connect 27 0 25 0;
#X connect 29 0 32 0;
#X connect 32 0 35 0;
#X connect 34 0 33 0;
#X connect 35 0 30 1;
#X connect 35 0 34 0;
#X connect 37 0 38 0;
#X connect 38 0 36 0;
#X connect 39 0 30 1;
#X connect 40 0 30 1;
#X restore 119 199 pd audio_test;
#N canvas 229 33 878 696 wavs_duration 0;
#X obj 166 85 table \$0-wavdur 25600;
#X obj 226 234 s \$0-wavdur;
#X msg 226 208 read wavs_dur_table.txt;
#X obj 663 385 tabread \$0-wavdur;
#X obj 663 280 unpack f f;
#X msg 663 232 1 \$1;
#X floatatom 663 189 5 0 0 0 - - - 0;
#X obj 663 305 - 1;
#X obj 663 330 * 256;
#X obj 663 355 +;
#X floatatom 663 410 5 0 0 0 - - - 0;
#X obj 146 260 i;
#X obj 179 260 + 1;
#X msg 146 206 1;
#X msg 181 207 0;
#X obj 146 315 moses 25600;
#X msg 220 341 0;
#X obj 146 288 * 10;
#X obj 146 377 array get \$0-wavdur 0 10;
#X listbox 276 493 41 0 0 0 - - - 0;
#X obj 146 150 bng 20 250 50 0 empty empty empty 0 -10 0 12 #fcfcfc #000000 #000000;
#X obj 146 235 metro 2;
#X obj 146 540 fruit/send2 fruit0;
#X obj 495 291 unpack f f;
#X msg 495 243 1 \$1;
#X floatatom 495 200 5 0 0 0 - - - 0;
#X obj 495 316 - 1;
#X obj 495 341 * 256;
#X obj 495 366 +;
#X floatatom 524 402 5 0 0 0 - - - 0;
#X msg 501 444 13 i \$1;
#X msg 278 269 25599 10;
#X msg 739 343 25599;
#X msg 72 476 10;
#X text 69 459 to_ram;
#X obj 146 440 list prepend 0;
#X obj 146 346 t f f;
#X msg 575 401 25599;
#X obj 146 472 list prepend 11 i;
#X msg 336 446 12;
#X text 336 429 save_to_flash;
#X obj 146 181 t b b b;
#X obj 495 173 bng 20 250 50 0 empty empty empty 0 -10 0 12 #fcfcfc #000000 #000000;
#X msg 340 600 50;
#X msg 272 619 32;
#X obj 146 513 list prepend 30 2;
#X connect 2 0 1 0;
#X connect 3 0 10 0;
#X connect 4 0 7 0;
#X connect 4 1 9 1;
#X connect 5 0 4 0;
#X connect 6 0 5 0;
#X connect 7 0 8 0;
#X connect 8 0 9 0;
#X connect 9 0 3 0;
#X connect 11 0 12 0;
#X connect 11 0 17 0;
#X connect 12 0 11 1;
#X connect 13 0 21 0;
#X connect 14 0 11 1;
#X connect 15 0 36 0;
#X connect 15 1 16 0;
#X connect 16 0 21 0;
#X connect 17 0 15 0;
#X connect 18 0 35 0;
#X connect 20 0 41 0;
#X connect 21 0 11 0;
#X connect 23 0 26 0;
#X connect 23 1 28 1;
#X connect 24 0 23 0;
#X connect 25 0 24 0;
#X connect 26 0 27 0;
#X connect 27 0 28 0;
#X connect 28 0 29 0;
#X connect 28 0 30 0;
#X connect 30 0 45 0;
#X connect 31 0 1 0;
#X connect 32 0 3 0;
#X connect 33 0 45 0;
#X connect 35 0 19 0;
#X connect 35 0 38 0;
#X connect 36 0 18 0;
#X connect 36 1 35 1;
#X connect 37 0 30 0;
#X connect 38 0 45 0;
#X connect 39 0 45 0;
#X connect 41 0 13 0;
#X connect 41 1 14 0;
#X connect 41 2 2 0;
#X connect 42 0 25 0;
#X connect 43 0 45 0;
#X connect 44 0 45 0;
#X connect 45 0 22 0;
#X restore 440 69 pd wavs_duration;
#N canvas 210 697 1473 979 lidar_analys 0;
#X obj 673 71 print from_fruit0;
#X obj 293 20 fruit/receive fruit0;
#X msg 325 271 4 \$1;
#X msg 321 230 0;
#X msg 360 229 1;
#X msg 398 229 2;
#X text 314 211 reset;
#X text 358 208 stop;
#X text 398 209 start;
#X text 342 189 LIDAR;
#X obj 293 117 text set lidar_text 1e+06;
#X obj 750 100 bng 20 250 50 0 empty empty empty 0 -10 0 12 #fcfcfc #000000 #000000;
#X msg 535 283 5;
#N canvas 1021 69 621 323 store_distance 0;
#X obj 25 24 inlet;
#X obj 25 165 array set lidar_distance;
#X listbox 223 173 33 0 0 0 - - - 0;
#X obj 148 72 fruit/decode uint16 uint16 uint16 uint16 uint16 uint16 uint16 uint16 uint16 uint16;
#X obj 25 49 fruit/decode uint8;
#X obj 25 74 * 10;
#X obj 25 99 t b f;
#X obj 25 124 list, f 16;
#X connect 0 0 4 0;
#X connect 3 0 7 1;
#X connect 4 0 5 0;
#X connect 4 1 3 0;
#X connect 5 0 6 0;
#X connect 6 0 7 0;
#X connect 6 1 1 1;
#X connect 7 0 1 0;
#X restore 322 92 pd store_distance;
#X obj 547 215 tgl 20 0 empty empty empty 0 -10 0 12 #fcfcfc #000000 #000000 0 1;
#X obj 535 254 metro 200;
#X msg 622 217 100;
#X msg 587 216 200;
#X obj 436 46 route d;
#X msg 451 229 3;
#X text 451 209 snap;
#X floatatom 569 301 5 0 0 0 - - - 0;
#X obj 550 327 f;
#X obj 550 352 tabread lidar_distance;
#X floatatom 550 377 5 0 0 0 - - - 0;
#X listbox 241 141 14 0 0 0 - - - 36;
#X obj 395 293 - 500;
#X obj 395 318 / 2000;
#X floatatom 395 343 5 0 0 0 - - - 24;
#X obj 396 264 unpack f f;
#N canvas 1031 120 621 323 store_background 0;
#X obj 25 24 inlet;
#X listbox 223 173 33 0 0 0 - - - 0;
#X obj 148 72 fruit/decode uint16 uint16 uint16 uint16 uint16 uint16 uint16 uint16 uint16 uint16;
#X obj 25 49 fruit/decode uint8;
#X obj 25 74 * 10;
#X obj 25 99 t b f;
#X obj 25 124 list, f 16;
#X obj 25 165 array set lidar_background;
#X connect 0 0 3 0;
#X connect 2 0 6 1;
#X connect 3 0 4 0;
#X connect 3 1 2 0;
#X connect 4 0 5 0;
#X connect 5 0 6 0;
#X connect 5 1 7 1;
#X connect 6 0 7 0;
#X restore 467 95 pd store_background;
#X msg 656 268 6;
#X text 560 282 get dist;
#X text 666 230 get bg;
#X msg 1045 89 360;
#X obj 1045 114 t f b;
#X obj 1045 139 until;
#X obj 1045 164 i;
#X obj 1082 163 + 1;
#X msg 1088 139 0;
#X obj 1045 189 t f f;
#X obj 1045 216 tabread lidar_distance;
#X obj 1045 241 moses;
#X obj 1091 241 tabread lidar_background;
#X msg 1077 268 0;
#X obj 1045 323 clip 0 1;
#X obj 1045 378 tabwrite lidar_diff;
#X obj 1286 158 array sum lidar_diff;
#X obj 1045 298 maxlib/scale 2500 500 0 1;
#X floatatom 1286 186 5 0 0 0 - - - 36;
#X obj 1286 123 bng 20 250 50 0 empty empty empty 0 -10 0 12 #fcfcfc #000000 #000000;
#X obj 1045 351 f;
#X obj 678 102 del 3000;
#X obj 676 152 del 200;
#X obj 677 125 bng 20 250 50 0 empty empty empty 0 -10 0 12 #fcfcfc #000000 #000000;
#X msg 227 368 103 i \$1;
#X floatatom 226 345 5 0 0 2 min_width - - 0;
#X floatatom 311 371 5 0 0 2 smooth - - 0;
#X msg 311 393 104 i \$1;
#X obj 227 399 t a;
#N canvas 1021 69 621 323 store_distance_masked 0;
#X obj 25 24 inlet;
#X obj 148 72 fruit/decode uint16 uint16 uint16 uint16 uint16 uint16 uint16 uint16 uint16 uint16;
#X obj 25 49 fruit/decode uint8;
#X obj 25 74 * 10;
#X obj 25 99 t b f;
#X obj 25 124 list, f 16;
#X obj 25 165 array set lidar_distance_masked;
#X connect 0 0 2 0;
#X connect 1 0 5 1;
#X connect 2 0 3 0;
#X connect 2 1 1 0;
#X connect 3 0 4 0;
#X connect 4 0 5 0;
#X connect 4 1 6 1;
#X connect 5 0 6 0;
#X restore 488 74 pd store_distance_masked;
#X obj 293 45 route 10 20 21 22;
#X msg 730 307 7;
#X text 734 289 get masked;
#X obj 794 186 tgl 20 0 empty empty empty 0 -10 0 12 #fcfcfc #000000 #000000 0 1;
#X obj 782 225 metro 200;
#X msg 869 188 100;
#X msg 834 187 200;
#X msg 782 369 4 4;
#X text 779 348 snap button;
#N canvas -153 485 1578 620 tables 0;
#N canvas 0 50 450 250 (subpatch) 0;
#X array lidar_distance 360 float 2;
#X coords 0 12000 360 0 392 299 1 0 0;
#X restore 17 33 graph;
#N canvas 0 50 450 250 (subpatch) 0;
#X array lidar_background 360 float 2;
#X coords 0 12000 360 0 393 299 1 0 0;
#X restore 418 33 graph;
#N canvas 0 50 450 250 (subpatch) 0;
#X array lidar_diff 360 float 2;
#X coords 0 1.2 360 0 340 297 1 0 0;
#X restore 817 33 graph;
#N canvas 0 50 450 250 (subpatch) 0;
#X array lidar_distance_masked 360 float 2;
#X coords 0 12000 360 0 392 298 1 0 0;
#X restore 1161 33 graph;
#X restore 35 411 pd tables;
#X floatatom 1217 380 5 0 0 0 - - - 0;
#X obj 1217 355 tabread lidar_distance_masked;
#X floatatom 1217 329 5 0 0 0 - - - 0;
#X msg 1107 740 pos \$1 \$2;
#X msg 190 517 size \$1;
#X floatatom 190 493 5 0 0 0 - - - 0;
#X listbox 827 583 20 0 0 0 - - - 0;
#X obj 874 498 fruit/decode uint16 uint16 uint16 uint16 uint16 uint16 uint16, f 62;
#X obj 846 645 bng 20 250 50 0 empty empty empty 0 -10 0 12 #fcfcfc #000000 #000000;
#X obj 892 644 list prepend players;
#X obj 892 669 list trim;
#X obj 830 771 t b b;
#X obj 830 796 timer;
#X floatatom 830 870 5 0 0 0 - - - 0;
#X obj 830 833 zexy/mavg 50;
#X msg 1025 584 1 \$1;
#X floatatom 1024 548 5 0 0 0 - - - 0;
#X obj 892 695 t b a;
#X obj 892 720 t a;
#X obj 501 42 route 100 101;
#X obj 1107 612 fruit/decode int16 int16;
#X obj 1107 637 unpack f f;
#X obj 1107 662 / 32;
#X obj 1174 662 / 32;
#X obj 1107 712 pack f f, f 10;
#X listbox 939 752 20 0 0 0 - - - 0;
#X obj 836 455 route bang;
#X obj 982 817 f;
#X obj 982 842 sel 0 1;
#X obj 964 919 line~;
#X obj 964 944 *~;
#X obj 1014 920 phasor~ 120;
#X obj 1131 959 dac~;
#X msg 964 894 1 \, 0 400;
#X obj 1099 861 line~;
#X obj 1099 886 *~;
#X msg 1099 836 1 \, 0 400;
#X obj 1149 862 osc~ 1500;
#X obj 1134 934 *~ 0.5;
#X obj 1107 687 +;
#X obj 1135 687 t b f;
#X floatatom 1154 552 5 0 0 2 pan_offset - - 0;
#X msg 1080 555 153 i \$1;
#X floatatom 1047 704 5 0 0 0 - - - 0;
#X floatatom 1221 724 5 0 0 0 - - - 0;
#X obj 1216 561 * 1;
#X obj 1213 585 + 180;
#X obj 190 543 s pongarGui;
#X msg 34 478 \; pdluax reload;
#X obj 439 895 outlet;
#X obj 902 541 s Players;
#X obj 609 42 route touched l;
#X obj 826 420 spigot;
#X floatatom 532 459 5 0 0 0 - - - 0;
#X obj 532 434 tabread lidar_distance_masked;
#X floatatom 532 409 5 0 0 0 - - - 0;
#N canvas 202 108 549 518 record 0;
#X obj 35 25 inlet bang;
#X obj 35 95 array get lidar_distance_masked 0 360;
#X obj 35 55 spigot, f 12;
#X obj 60 226 text define \$0-masked_record;
#X obj 35 124 text set \$0-masked_record 1e+06;
#X obj 183 16 tgl 20 0 empty empty empty 0 -10 0 12 #fcfcfc #000000 #000000 0 1;
#X msg 93 189 clear;
#X obj 327 96 text size \$0-masked_record;
#X floatatom 327 121 5 0 0 0 - - - 0;
#X obj 327 69 bng 20 250 50 0 empty empty empty 0 -10 0 12 #fcfcfc #000000 #000000;
#X msg 159 190 write masked_record.txt;
#X msg 339 189 read masked_record.txt;
#X obj 84 289 metro 100;
#X obj 84 314 i;
#X obj 122 315 + 1;
#X obj 122 340 mod 50;
#X obj 86 255 tgl 20 0 empty empty empty 0 -10 0 12 #fcfcfc #000000 #000000 0 1;
#X floatatom 112 380 5 0 0 0 - - - 0;
#X obj 83 444 array set lidar_distance_masked 0;
#X listbox 127 488 20 0 0 0 - - - 0;
#X obj 83 415 text get \$0-masked_record 0 360;
#X connect 0 0 2 0;
#X connect 1 0 4 0;
#X connect 2 0 1 0;
#X connect 5 0 2 1;
#X connect 6 0 3 0;
#X connect 7 0 8 0;
#X connect 8 0 15 1;
#X connect 9 0 7 0;
#X connect 10 0 3 0;
#X connect 11 0 3 0;
#X connect 12 0 13 0;
#X connect 13 0 14 0;
#X connect 13 0 17 0;
#X connect 13 0 20 0;
#X connect 14 0 15 0;
#X connect 15 0 13 1;
#X connect 16 0 12 0;
#X connect 20 0 18 0;
#X restore 861 304 pd record;
#X obj 770 252 t b b;
#X obj 821 77 tgl 20 0 empty empty empty 0 -10 0 12 #fcfcfc #000000 #000000 0 1;
#X obj 809 116 metro 200;
#X msg 896 79 100;
#X msg 861 78 200;
#X msg 214 260 5;
#X text 205 238 get_state;
#X obj 811 917 s pongarGui--;
#X connect 1 0 61 0;
#X connect 2 0 120 0;
#X connect 3 0 2 0;
#X connect 4 0 2 0;
#X connect 5 0 2 0;
#X connect 11 0 52 0;
#X connect 12 0 120 0;
#X connect 14 0 15 0;
#X connect 15 0 12 0;
#X connect 15 0 22 0;
#X connect 15 0 34 0;
#X connect 16 0 15 1;
#X connect 17 0 15 1;
#X connect 18 0 25 0;
#X connect 18 1 90 0;
#X connect 19 0 2 0;
#X connect 21 0 22 1;
#X connect 22 0 23 0;
#X connect 23 0 24 0;
#X connect 25 0 29 0;
#X connect 26 0 27 0;
#X connect 27 0 28 0;
#X connect 29 0 26 0;
#X connect 31 0 120 0;
#X connect 34 0 35 0;
#X connect 34 0 50 0;
#X connect 35 0 36 0;
#X connect 35 1 39 0;
#X connect 36 0 37 0;
#X connect 37 0 38 0;
#X connect 37 0 40 0;
#X connect 38 0 37 1;
#X connect 39 0 37 1;
#X connect 40 0 41 0;
#X connect 40 1 43 0;
#X connect 40 1 46 1;
#X connect 41 0 42 0;
#X connect 42 0 48 0;
#X connect 42 1 44 0;
#X connect 43 0 42 1;
#X connect 44 0 45 0;
#X connect 45 0 51 0;
#X connect 47 0 49 0;
#X connect 48 0 45 0;
#X connect 50 0 47 0;
#X connect 51 0 46 0;
#X connect 52 0 54 0;
#X connect 53 0 31 0;
#X connect 54 0 53 0;
#X connect 54 0 19 0;
#X connect 55 0 59 0;
#X connect 56 0 55 0;
#X connect 57 0 58 0;
#X connect 58 0 59 0;
#X connect 59 0 120 0;
#X connect 61 0 10 0;
#X connect 61 1 13 0;
#X connect 61 2 30 0;
#X connect 61 3 60 0;
#X connect 61 4 18 0;
#X connect 62 0 120 0;
#X connect 64 0 65 0;
#X connect 65 0 128 0;
#X connect 65 0 135 0;
#X connect 66 0 65 1;
#X connect 67 0 65 1;
#X connect 68 0 120 0;
#X connect 72 0 71 0;
#X connect 73 0 72 0;
#X connect 74 0 135 0;
#X connect 75 0 118 0;
#X connect 76 0 75 0;
#X connect 77 0 79 0;
#X connect 78 0 80 0;
#X connect 78 0 77 0;
#X connect 78 0 121 0;
#X connect 80 0 81 0;
#X connect 81 0 88 0;
#X connect 82 0 83 0;
#X connect 82 1 83 1;
#X connect 83 0 85 0;
#X connect 85 0 84 0;
#X connect 86 0 80 0;
#X connect 87 0 86 0;
#X connect 88 0 89 0;
#X connect 88 1 89 0;
#X connect 89 0 135 0;
#X connect 90 0 123 0;
#X connect 90 1 91 0;
#X connect 90 2 122 0;
#X connect 91 0 92 0;
#X connect 92 0 93 0;
#X connect 92 1 94 0;
#X connect 93 0 110 0;
#X connect 93 0 114 0;
#X connect 94 0 95 1;
#X connect 94 0 115 0;
#X connect 95 0 74 0;
#X connect 97 0 80 0;
#X connect 97 1 78 0;
#X connect 98 0 99 0;
#X connect 99 0 104 0;
#X connect 99 1 107 0;
#X connect 100 0 101 0;
#X connect 101 0 109 0;
#X connect 102 0 101 1;
#X connect 104 0 100 0;
#X connect 105 0 106 0;
#X connect 106 0 109 0;
#X connect 107 0 105 0;
#X connect 108 0 106 1;
#X connect 109 0 103 0;
#X connect 109 0 103 1;
#X connect 110 0 95 0;
#X connect 111 0 110 0;
#X connect 111 1 110 1;
#X connect 112 0 113 0;
#X connect 112 0 116 0;
#X connect 113 0 120 0;
#X connect 116 0 117 0;
#X connect 117 0 111 0;
#X connect 122 0 98 0;
#X connect 122 1 0 0;
#X connect 122 2 0 0;
#X connect 123 0 97 0;
#X connect 123 0 82 0;
#X connect 125 0 124 0;
#X connect 126 0 125 0;
#X connect 128 0 62 0;
#X connect 128 1 127 0;
#X connect 129 0 130 0;
#X connect 130 0 31 0;
#X connect 131 0 130 1;
#X connect 132 0 130 1;
#X connect 133 0 2 0;
#X restore 224 200 pd lidar_analys;
#X obj 466 227 t a;
#X obj 772 0 pongarGui;
#X msg 452 181 153;
#X text 449 161 prepare;
#X msg 517 326 151;
#X text 514 306 start;
#X msg 452 333 4 4;
#X text 453 316 snap;
#X msg 519 180 150;
#X text 516 160 stop;
#X obj 68 393 fruit/receive fruit0;
#X obj 68 421 route pixel_update;
#X obj 68 446 t b b;
#X obj 68 471 timer;
#X floatatom 68 496 5 0 0 0 - - - 0;
#X obj 571 14 table pixelsRGB 800;
#N canvas 0 0 471 401 obj/players_analys 0;
#X obj 26 34 inlet;
#X obj 26 59 route 100 110 111, f 33;
#X msg 26 169 objreset;
#X msg 102 170 fobject \$1 \$2 \$3 \$4;
#X msg 178 108 fplayer \$1 \$2 \$3 \$4;
#X obj 26 221 s \$0-gui;
#X listbox 42 319 29 0 0 0 - - - 0;
#X listbox 227 247 22 0 0 0 - - - 0;
#X obj 102 142 fruit/decode uint8 uint16 uint16 uint16;
#X obj 178 84 fruit/decode uint8 uint16 uint16 uint16;
#X obj 122 289 print;
#X connect 0 0 1 0;
#X connect 1 0 2 0;
#X connect 1 1 8 0;
#X connect 1 2 9 0;
#X connect 2 0 5 0;
#X connect 3 0 5 0;
#X connect 4 0 5 0;
#X connect 8 0 6 0;
#X connect 8 0 3 0;
#X connect 9 0 4 0;
#X connect 9 0 7 0;
#X restore 207 421 pd obj/players_analys;
#X obj 630 283 metro 100;
#X obj 623 247 tgl 20 0 empty empty empty 0 -10 0 12 #fcfcfc #000000 #000000 0 1;
#X msg 648 391 154 \, 155;
#X msg 708 282 20;
#X msg 703 247 1000;
#X msg 630 313 155;
#X text 665 318 get players pos;
#X msg 560 181 149;
#X text 559 159 standby;
#N canvas 163 355 664 258 pio_sm_dma-cpuload 0;
#X obj 198 203 outlet;
#X msg 34 54 10 100;
#X text 36 31 ws2812;
#X msg 101 54 4 5;
#X text 102 34 lidar;
#X msg 164 56 204;
#X text 164 34 dmx;
#X msg 216 55 100;
#X text 219 36 fraise;
#X text 284 34 mp3;
#X msg 283 56 30 2 32;
#X msg 432 57 11;
#X msg 525 57 12;
#X text 417 33 cpu_loads;
#X text 510 33 cpu_loads_reset;
#X connect 1 0 0 0;
#X connect 3 0 0 0;
#X connect 5 0 0 0;
#X connect 7 0 0 0;
#X connect 10 0 0 0;
#X connect 11 0 0 0;
#X connect 12 0 0 0;
#X restore 149 224 pd pio_sm_dma-cpuload;
#N canvas 147 51 472 300 test_scorelog 0;
#X obj 82 254 outlet;
#X msg 46 171 40;
#X text 34 118 get_count;
#X text 136 121 get_score;
#X floatatom 141 148 9 0 0 0 - - - 0;
#X msg 141 172 41 int32 \$1;
#X floatatom 264 148 9 0 0 0 - - - 0;
#X text 277 124 write_new_score;
#X msg 264 172 42 int16 \$1;
#X msg 259 66 12000;
#X text 260 46 2mn;
#X msg 320 67 12002;
#X msg 199 62 11999;
#X obj 75 25 hradio 20 1 0 8 empty empty empty 0 -10 0 12 #fcfcfc #000000 #000000 0;
#X msg 376 69 12008;
#X obj 170 273 fruit/send2 fruit0;
#X msg 293 247 CLEAR_LOG;
#X connect 1 0 0 0;
#X connect 4 0 5 0;
#X connect 5 0 0 0;
#X connect 6 0 8 0;
#X connect 8 0 0 0;
#X connect 9 0 6 0;
#X connect 11 0 6 0;
#X connect 12 0 6 0;
#X connect 13 0 4 0;
#X connect 14 0 6 0;
#X connect 16 0 15 1;
#X restore 299 299 pd test_scorelog;
#X obj 276 148 print from_wifi;
#X msg 551 94 EHello;
#X obj 262 103 fruit/receive wifiFruit;
#X obj 442 121 fruit/send2 wifiFruit;
#X msg 559 67 1 \$1;
#X obj 562 43 hsl 170 20 2 80 0 0 empty empty empty -2 -10 0 12 #fcfcfc #000000 #000000 0 1;
#X msg 611 91 S;
#X msg 619 67 111;
#N canvas 274 19 715 313 wifiCtl 1;
#X msg 144 168 EHello;
#X obj 35 195 fruit/send2 wifiFruit;
#X msg 203 167 S;
#X msg 243 168 L\$1;
#X obj 243 136 tgl 20 0 empty empty empty 0 -10 0 12 #fcfcfc #000000 #000000 0 1;
#X obj 283 138 tgl 20 0 empty empty empty 0 -10 0 12 #fcfcfc #000000 #000000 0 1;
#X msg 283 170 l\$1;
#X msg 317 125 e;
#X text 326 101 pages;
#X text 343 124 empty str;
#X msg 328 154 n;
#X text 355 155 normal;
#X msg 347 177 z;
#X text 372 175 zipped empty;
#X obj 317 250 t a;
#N canvas 411 39 1310 697 flash_html 0;
#X obj 102 83 fruit/receive wifiFruit;
#X obj 345 111 fruit/send2 wifiFruit;
#X msg 148 165 115 32 116 104 101 32 100 101 118 105 99 101 32 98 108;
#X obj 102 216 fudiparse;
#X listbox 102 273 62 0 0 0 - - - 0;
#X obj 102 245 list;
#X msg 466 85 100 l 100;
#X text 350 57 read;
#X text 467 67 set_size;
#X obj 102 108 route 100;
#X msg 345 81 110 i 0 c 50;
#X obj 698 367 file handle;
#X listbox 867 539 47 0 0 0 - - - 0;
#X obj 803 273 file size;
#X floatatom 847 330 5 0 0 0 - - - 0;
#X obj 851 585 bng 20 250 50 0 empty empty empty 0 -10 0 12 #fcfcfc #000000 #000000;
#X obj 698 472 list length;
#X floatatom 639 498 5 0 0 0 - - - 0;
#X msg 739 309 seek 0;
#X obj 698 505 +;
#X obj 734 506 f;
#X msg 783 472 0;
#X floatatom 622 553 5 0 0 0 - - - 0;
#X obj 698 530 moses, f 16;
#X obj 666 244 t a a, f 20;
#X obj 799 562 bng 20 250 50 0 empty empty empty 0 -10 0 12 #fcfcfc #000000 #000000;
#X msg 666 272 close \, open \$1 r;
#X obj 666 297 t b a;
#X msg 634 376 20;
#X obj 698 556 b;
#X obj 807 505 - 1;
#X obj 880 496 list prepend;
#X obj 961 418 list length;
#X obj 698 392 t a a a, f 38;
#X obj 961 443 pack f f;
#X text 1123 475 set_size;
#X msg 1122 493 100 l \$1;
#X obj 918 642 fruit/send2 wifiFruit;
#X msg 961 469 101 i \$2 c \$1;
#X msg 762 655 102;
#X text 768 637 save;
#X obj 666 153 del 200;
#X listbox 774 213 72 0 0 0 - - - 0;
#X obj 901 187 list;
#X obj 804 183 ggee/shell;
#X obj 666 178 symbol, f 8;
#X obj 666 11 inlet;
#X obj 630 674 outlet size;
#X obj 630 619 pack f f;
#X msg 630 644 \$1 / \$2;
#X msg 557 84 111;
#X text 555 63 get size;
#X obj 762 609 spigot 1;
#X obj 829 563 tgl 20 0 empty empty empty 0 -10 0 12 #fcfcfc #000000 #000000 0 1;
#X obj 1045 17 inlet dontsave;
#X obj 1045 44 == 0;
#X msg 1062 615 f;
#X text 1087 612 flash html;
#X obj 749 579 t b b;
#X msg 804 156 gzip --best -c \$1 > \$2;
#X obj 666 128 t b a, f 14;
#X msg 721 155 symbol \$2;
#X listbox 617 216 20 0 0 0 - - - 0;
#X obj 666 102 list append wifiHttpsFw/flash.html.gz;
#X msg 773 38 symbol wifiHttpsFw/flash-hello.html;
#X msg 666 70 symbol wifiHttpsFw/flash.html;
#X obj 773 12 inlet;
#X obj 634 353 del 3;
#X connect 0 0 9 0;
#X connect 2 0 3 0;
#X connect 3 0 5 0;
#X connect 5 0 4 0;
#X connect 6 0 1 0;
#X connect 9 0 3 0;
#X connect 10 0 1 0;
#X connect 11 0 33 0;
#X connect 12 0 15 0;
#X connect 13 0 14 0;
#X connect 13 0 21 0;
#X connect 13 0 30 0;
#X connect 13 0 36 0;
#X connect 13 0 48 1;
#X connect 16 0 17 0;
#X connect 16 0 19 0;
#X connect 18 0 11 0;
#X connect 19 0 20 0;
#X connect 19 0 22 0;
#X connect 19 0 23 0;
#X connect 19 0 48 0;
#X connect 20 0 19 1;
#X connect 20 0 34 1;
#X connect 21 0 20 0;
#X connect 23 0 29 0;
#X connect 23 1 25 0;
#X connect 23 1 58 0;
#X connect 24 0 26 0;
#X connect 24 1 13 0;
#X connect 26 0 27 0;
#X connect 27 0 67 0;
#X connect 27 1 11 0;
#X connect 28 0 11 0;
#X connect 29 0 67 0;
#X connect 30 0 23 1;
#X connect 31 0 12 0;
#X connect 31 0 37 0;
#X connect 32 0 34 0;
#X connect 33 0 16 0;
#X connect 33 1 31 0;
#X connect 33 2 32 0;
#X connect 34 0 38 0;
#X connect 36 0 37 0;
#X connect 38 0 31 1;
#X connect 39 0 37 0;
#X connect 41 0 45 0;
#X connect 43 0 42 0;
#X connect 45 0 24 0;
#X connect 45 0 62 0;
#X connect 46 0 65 0;
#X connect 48 0 49 0;
#X connect 49 0 47 0;
#X connect 50 0 1 0;
#X connect 52 0 39 0;
#X connect 53 0 52 1;
#X connect 54 0 55 0;
#X connect 55 0 53 0;
#X connect 56 0 37 1;
#X connect 58 0 56 0;
#X connect 58 1 52 0;
#X connect 59 0 43 0;
#X connect 59 0 44 0;
#X connect 60 0 41 0;
#X connect 60 1 59 0;
#X connect 60 1 61 0;
#X connect 61 0 45 1;
#X connect 63 0 60 0;
#X connect 64 0 63 0;
#X connect 65 0 63 0;
#X connect 66 0 64 0;
#X connect 67 0 28 0;
#X restore 35 69 pd flash_html;
#X msg 355 204 f;
#X text 380 201 flash html;
#X obj 35 41 bng 20 250 50 0 empty empty full 0 -10 0 12 #ff0400 #000000 #000000;
#X listbox 35 97 20 0 0 0 - - - 0;
#X obj 123 44 tgl 20 0 empty empty don't\ save 0 -10 0 12 #fcfcfc #000000 #000000 0 1;
#X obj 79 41 bng 20 250 50 0 empty empty test 0 -10 0 12 #ff8300 #000000 #000000;
#X obj 491 120 fruit/receive wifiFruit;
#X obj 491 145 route volume;
#X obj 494 170 hsl 170 20 0 255 0 0 empty empty empty -2 -10 0 12 #fcfcfc #000000 #000000 0 1;
#X floatatom 491 195 5 0 0 0 - - - 0;
#X listbox 24 289 20 0 0 0 - - - 0;
#X obj 24 260 r Fraise-fruit0-rcv;
#N canvas 891 184 804 712 test_tcp 0;
#X obj 25 109 fruit/send2 wifiFruit;
#X msg 213 62 T;
#X msg 253 63 t, f 2;
#X obj 306 192 tgl 20 0 empty empty empty 0 -10 0 12 #fcfcfc #000000 #000000 0 1;
#X msg 329 104 disconnect \, connect 192.168.1.116 4242;
#X msg 333 135 disconnect;
#X obj 474 390 print from_tcp;
#X obj 306 167 netsend -b;
#X msg 169 76 I\$1;
#X obj 169 41 tgl 20 0 empty empty empty 0 -10 0 12 #fcfcfc #000000 #000000 0 1;
#X obj 374 333 fudiparse;
#X obj 373 195 sel 10;
#X obj 419 299 t a;
#X obj 375 301 list;
#X obj 406 265 list prepend;
#X text 454 301 get line;
#X obj 373 223 t a b b;
#X obj 373 363 route sEcho;
#X obj 373 391 bng 20 250 50 0 empty empty empty 0 -10 0 12 #fcfcfc #000000 #000000;
#X listbox 424 443 24 0 0 0 - - - 0;
#X obj 424 413 list;
#X obj 424 467 bng 20 250 50 0 empty empty empty 0 -10 0 12 #fcfcfc #000000 #000000;
#X msg 306 25 80EHello;
#X obj 306 50 fudiformat -u;
#X obj 306 78 list append 10;
#X obj 448 25 r Fraise-to-pied-1;
#X obj 525 247 s Fraise-from-pied-1;
#X obj 673 438 r Fr2;
#X obj 643 102 tgl 15 0 empty empty empty 17 7 0 10 #fcfcfc #000000 #000000 0 1;
#X obj 673 489 route actif;
#X obj 673 463 route 1;
#X obj 643 122 == 0;
#X obj 525 212 spigot 1;
#X obj 448 49 spigot 1;
#X obj 448 74 spigot;
#X msg 667 188 #EsEcho;
#X obj 667 161 metro 1000;
#X obj 133 380 s Fr2;
#X msg 133 352 1 actif \$1;
#X msg 71 342 0 \, 1;
#X obj 60 236 bng 20 250 50 0 empty empty empty 0 -10 0 12 #fcfcfc #000000 #000000;
#X msg 35 342 0;
#X obj 117 267 sel 1 0, f 10;
#X msg 133 323 0;
#X obj 60 537 fudiformat -u;
#X obj 60 562 list length;
#X floatatom 60 587 5 0 0 0 - - - 0;
#X obj 232 553 tgl 20 0 empty empty empty 0 -10 0 12 #fcfcfc #000000 #000000 0 1;
#X msg 80 511 Eijhurfiuherfiuhsdkjfhkqsdjf ksdjfh ksjdfh kdjsh012345678 \$1, f 65;
#X obj 224 609 i;
#X obj 260 612 + 1;
#X msg 298 586 0;
#X obj 224 584 metro 2;
#X obj 140 436 s Fraise-forceactif-pied-1;
#X obj 197 125 r TCP-connect;
#X obj 197 150 route stop;
#X msg 95 187 disconnect \, connect \$1 \$2;
#X obj 95 163 list;
#X msg 710 116 0;
#X msg 217 364 #i \, #V \, #R \, whoami;
#X obj 12 315 t b b b, f 9;
#X msg 259 317 #i \, #V \, #R;
#X msg 302 290 #V;
#X obj 599 40 r Fraise-pied-1-comport_on;
#X obj 599 65 tgl 20 0 empty empty empty 0 -10 0 12 #fcfcfc #000000 #000000 0 1;
#X connect 1 0 0 1;
#X connect 2 0 0 1;
#X connect 3 0 34 1;
#X connect 3 0 42 0;
#X connect 4 0 7 0;
#X connect 5 0 7 0;
#X connect 7 0 3 0;
#X connect 7 1 11 0;
#X connect 7 1 32 0;
#X connect 8 0 0 1;
#X connect 9 0 8 0;
#X connect 10 0 17 0;
#X connect 11 0 16 0;
#X connect 11 1 14 0;
#X connect 12 0 14 1;
#X connect 13 0 10 0;
#X connect 14 0 12 0;
#X connect 14 0 13 1;
#X connect 16 0 13 1;
#X connect 16 1 13 0;
#X connect 16 2 14 1;
#X connect 17 0 18 0;
#X connect 17 1 20 0;
#X connect 19 0 21 0;
#X connect 20 0 19 0;
#X connect 22 0 23 0;
#X connect 23 0 24 0;
#X connect 24 0 7 0;
#X connect 25 0 33 0;
#X connect 27 0 30 0;
#X connect 28 0 31 0;
#X connect 30 0 29 0;
#X connect 31 0 32 1;
#X connect 31 0 33 1;
#X connect 32 0 26 0;
#X connect 33 0 34 0;
#X connect 34 0 7 0;
#X connect 35 0 23 0;
#X connect 36 0 35 0;
#X connect 38 0 37 0;
#X connect 40 0 60 0;
#X connect 42 0 60 0;
#X connect 42 1 43 0;
#X connect 43 0 38 0;
#X connect 44 0 45 0;
#X connect 45 0 46 0;
#X connect 47 0 52 0;
#X connect 48 0 0 1;
#X connect 48 0 44 0;
#X connect 49 0 50 0;
#X connect 49 0 48 0;
#X connect 50 0 49 1;
#X connect 51 0 49 1;
#X connect 52 0 49 0;
#X connect 54 0 55 0;
#X connect 55 0 5 0;
#X connect 55 1 57 0;
#X connect 56 0 7 0;
#X connect 57 0 56 0;
#X connect 58 0 36 0;
#X connect 59 0 23 0;
#X connect 60 0 59 0;
#X connect 60 1 41 0;
#X connect 60 2 39 0;
#X connect 61 0 23 0;
#X connect 62 0 23 0;
#X connect 63 0 64 0;
#X connect 64 0 28 0;
#X restore 493 77 pd test_tcp;
#N canvas 73 340 1330 360 settings 1;
#X obj 141 157 fruit/send2 wifiFruit;
#X obj 64 226 fruit/receive wifiFruit;
#X msg 141 44 PongAP;
#X obj 141 72 symbol;
#X obj 141 97 list fromsymbol;
#X obj 141 122 list prepend 10 1;
#X listbox 64 297 20 0 0 0 - - - 0;
#X msg 40 42 10 200 \$1;
#X listbox 213 297 20 0 0 0 - - - 0;
#X listbox 362 296 20 0 0 0 - - - 0;
#X listbox 511 296 20 0 0 0 - - - 0;
#X floatatom 660 277 7 0 0 0 - - - 0;
#X obj 64 274 symbol;
#X obj 213 274 symbol;
#X obj 362 274 symbol;
#X obj 511 274 symbol;
#X obj 273 72 symbol;
#X obj 273 97 list fromsymbol;
#X msg 273 44 pastropfacile;
#X obj 273 122 list prepend 10 2;
#X obj 409 73 symbol;
#X obj 409 98 list fromsymbol;
#X obj 541 73 symbol;
#X obj 541 98 list fromsymbol;
#X msg 541 45 pastropfacile;
#X msg 409 45 Livebox-80E0;
#X obj 409 123 list prepend 10 3;
#X obj 541 123 list prepend 10 4;
#X msg 679 60 4242;
#X obj 679 122 list prepend 10 5 int16;
#X obj 1066 82 symbol;
#X obj 1066 107 list fromsymbol;
#X msg 1066 55 EEPROM_SAVE;
#X obj 1066 132 list prepend 10 255;
#X obj 863 72 symbol;
#X obj 863 97 list fromsymbol;
#X msg 863 44 pong;
#X obj 863 122 list prepend 10 6;
#X listbox 808 299 20 0 0 0 - - - 0;
#X obj 808 277 symbol;
#X obj 64 251 route ap_ssid ap_password sta_ssid sta_password tcp_port hostname, f 128;
#X msg 40 15 1 \, 2 \, 3 \, 4 \, 5 \, 6;
#X msg 922 43 thepong;
#X connect 1 0 40 0;
#X connect 2 0 3 0;
#X connect 3 0 4 0;
#X connect 4 0 5 0;
#X connect 5 0 0 0;
#X connect 7 0 0 0;
#X connect 12 0 6 0;
#X connect 13 0 8 0;
#X connect 14 0 9 0;
#X connect 15 0 10 0;
#X connect 16 0 17 0;
#X connect 17 0 19 0;
#X connect 18 0 16 0;
#X connect 19 0 0 0;
#X connect 20 0 21 0;
#X connect 21 0 26 0;
#X connect 22 0 23 0;
#X connect 23 0 27 0;
#X connect 24 0 22 0;
#X connect 25 0 20 0;
#X connect 26 0 0 0;
#X connect 27 0 0 0;
#X connect 28 0 29 0;
#X connect 29 0 0 0;
#X connect 30 0 31 0;
#X connect 31 0 33 0;
#X connect 32 0 30 0;
#X connect 33 0 0 0;
#X connect 34 0 35 0;
#X connect 35 0 37 0;
#X connect 36 0 34 0;
#X connect 37 0 0 0;
#X connect 39 0 38 0;
#X connect 40 0 12 0;
#X connect 40 1 13 0;
#X connect 40 2 14 0;
#X connect 40 3 15 0;
#X connect 40 4 11 0;
#X connect 40 5 39 0;
#X connect 41 0 7 0;
#X connect 42 0 34 0;
#X restore 586 76 pd settings;
#X connect 0 0 1 1;
#X connect 2 0 1 1;
#X connect 3 0 1 1;
#X connect 4 0 3 0;
#X connect 5 0 6 0;
#X connect 6 0 1 1;
#X connect 7 0 14 0;
#X connect 10 0 14 0;
#X connect 12 0 14 0;
#X connect 14 0 1 1;
#X connect 15 0 19 0;
#X connect 16 0 14 0;
#X connect 18 0 15 0;
#X connect 20 0 15 2;
#X connect 21 0 15 1;
#X connect 22 0 23 0;
#X connect 23 0 24 0;
#X connect 24 0 25 0;
#X connect 27 0 26 0;
#X restore 444 11 pd wifiCtl;
#X msg 172 324 Ehello world;
#X obj 181 34 fruit/fruit 1 wifiFruit 0 wifiHttpsFw;
#X obj 425 406 l pofgui/pofGui \$0-gui;
#X obj 566 495 s TCP-connect;
#X msg 567 459 pong 4242;
#X msg 517 458 stop;
#X connect 1 0 4 0;
#X connect 2 0 1 0;
#X connect 6 0 4 0;
#X connect 7 0 4 0;
#X connect 10 0 4 0;
#X connect 11 0 4 0;
#X connect 13 0 4 0;
#X connect 14 0 4 0;
#X connect 16 0 14 0;
#X connect 18 0 14 0;
#X connect 20 0 14 0;
#X connect 22 0 14 0;
#X connect 24 0 25 0;
#X connect 25 0 26 0;
#X connect 25 1 30 0;
#X connect 26 0 27 0;
#X connect 26 1 27 1;
#X connect 27 0 28 0;
#X connect 31 0 36 0;
#X connect 32 0 31 0;
#X connect 34 0 31 1;
#X connect 35 0 31 1;
#X connect 36 0 14 0;
#X connect 38 0 14 0;
#X connect 40 0 4 0;
#X connect 41 0 4 0;
#X connect 43 0 45 1;
#X connect 44 0 42 0;
#X connect 46 0 45 0;
#X connect 47 0 46 0;
#X connect 48 0 45 1;
#X connect 49 0 45 0;
#X connect 51 0 4 1;
#X connect 55 0 54 0;
#X connect 56 0 54 0;
