#N canvas 597 147 1313 812 12;
#X declare -path Fraise;
#X declare -path moonlib -lib pdlua;
#X obj 11 39 pied/pied 1;
#X obj 11 122 fruit/fruit 1 dmxseq 0 fw_dmxseq;
#X obj 10 10 declare -path Fraise;
#X obj 331 16 hsl 170 20 0 65535 0 0 empty empty pan -2 -10 0 12 #fcfcfc #000000 #000000 0 1;
#X msg 342 227 100 i \$1 c \$2;
#X obj 342 252 fruit/send2 dmxseq;
#X msg 342 130 1 \$1;
#X msg 402 130 2 \$1;
#X obj 342 77 t f f, f 9;
#X obj 342 102 div 256;
#X obj 402 103 mod 256;
#X obj 537 51 hsl 170 20 0 65535 0 0 empty empty tilt -2 -10 0 12 #fcfcfc #000000 #000000 0 1;
#X obj 534 76 t f f, f 9;
#X obj 534 101 div 256;
#X obj 594 102 mod 256;
#X msg 534 129 3 \$1;
#X msg 594 129 4 \$1;
#X floatatom 474 97 8 0 0 0 - - - 0;
#X obj 734 58 hsl 170 20 0 255 0 0 empty empty slow -2 -10 0 12 #fcfcfc #000000 #000000 0 1;
#X msg 731 120 5 \$1;
#X obj 923 63 hsl 170 20 0 255 0 0 empty empty color -2 -10 0 12 #fcfcfc #000000 #000000 0 1;
#X msg 920 125 6 \$1;
#X obj 980 100 hsl 170 20 0 255 0 0 empty empty gobo -2 -10 0 12 #fcfcfc #000000 #000000 0 1;
#X msg 977 162 7 \$1;
#X obj 1063 159 hsl 170 20 0 255 0 0 empty empty light -2 -10 0 12 #fcfcfc #000000 #000000 0 1;
#X msg 1060 221 8 \$1;
#X floatatom 932 95 5 0 255 0 - - - 0;
#X floatatom 997 137 5 0 255 0 - - - 0;
#X obj 948 301 hradio 20 1 0 8 empty empty empty 0 -10 0 12 #fcfcfc #000000 #000000 0;
#X obj 903 356 * 8, f 6;
#X floatatom 977 356 5 0 0 0 - - - 0;
#X obj 355 336 metro 1000;
#X obj 356 389 * 60000;
#X obj 355 361 tgl 20 0 empty empty empty 0 -10 0 12 #fcfcfc #000000 #000000 0 1;
#X obj 397 303 tgl 20 0 empty empty empty 0 -10 0 12 #fcfcfc #000000 #000000 0 1;
#X floatatom 252 176 12 0 0 0 - - - 0;
#X msg 589 15 32768;
#X obj 328 50 i;
#X msg 85 272 45490 1644;
#X obj 85 297 -;
#X floatatom 85 322 7 0 0 0 - - - 0;
#X msg 220 34 45490;
#X msg 271 34 1644;
#X obj 203 296 -;
#X floatatom 203 321 7 0 0 0 - - - 0;
#X msg 203 271 45502 1640;
#X msg 158 357 44850;
#X floatatom 57 610 5 0 0 0 - - - 0;
#X obj 105 615 / 360;
#X obj 105 640 * 44850;
#X obj 105 433 mknob 100 -1 0 360 0 0 empty empty empty -2 -6 0 8 #fcfcfc #000000 #000000 15500 1;
#X msg 105 538 360 \$1;
#X obj 105 563 -;
#X obj 301 445 mknob 100 100 -135 135 0 0 empty empty empty -2 -6 0 8 #fcfcfc #000000 #000000 6270 1;
#X msg 515 299 60100 32768;
#X obj 515 324 -;
#X floatatom 515 349 5 0 0 0 - - - 0;
#X obj 366 571 - 180;
#X obj 301 575 / 90;
#X obj 301 600 * 27330;
#X floatatom 302 705 12 0 0 0 - - - 0;
#X obj 301 631 + 32768;
#X floatatom 416 584 5 0 0 0 - - - 0;
#X obj 301 668 clip 0 65535;
#X obj 18 208 declare -path moonlib -lib pdlua;
#X obj 634 404 dmxspot;
#X msg 763 331 \; pdluax reload;
#X msg 591 362 pos \$1 \$2;
#X obj 197 762 pack f f;
#X obj 219 734 t b f;
#X listbox 437 625 20 0 0 0 - - - 0;
#X obj 542 479 list;
#N canvas 104 46 714 529 testseq 1;
#X obj 150 75 tgl 20 0 empty empty empty 0 -10 0 12 #fcfcfc #000000 #000000 0 1;
#X obj 150 100 metro 2000;
#X obj 150 162 tgl 20 0 empty empty empty 0 -10 0 12 #fcfcfc #000000 #000000 0 1;
#X obj 150 347 pack f 2000;
#X obj 150 372 line;
#X obj 150 187 * 2;
#X obj 150 284 - 1;
#X floatatom 102 422 5 0 0 0 - - - 0;
#X obj 150 125 t b b, f 11;
#X obj 245 347 pack f 2000;
#X obj 245 372 line;
#X floatatom 261 425 5 0 0 0 - - - 0;
#X obj 150 429 pack f f;
#X obj 150 454 outlet;
#X obj 307 95 f;
#X msg 305 56 1000;
#X obj 245 286 +;
#X obj 245 164 random 2000;
#X obj 245 189 - 1000;
#X obj 245 219 / 1000;
#X obj 245 253 * 90;
#X msg 393 57 500;
#X obj 150 309 * 45;
#X msg 350 51 750;
#X msg 292 247 50;
#X msg 414 208 1 \, 0 500;
#X obj 414 233 line~;
#X obj 414 258 *~;
#X obj 414 283 *~;
#X obj 414 333 dac~;
#X obj 464 276 osc~ 1000;
#X obj 414 308 *~ 0.1;
#X msg 266 53 2000;
#X obj 244 311 clip 0 360;
#X msg 344 253 90;
#X msg 350 426 20;
#X connect 0 0 1 0;
#X connect 1 0 8 0;
#X connect 2 0 5 0;
#X connect 3 0 4 0;
#X connect 4 0 12 0;
#X connect 5 0 6 0;
#X connect 6 0 22 0;
#X connect 8 0 2 0;
#X connect 8 1 17 0;
#X connect 9 0 10 0;
#X connect 10 0 12 1;
#X connect 12 0 13 0;
#X connect 14 0 1 1;
#X connect 14 0 3 1;
#X connect 14 0 9 1;
#X connect 15 0 14 0;
#X connect 16 0 33 0;
#X connect 17 0 18 0;
#X connect 18 0 19 0;
#X connect 19 0 20 0;
#X connect 20 0 16 0;
#X connect 21 0 14 0;
#X connect 22 0 3 0;
#X connect 23 0 14 0;
#X connect 24 0 20 1;
#X connect 25 0 26 0;
#X connect 26 0 27 0;
#X connect 26 0 27 1;
#X connect 27 0 28 0;
#X connect 28 0 31 0;
#X connect 30 0 28 1;
#X connect 31 0 29 0;
#X connect 32 0 14 0;
#X connect 33 0 16 1;
#X connect 33 0 9 0;
#X connect 34 0 20 1;
#X connect 35 0 4 2;
#X connect 35 0 10 2;
#X restore 75 820 pd testseq;
#X obj 69 380 unpack f f;
#X obj 1240 101 tgl 20 0 empty empty empty 0 -10 0 12 #fcfcfc #000000 #000000 0 1;
#X obj 1240 126 * 255;
#X obj 1363 123 del 50;
#X msg 1363 148 0;
#X msg 1405 150 1;
#X obj 1349 63 tgl 20 0 empty empty empty 0 -10 0 12 #fcfcfc #000000 #000000 0 1;
#X obj 1363 98 metro 350;
#X msg 680 355 size \$1;
#X floatatom 680 309 5 0 0 0 - - - 0;
#X connect 3 0 37 0;
#X connect 4 0 5 0;
#X connect 6 0 4 0;
#X connect 7 0 4 0;
#X connect 8 0 9 0;
#X connect 8 1 10 0;
#X connect 9 0 6 0;
#X connect 10 0 7 0;
#X connect 11 0 12 0;
#X connect 12 0 13 0;
#X connect 12 1 14 0;
#X connect 13 0 15 0;
#X connect 14 0 16 0;
#X connect 15 0 4 0;
#X connect 16 0 4 0;
#X connect 18 0 19 0;
#X connect 19 0 4 0;
#X connect 20 0 21 0;
#X connect 21 0 4 0;
#X connect 22 0 23 0;
#X connect 23 0 4 0;
#X connect 24 0 25 0;
#X connect 25 0 4 0;
#X connect 26 0 21 0;
#X connect 27 0 23 0;
#X connect 28 0 29 0;
#X connect 28 0 30 0;
#X connect 29 0 27 0;
#X connect 31 0 33 0;
#X connect 32 0 3 0;
#X connect 33 0 32 0;
#X connect 34 0 31 0;
#X connect 36 0 11 0;
#X connect 37 0 8 0;
#X connect 38 0 39 0;
#X connect 39 0 40 0;
#X connect 41 0 3 0;
#X connect 42 0 3 0;
#X connect 43 0 44 0;
#X connect 45 0 43 0;
#X connect 47 0 48 0;
#X connect 48 0 49 0;
#X connect 49 0 3 0;
#X connect 50 0 51 0;
#X connect 51 0 52 0;
#X connect 52 0 68 0;
#X connect 52 0 48 0;
#X connect 53 0 58 0;
#X connect 53 0 69 0;
#X connect 54 0 55 0;
#X connect 55 0 56 0;
#X connect 58 0 59 0;
#X connect 59 0 61 0;
#X connect 61 0 63 0;
#X connect 63 0 11 0;
#X connect 67 0 65 0;
#X connect 67 0 71 0;
#X connect 68 0 67 0;
#X connect 69 0 68 0;
#X connect 69 1 68 1;
#X connect 72 0 73 0;
#X connect 73 0 53 0;
#X connect 73 1 50 0;
#X connect 74 0 75 0;
#X connect 75 0 24 0;
#X connect 76 0 77 0;
#X connect 77 0 74 0;
#X connect 78 0 74 0;
#X connect 79 0 80 0;
#X connect 80 0 76 0;
#X connect 80 0 78 0;
#X connect 81 0 65 0;
#X connect 82 0 81 0;
