#N canvas 596 81 835 494 12;
#X obj 90 110 pongsynth~;
#X msg 340 37 \; pd dsp 1;
#X obj 92 198 dac~;
#X obj 154 158 hsl 170 20 0 1 0 1 empty empty empty -2 -10 0 12 #fcfcfc #000000 #000000 16900 1;
#X obj 151 183 pow 2;
#X msg 151 208 \$1 10;
#X obj 151 233 line~;
#X obj 91 160 *~;
#X msg 90 50 buzz;
#X msg 134 48 bounce;
#X obj 340 10 loadbang;
#X obj 45 22 tgl 20 0 empty empty empty 0 -10 0 12 #fcfcfc #000000 #000000 0 1;
#X obj 50 313 print~;
#X obj 88 23 metro 500;
#X obj 19 170 del 100;
#N canvas 0 0 626 396 cpu-load 0;
#X floatatom 27 224 5 0 0 0 - - - 0;
#X obj 27 136 cputime;
#X obj 27 16 loadbang;
#X obj 27 80 metro 1000;
#X obj 27 108 t b b;
#X obj 27 196 * 0.1;
#X obj 27 165 int;
#X text 25 244 CPU load in percent;
#X obj 27 47 tgl 19 0 empty empty empty 17 7 0 10 #dfdfdf #000000 #000000 0 1;
#X text 51 47 <-- on/off;
#X obj 213 32 tgl 20 0 empty empty empty 0 -10 0 12 #fcfcfc #000000 #000000 0 1;
#X obj 213 57 switch~;
#X msg 211 145 resize \$1;
#X msg 209 96 100;
#X msg 242 95 200;
#X msg 274 95 500;
#X msg 307 95 1000;
#X floatatom 209 121 5 0 0 0 - - - 0;
#X obj 211 170 clone pongabs 100;
#X connect 1 0 6 0;
#X connect 2 0 8 0;
#X connect 3 0 4 0;
#X connect 4 0 1 0;
#X connect 4 1 1 1;
#X connect 5 0 0 0;
#X connect 6 0 5 0;
#X connect 8 0 3 0;
#X connect 10 0 11 0;
#X connect 12 0 18 0;
#X connect 13 0 17 0;
#X connect 14 0 17 0;
#X connect 15 0 17 0;
#X connect 16 0 17 0;
#X connect 17 0 12 0;
#X restore 698 18 pd cpu-load;
#X obj 475 95 phasor~;
#X obj 537 94 phasor~;
#X msg 548 62 0;
#X msg 479 46 100;
#X obj 475 120 -~;
#X obj 473 453 dac~;
#X obj 536 339 hsl 170 20 0 1 0 1 empty empty empty -2 -10 0 12 #fcfcfc #000000 #000000 0 1;
#X obj 534 364 pow 2;
#X msg 534 389 \$1 10;
#X obj 534 414 line~;
#X obj 474 341 *~;
#X msg 514 47 103;
#X msg 582 23 0.25;
#X floatatom 611 63 5 0 0 0 - - - 0;
#X obj 519 251 *~;
#X floatatom 608 204 9 0 0 0 - - - 0;
#X obj 631 157 hsl 170 20 0 127 0 0 empty empty empty -2 -10 0 12 #fcfcfc #000000 #000000 0 1;
#X obj 628 182 mtof;
#X floatatom 528 181 9 0 0 0 - - - 0;
#X obj 551 134 hsl 170 20 0 127 0 0 empty empty empty -2 -10 0 12 #fcfcfc #000000 #000000 0 1;
#X obj 548 159 mtof;
#X floatatom 533 9 5 0 0 0 - - - 0;
#X obj 597 274 tgl 20 0 empty empty empty 0 -10 0 12 #fcfcfc #000000 #000000 0 1;
#X obj 473 286 *~ 0.5;
#X obj 473 314 hip~ 5;
#X obj 596 226 osc~ 1708;
#X obj 519 226 hip~ 80;
#X obj 250 353 *~;
#X floatatom 274 299 9 0 0 0 - - - 0;
#X obj 297 252 hsl 170 20 0 127 0 0 empty empty empty -2 -10 0 12 #fcfcfc #000000 #000000 0 1;
#X obj 294 277 mtof;
#X obj 250 328 hip~ 80;
#X obj 250 412 cyclone/atan~;
#X obj 308 323 hsl 170 20 0 127 0 0 empty empty empty -2 -10 0 12 #fcfcfc #000000 #000000 0 1;
#X obj 305 348 pow 2;
#X obj 305 373 * 50;
#X connect 0 0 7 0;
#X connect 0 0 12 0;
#X connect 3 0 4 0;
#X connect 4 0 5 0;
#X connect 5 0 6 0;
#X connect 6 0 7 1;
#X connect 7 0 2 0;
#X connect 7 0 2 1;
#X connect 8 0 0 0;
#X connect 9 0 0 0;
#X connect 10 0 1 0;
#X connect 11 0 13 0;
#X connect 13 0 9 0;
#X connect 13 0 14 0;
#X connect 14 0 12 0;
#X connect 16 0 20 0;
#X connect 17 0 20 1;
#X connect 18 0 16 1;
#X connect 19 0 16 0;
#X connect 19 0 17 0;
#X connect 20 0 42 0;
#X connect 20 0 39 0;
#X connect 20 0 47 0;
#X connect 22 0 23 0;
#X connect 23 0 24 0;
#X connect 24 0 25 0;
#X connect 25 0 26 1;
#X connect 26 0 21 0;
#X connect 26 0 21 1;
#X connect 27 0 17 0;
#X connect 28 0 17 1;
#X connect 28 0 18 0;
#X connect 29 0 17 1;
#X connect 29 0 18 0;
#X connect 31 0 41 0;
#X connect 32 0 33 0;
#X connect 33 0 31 0;
#X connect 34 0 42 1;
#X connect 35 0 36 0;
#X connect 36 0 34 0;
#X connect 37 0 17 0;
#X connect 38 0 22 0;
#X connect 39 0 40 0;
#X connect 40 0 26 0;
#X connect 41 0 30 1;
#X connect 42 0 30 0;
#X connect 43 0 48 0;
#X connect 44 0 47 1;
#X connect 45 0 46 0;
#X connect 46 0 44 0;
#X connect 47 0 43 0;
#X connect 48 0 39 0;
#X connect 49 0 50 0;
#X connect 50 0 51 0;
#X connect 51 0 43 1;
