#N canvas 961 393 903 430 10;
#X obj 44 189 t b f;
#X obj 573 172 tgl 30 0 \$0-rec \$0-rec rec 32 7 0 10 #fc0400 #000000 #000000 0 1;
#X obj 503 172 tgl 30 0 \$0-auto \$0-auto auto 32 7 0 10 #f8fc00 #000000 #000000 0 1;
#X msg 129 118 60;
#X obj 129 97 loadbang;
#X text 154 117 max(sec);
#X obj 403 218 nbx 5 14 10 100 0 0 \$0-thres-snd \$0-thres-rcv seuil 0 -8 0 10 #fcac44 #000000 #000000 0 256;
#X obj 465 220 hsl 60 12 0 1 0 1 \$0-thi-snd \$0-thi-rcv tHi:0.06s -2 -8 0 10 #00f8fc #000000 #000000 400 1;
#X obj 410 319 i;
#X obj 44 212 samplerate~;
#X obj 44 233 *;
#X floatatom 80 235 8 0 0 0 - - - 0;
#X text 54 3 autorec apref id [sample];
#X msg 410 365 label tHi:\$1s;
#X obj 563 220 hsl 60 12 0.1 3 0 1 \$0-tlow-snd \$0-tlow-rcv tLow:0.73s -2 -8 0 10 #00f8fc #000000 #000000 1300 1;
#X obj 568 313 i;
#X msg 568 357 label tLow:\$1s;
#N canvas 2 658 644 537 record 0;
#X obj 210 308 timer;
#X obj 210 352 / 1000;
#X obj 279 293 delay 100;
#X obj 215 101 sel 1 0;
#X msg 251 247 stop;
#X msg 257 332 0;
#X obj 279 272 * 1000;
#X obj 145 203 t b b b;
#X obj 317 245 f;
#X obj 266 502 s \$0-insamplength;
#X obj 320 424 - 0;
#X obj 272 99 sel 1;
#X msg 272 120 1;
#X obj 351 357 r \$0-recorder_cut;
#X obj 272 141 s \$0-recording;
#X obj 38 29 delwrite~ \$0-indel 1000;
#X obj 19 83 r \$0-recorder_indel;
#X obj 336 386 f;
#X obj 215 76 t f b;
#X floatatom 434 441 0 0 0 0 - - - 0;
#X floatatom 438 407 0 0 0 0 - - - 0;
#X floatatom 56 236 0 0 0 0 - - - 0;
#X obj 237 203 b;
#X obj 237 182 del;
#X obj 19 262 delread~ \$0-indel 200;
#X obj 332 211 r \$0-recmax;
#X obj 215 51 change;
#X obj 210 330 t f b;
#X obj 38 8 inlet~;
#X obj 320 474 outlet;
#X obj 352 71 tgl 15 0 empty empty empty 17 7 0 10 #fcfcfc #000000 #000000 0 1;
#X floatatom 249 422 5 0 0 0 - - - 0;
#X floatatom 426 471 0 0 0 0 - - - 0;
#X obj 215 25 r \$0-rec;
#X obj 257 353 s \$0-rec;
#X obj 112 412 tabwrite~ \$0-sample;
#X connect 0 0 27 0;
#X connect 0 0 31 0;
#X connect 1 0 10 0;
#X connect 3 0 7 0;
#X connect 3 1 23 0;
#X connect 4 0 2 0;
#X connect 4 0 35 0;
#X connect 5 0 34 0;
#X connect 6 0 2 0;
#X connect 7 0 35 0;
#X connect 7 1 0 0;
#X connect 7 2 8 0;
#X connect 8 0 6 0;
#X connect 10 0 29 0;
#X connect 10 0 32 0;
#X connect 11 0 12 0;
#X connect 12 0 14 0;
#X connect 13 0 17 1;
#X connect 13 0 20 0;
#X connect 16 0 21 0;
#X connect 16 0 23 1;
#X connect 16 0 24 0;
#X connect 17 0 19 0;
#X connect 17 0 10 1;
#X connect 18 0 11 0;
#X connect 18 0 3 0;
#X connect 18 1 17 0;
#X connect 22 0 4 0;
#X connect 22 0 0 1;
#X connect 23 0 22 0;
#X connect 24 0 35 0;
#X connect 25 0 8 1;
#X connect 26 0 18 0;
#X connect 26 0 30 0;
#X connect 27 0 1 0;
#X connect 27 1 5 0;
#X connect 28 0 15 0;
#X connect 33 0 26 0;
#X restore 44 160 pd record;
#X obj 129 140 s \$0-recmax;
#N canvas 830 910 445 420 auto 0;
#N canvas 232 299 515 509 autorec 0;
#X obj 55 14 inlet;
#X obj 232 422 outlet;
#X obj 254 107 env~;
#X obj 254 127 > 75;
#X obj 296 43 inlet;
#X obj 337 42 inlet;
#X obj 337 62 * 1000;
#X obj 288 422 outlet;
#X obj 396 43 inlet;
#X obj 396 63 * 1000;
#X obj 254 151 change;
#X obj 210 250 sel 1 0;
#X obj 232 292 delay;
#X msg 232 271 stop;
#X msg 232 312 1;
#X obj 315 293 delay;
#X msg 315 272 stop;
#X obj 293 251 sel 0 1;
#X msg 361 313 2;
#X msg 315 333 0;
#X obj 315 313 t b b;
#X obj 232 332 t f f;
#X obj 55 58 sel 0 1;
#X obj 127 119 t b b;
#X msg 157 159 0;
#X msg 127 140 1;
#X obj 55 85 t b b;
#X msg 85 134 2;
#X msg 55 134 0;
#X obj 256 379 t f f;
#X obj 157 183 t f f;
#X msg 91 107 stop;
#X obj 157 140 del 0;
#X obj 55 37 t f b;
#X obj 9 14 inlet~;
#X obj 324 145 tgl 15 0 empty empty empty 17 7 0 10 #fcfcfc #000000 #000000 0 1;
#X floatatom 345 115 5 0 0 0 - - - 0;
#X obj 393 207 s \$0-signal;
#X obj 151 59 hip~ 200;
#X obj 63 248 f;
#X text 89 248 switch~;
#X obj 437 110 loadbang;
#X msg 437 132 2;
#X obj 254 176 list prepend 0;
#X obj 254 200 route 0 1 2;
#X obj 228 55 hip~ 3000;
#X obj 228 78 *~ 3;
#X connect 0 0 33 0;
#X connect 2 0 3 0;
#X connect 3 0 10 0;
#X connect 4 0 3 1;
#X connect 5 0 6 0;
#X connect 6 0 12 1;
#X connect 6 0 36 0;
#X connect 8 0 9 0;
#X connect 9 0 15 1;
#X connect 10 0 35 0;
#X connect 10 0 43 0;
#X connect 11 0 12 0;
#X connect 11 1 13 0;
#X connect 12 0 14 0;
#X connect 13 0 12 0;
#X connect 14 0 21 0;
#X connect 15 0 20 0;
#X connect 16 0 15 0;
#X connect 17 0 15 0;
#X connect 17 1 16 0;
#X connect 18 0 43 1;
#X connect 19 0 29 0;
#X connect 20 0 19 0;
#X connect 20 1 18 0;
#X connect 21 0 1 0;
#X connect 21 1 43 1;
#X connect 22 0 26 0;
#X connect 22 1 23 0;
#X connect 23 0 25 0;
#X connect 23 1 32 0;
#X connect 24 0 30 0;
#X connect 25 0 39 0;
#X connect 26 0 28 0;
#X connect 26 1 27 0;
#X connect 26 1 31 0;
#X connect 27 0 43 1;
#X connect 28 0 29 0;
#X connect 28 0 39 0;
#X connect 29 0 7 0;
#X connect 29 1 1 0;
#X connect 30 0 10 0;
#X connect 30 1 43 1;
#X connect 31 0 32 0;
#X connect 32 0 24 0;
#X connect 33 0 22 0;
#X connect 33 1 13 0;
#X connect 33 1 16 0;
#X connect 34 0 38 0;
#X connect 35 0 37 0;
#X connect 38 0 2 0;
#X connect 38 0 45 0;
#X connect 41 0 42 0;
#X connect 42 0 43 1;
#X connect 43 0 44 0;
#X connect 44 0 11 0;
#X connect 44 1 17 0;
#X connect 45 0 46 0;
#X connect 46 0 2 0;
#X restore 25 148 pd autorec;
#X obj 249 359 s \$0-recorder_cut;
#X obj 39 108 t f f;
#X obj 170 278 s \$0-recorder_indel;
#X obj 186 154 * 1000;
#X obj 170 230 f;
#X obj 170 254 + 80;
#X obj 249 338 *;
#X floatatom 320 340 5 0 0 0 - - - 0;
#X obj 39 82 change;
#X obj 24 16 inlet~;
#X obj 194 59 tgl 15 0 empty empty empty 17 7 0 10 #fcfcfc #000000 #000000 0 1;
#X obj 76 245 tgl 15 0 empty empty empty 17 7 0 10 #fcfcfc #000000 #000000 0 1;
#X obj 264 315 - 0.6;
#X obj 170 177 sel 1 0;
#X obj 233 205 del 3000;
#X msg 197 205 stop;
#X msg 233 225 0;
#X obj 39 55 r \$0-auto;
#X obj 94 81 r \$0-thres-snd;
#X obj 145 103 r \$0-thi-snd;
#X obj 223 123 r \$0-tlow-snd;
#X obj 82 176 s \$0-auto;
#X obj 25 332 s \$0-rec;
#X connect 0 0 12 0;
#X connect 0 0 23 0;
#X connect 0 1 22 0;
#X connect 2 0 0 1;
#X connect 2 1 7 0;
#X connect 2 1 14 0;
#X connect 4 0 5 1;
#X connect 5 0 6 0;
#X connect 6 0 3 0;
#X connect 7 0 1 0;
#X connect 9 0 2 0;
#X connect 9 0 11 0;
#X connect 10 0 0 0;
#X connect 13 0 7 1;
#X connect 13 0 8 0;
#X connect 14 0 5 0;
#X connect 14 0 16 0;
#X connect 14 1 15 0;
#X connect 15 0 17 0;
#X connect 16 0 15 0;
#X connect 17 0 3 0;
#X connect 18 0 9 0;
#X connect 19 0 0 2;
#X connect 20 0 0 3;
#X connect 20 0 4 0;
#X connect 21 0 0 4;
#X connect 21 0 13 0;
#X restore 63 133 pd auto;
#X obj 410 297 * 100;
#X obj 410 341 / 100;
#X obj 568 291 * 100;
#X obj 568 335 / 100;
#X obj 379 22 r \$0-signal;
#X obj 379 45 sel 0 1;
#X msg 379 69 color 4 22 22;
#X msg 470 70 color 14 22 22;
#X obj 379 91 t a;
#X obj 538 153 tgl 20 0 \$0-ReRec-snd \$0-ReRec-rcv ReRec 23 7 0 10 #fc0400 #000000 #000000 0 1;
#N canvas 0 1172 450 300 ReRec 0;
#X obj 83 79 sel 0;
#X obj 83 107 del 2000;
#X msg 83 132 1;
#X obj 83 162 spigot;
#X obj 190 80 r \$0-ReRec-snd;
#X obj 229 140 tgl 15 0 empty empty empty 17 7 0 10 #fcfcfc #000000 #000000 0 1;
#X obj 83 51 r \$0-rec;
#X obj 83 188 s \$0-auto;
#X connect 0 0 1 0;
#X connect 1 0 2 0;
#X connect 2 0 3 0;
#X connect 3 0 7 0;
#X connect 4 0 3 1;
#X connect 4 0 5 0;
#X connect 6 0 0 0;
#X restore 244 69 pd ReRec;
#X obj 44 265 s \$0-sample-len;
#X obj 47 369 table \$0-sample 2.646e+06;
#X obj 379 115 s \$0-thres-rcv;
#X obj 43 57 adc~;
#X floatatom 167 240 5 0 0 0 - - - 0;
#X obj 410 273 r \$0-thi-snd;
#X obj 410 389 s \$0-thi-rcv;
#X obj 568 268 r \$0-tlow-snd;
#X obj 568 381 s \$0-tlow-rcv;
#X connect 0 0 9 0;
#X connect 0 1 10 1;
#X connect 0 1 35 0;
#X connect 3 0 18 0;
#X connect 4 0 3 0;
#X connect 8 0 21 0;
#X connect 9 0 10 0;
#X connect 10 0 11 0;
#X connect 10 0 31 0;
#X connect 13 0 37 0;
#X connect 15 0 23 0;
#X connect 16 0 39 0;
#X connect 17 0 0 0;
#X connect 20 0 8 0;
#X connect 21 0 13 0;
#X connect 22 0 15 0;
#X connect 23 0 16 0;
#X connect 24 0 25 0;
#X connect 25 0 26 0;
#X connect 25 1 27 0;
#X connect 26 0 28 0;
#X connect 27 0 28 0;
#X connect 28 0 33 0;
#X connect 34 0 17 0;
#X connect 34 0 19 0;
#X connect 36 0 20 0;
#X connect 38 0 22 0;
#X coords 0 -1 1 1 230 85 1 400 150;
