#N canvas 169 77 1241 638 12;
#X obj 951 259 array define \$0-melody;
#X msg 581 2 16;
#X obj 581 52 until;
#X obj 581 27 t f b, f 7;
#X obj 581 77 i;
#X obj 616 78 + 1;
#X msg 627 52 0;
#X obj 672 77 random;
#X obj 581 102 t b f, f 8;
#X obj 581 140 f, f 5;
#X obj 637 193 t f f, f 9;
#X obj 697 218 mod;
#X obj 637 218 div;
#X obj 637 268 +, f 9;
#X obj 458 232 random 1000;
#X obj 458 257 / 1000;
#X obj 458 282 pow 3;
#X obj 458 332 i;
#X obj 458 357 + 1;
#X obj 524 407 random 2;
#X obj 524 432 * 2;
#X obj 524 457 - 1;
#X obj 458 407 *;
#X obj 581 165 t f f;
#X obj 426 207 t f b;
#X obj 426 453 +;
#X obj 613 372 array set \$0-melody;
#X obj 647 456 array get \$0-melody 0 16;
#X listbox 647 481 74 0 0 0 - - - 0;
#X obj 667 417 bng 20 250 50 0 empty empty empty 0 -10 0 12 #fcfcfc #000000 #000000;
#X obj 458 382 t f b, f 10;
#X obj 637 243 * 12;
#X obj 28 275 array get \$0-melody 0 1;
#X obj 28 489 mtof;
#X obj 28 514 phasor~;
#X obj 29 584 lop~ 800;
#X obj 28 549 *~;
#X obj 120 487 line~;
#X obj 120 512 *~;
#X obj 88 432 t f b;
#N canvas 1523 134 450 300 silence 1;
#X obj 51 17 inlet;
#X obj 51 42 t b f, f 15;
#X obj 51 85 random 1000;
#X obj 51 110 / 1000;
#X obj 247 32 pow 1;
#X obj 51 160 moses 0.5;
#X msg 51 185 -1000;
#X obj 51 259 outlet;
#X obj 111 183 b;
#X obj 111 208 f;
#X obj 124 128 hsl 170 20 0 1 0 0 empty empty empty -2 -10 0 12 #fcfcfc #000000 #000000 0 1;
#X connect 0 0 1 0;
#X connect 1 0 2 0;
#X connect 1 1 9 1;
#X connect 2 0 3 0;
#X connect 3 0 5 0;
#X connect 5 0 6 0;
#X connect 5 1 8 0;
#X connect 6 0 7 0;
#X connect 8 0 9 0;
#X connect 9 0 7 0;
#X connect 10 0 5 1;
#X restore 613 305 pd silence;
#X obj 28 306 sel -1000;
#X floatatom 14 354 5 0 0 0 - - - 0;
#N canvas 1129 20 729 424 transform_melody 0;
#X msg 162 36 16;
#X obj 162 86 until;
#X obj 162 61 t f b, f 7;
#X obj 162 111 i;
#X obj 197 112 + 1;
#X msg 208 86 0;
#X obj 162 242 array get \$0-melody 0 1;
#X obj 222 387 array set \$0-melody;
#X obj 222 292 +;
#X obj 162 137 t f b f, f 8;
#X obj 162 267 sel -1000;
#X msg 162 292 -1000;
#X obj 287 360 + 16;
#N canvas 50 103 623 864 to_chord 0;
#X obj 115 24 inlet;
#X obj 282 24 inlet time;
#X obj 282 49 mod 4;
#X obj 115 49 list prepend 0;
#X obj 115 326 outlet;
#X obj 115 74 route 0 1;
#X obj 282 74 == 0;
#X obj 145 132 t f f, f 9;
#X obj 205 157 mod;
#X obj 145 157 div;
#X obj 145 224 +, f 9;
#X obj 145 182 * 12;
#X obj 330 248 f;
#X obj 330 273 t f b;
#X obj 330 298 until;
#X obj 365 324 + 1;
#X obj 330 323 i;
#X msg 374 298 0;
#X obj 362 402 moses;
#X obj 330 190 t b f;
#X obj 330 350 t f f;
#X obj 312 406 f;
#X obj 312 161 t b f;
#X obj 394 428 b;
#X obj 362 377 array get \$1-chord 0 1;
#X obj 348 223 r \$1-chord-len;
#X obj 223 129 r \$1-scale-len;
#X connect 0 0 3 0;
#X connect 1 0 2 0;
#X connect 2 0 6 0;
#X connect 3 0 5 0;
#X connect 5 0 4 0;
#X connect 5 1 7 0;
#X connect 6 0 3 1;
#X connect 7 0 9 0;
#X connect 7 1 8 0;
#X connect 8 0 22 0;
#X connect 9 0 11 0;
#X connect 10 0 4 0;
#X connect 11 0 10 0;
#X connect 12 0 13 0;
#X connect 13 0 14 0;
#X connect 13 1 17 0;
#X connect 14 0 16 0;
#X connect 15 0 16 1;
#X connect 16 0 15 0;
#X connect 16 0 20 0;
#X connect 17 0 16 1;
#X connect 18 1 23 0;
#X connect 19 0 12 0;
#X connect 19 1 18 1;
#X connect 20 1 24 0;
#X connect 21 0 10 1;
#X connect 22 0 21 0;
#X connect 22 1 19 0;
#X connect 23 0 14 1;
#X connect 24 0 18 0;
#X connect 24 0 21 1;
#X connect 25 0 12 1;
#X connect 26 0 8 1;
#X connect 26 0 9 1;
#X connect 26 0 11 1;
#X restore 222 324 pd to_chord;
#X f 15;
#X obj 162 11 inlet;
#X obj 187 162 random 5;
#X obj 188 187 - 2;
#X connect 0 0 2 0;
#X connect 1 0 3 0;
#X connect 2 0 1 0;
#X connect 2 1 5 0;
#X connect 3 0 4 0;
#X connect 3 0 9 0;
#X connect 4 0 3 1;
#X connect 5 0 3 1;
#X connect 6 0 10 0;
#X connect 8 0 13 0;
#X connect 9 0 6 0;
#X connect 9 1 15 0;
#X connect 9 2 12 0;
#X connect 9 2 13 1;
#X connect 10 0 11 0;
#X connect 10 1 8 0;
#X connect 11 0 7 0;
#X connect 12 0 7 1;
#X connect 13 0 7 0;
#X connect 14 0 0 0;
#X connect 15 0 16 0;
#X connect 16 0 8 1;
#X restore 978 127 pd transform_melody;
#X obj 88 334 t f f, f 9;
#X obj 148 359 mod;
#X obj 88 359 div;
#X obj 88 409 +, f 9;
#X obj 88 384 * 12;
#X floatatom 30 431 5 0 0 0 - - - 0;
#N canvas 50 103 623 864 to_chord 0;
#X obj 55 24 inlet;
#X obj 282 24 inlet time;
#X obj 282 49 mod 4;
#X obj 55 49 list prepend 0;
#X obj 55 329 outlet;
#X obj 55 74 route 0 1;
#X obj 282 74 == 0;
#X obj 145 132 t f f, f 9;
#X obj 205 157 mod;
#X obj 145 157 div;
#X obj 145 224 +, f 9;
#X obj 145 182 * 12;
#X obj 330 248 f;
#X obj 330 273 t f b;
#X obj 330 298 until;
#X obj 365 324 + 1;
#X obj 330 323 i;
#X msg 374 298 0;
#X obj 362 402 moses;
#X obj 330 190 t b f;
#X obj 330 350 t f f;
#X obj 312 406 f;
#X obj 312 161 t b f;
#X obj 394 428 b;
#X obj 177 515 t f f, f 9;
#X obj 237 540 mod;
#X obj 255 512 r \$0-scale-len;
#X obj 177 540 div;
#X obj 177 607 +, f 9;
#X obj 177 565 * 12;
#X obj 380 606 r \$0-chord-len;
#X obj 362 631 f;
#X obj 362 656 t f b;
#X obj 362 681 until;
#X obj 397 707 + 1;
#X obj 362 706 i;
#X msg 406 681 0;
#X obj 394 760 array get \$0-chord 0 1;
#X obj 394 785 moses;
#X obj 362 573 t b f;
#X obj 362 733 t f f;
#X obj 344 789 f;
#X obj 344 544 t b f;
#X obj 426 811 b;
#X floatatom 177 632 5 0 0 0 - - - 0;
#X floatatom 185 462 5 0 0 0 - - - 0;
#X obj 53 683 t f f, f 9;
#X obj 113 708 mod;
#X obj 131 680 r \$0-scale-len;
#X obj 53 708 div;
#X obj 53 758 +, f 9;
#X obj 113 734 array get \$0-scale 0 1;
#X obj 53 733 * 12;
#X floatatom 213 838 5 0 0 0 - - - 0;
#X floatatom 355 836 5 0 0 0 - - - 0;
#X obj 85 103 sel -1000;
#X msg 85 128 -1000;
#X obj 348 223 r \$1-chord-len;
#X obj 223 129 r \$1-scale-len;
#X obj 362 377 array get \$1-chord 0 1;
#X connect 0 0 3 0;
#X connect 1 0 2 0;
#X connect 2 0 6 0;
#X connect 3 0 5 0;
#X connect 5 0 4 0;
#X connect 5 1 55 0;
#X connect 6 0 3 1;
#X connect 7 0 9 0;
#X connect 7 1 8 0;
#X connect 8 0 22 0;
#X connect 9 0 11 0;
#X connect 10 0 4 0;
#X connect 11 0 10 0;
#X connect 12 0 13 0;
#X connect 13 0 14 0;
#X connect 13 1 17 0;
#X connect 14 0 16 0;
#X connect 15 0 16 1;
#X connect 16 0 15 0;
#X connect 16 0 20 0;
#X connect 17 0 16 1;
#X connect 18 1 23 0;
#X connect 19 0 12 0;
#X connect 19 1 18 1;
#X connect 20 1 59 0;
#X connect 21 0 10 1;
#X connect 22 0 21 0;
#X connect 22 1 19 0;
#X connect 23 0 14 1;
#X connect 24 0 27 0;
#X connect 24 1 25 0;
#X connect 25 0 42 0;
#X connect 26 0 25 1;
#X connect 26 0 27 1;
#X connect 26 0 29 1;
#X connect 27 0 29 0;
#X connect 28 0 44 0;
#X connect 29 0 28 0;
#X connect 30 0 31 1;
#X connect 31 0 32 0;
#X connect 32 0 33 0;
#X connect 32 1 36 0;
#X connect 33 0 35 0;
#X connect 34 0 35 1;
#X connect 35 0 34 0;
#X connect 35 0 40 0;
#X connect 36 0 35 1;
#X connect 37 0 38 0;
#X connect 37 0 41 1;
#X connect 38 1 43 0;
#X connect 39 0 31 0;
#X connect 39 1 38 1;
#X connect 40 1 37 0;
#X connect 41 0 28 1;
#X connect 41 0 54 0;
#X connect 42 0 41 0;
#X connect 42 1 39 0;
#X connect 43 0 33 1;
#X connect 44 0 46 0;
#X connect 45 0 24 0;
#X connect 46 0 49 0;
#X connect 46 1 47 0;
#X connect 47 0 51 0;
#X connect 48 0 47 1;
#X connect 48 0 49 1;
#X connect 49 0 52 0;
#X connect 50 0 53 0;
#X connect 51 0 50 1;
#X connect 52 0 50 0;
#X connect 55 0 56 0;
#X connect 55 1 7 0;
#X connect 56 0 4 0;
#X connect 57 0 12 1;
#X connect 58 0 8 1;
#X connect 58 0 9 1;
#X connect 58 0 11 1;
#X connect 59 0 18 0;
#X connect 59 0 21 1;
#X restore 613 337 pd to_chord;
#X f 15;
#X obj 458 307 * 5;
#X obj 980 102 bng 20 250 50 0 empty empty empty 0 -10 0 12 #fcfcfc #000000 #000000;
#X msg 120 462 1 \, 0 1000;
#X obj 28 464 + 62;
#X obj 426 477 clip -8 14;
#X obj 28 115 mod 16;
#X obj 28 230 +;
#X obj 76 211 hradio 20 1 0 8 empty empty empty 0 -10 0 12 #fcfcfc #000000 #000000 0;
#X obj 76 236 * 16;
#X obj 28 71 inlet tick;
#X obj 166 331 r \$1-scale-len;
#X obj 148 385 array get \$1-scale 0 1;
#X obj 711 50 r \$1-chord-len;
#X obj 672 102 array get \$1-chord 0 1;
#X obj 715 190 r \$1-scale-len;
#X obj 697 244 array get \$1-scale 0 1;
#X obj 29 609 outlet~;
#X obj 458 24 inlet;
#X connect 1 0 3 0;
#X connect 2 0 4 0;
#X connect 3 0 2 0;
#X connect 3 1 6 0;
#X connect 3 1 7 0;
#X connect 4 0 5 0;
#X connect 4 0 8 0;
#X connect 5 0 4 1;
#X connect 6 0 4 1;
#X connect 7 0 64 0;
#X connect 8 0 9 0;
#X connect 8 1 26 1;
#X connect 8 1 50 1;
#X connect 9 0 23 0;
#X connect 10 0 12 0;
#X connect 10 1 11 0;
#X connect 11 0 66 0;
#X connect 12 0 31 0;
#X connect 14 0 15 0;
#X connect 15 0 16 0;
#X connect 16 0 51 0;
#X connect 17 0 18 0;
#X connect 18 0 30 0;
#X connect 19 0 20 0;
#X connect 20 0 21 0;
#X connect 21 0 22 1;
#X connect 22 0 25 1;
#X connect 23 0 24 0;
#X connect 23 1 40 0;
#X connect 24 0 25 0;
#X connect 24 1 14 0;
#X connect 25 0 55 0;
#X connect 27 0 28 0;
#X connect 29 0 27 0;
#X connect 30 0 22 0;
#X connect 30 1 19 0;
#X connect 31 0 13 0;
#X connect 32 0 41 0;
#X connect 32 0 42 0;
#X connect 33 0 34 0;
#X connect 34 0 36 0;
#X connect 35 0 67 0;
#X connect 36 0 35 0;
#X connect 37 0 38 0;
#X connect 37 0 38 1;
#X connect 38 0 36 1;
#X connect 39 0 54 0;
#X connect 39 1 53 0;
#X connect 40 0 50 0;
#X connect 41 1 44 0;
#X connect 44 0 46 0;
#X connect 44 1 45 0;
#X connect 45 0 62 0;
#X connect 46 0 48 0;
#X connect 47 0 39 0;
#X connect 47 0 49 0;
#X connect 48 0 47 0;
#X connect 50 0 26 0;
#X connect 51 0 17 0;
#X connect 52 0 43 0;
#X connect 53 0 37 0;
#X connect 54 0 33 0;
#X connect 55 0 9 1;
#X connect 56 0 57 0;
#X connect 57 0 32 0;
#X connect 58 0 59 0;
#X connect 59 0 57 1;
#X connect 60 0 56 0;
#X connect 61 0 45 1;
#X connect 61 0 46 1;
#X connect 62 0 47 1;
#X connect 63 0 7 1;
#X connect 64 0 9 1;
#X connect 65 0 11 1;
#X connect 65 0 12 1;
#X connect 66 0 13 1;
#X connect 68 0 1 0;
