#N canvas 193 274 790 701 12;
#X declare -lib pof;
#X obj 36 16 declare -lib pof;
#N canvas 735 420 450 300 window 0;
#X obj 78 70 pofwin;
#X listbox 100 122 20 0 0 0 - - - 0;
#X obj 41 32 bng 20 250 50 0 empty empty empty 0 -10 0 12 #fcfcfc #000000 #000000;
#X obj 78 95 route window;
#X obj 78 148 spigot 1;
#X msg 78 173 0;
#X obj 119 174 b;
#X obj 119 199 del 200;
#X msg 212 75 framerate 60;
#X msg 78 42 window 600 600 0 \, framerate 60;
#X connect 0 0 3 0;
#X connect 2 0 0 0;
#X connect 3 0 1 0;
#X connect 3 0 4 0;
#X connect 4 0 5 0;
#X connect 4 0 6 0;
#X connect 5 0 4 1;
#X connect 6 0 7 0;
#X connect 7 0 9 0;
#X connect 8 0 0 0;
#X connect 9 0 0 0;
#X restore 164 17 pd window;
#X obj 39 54 pofhead;
#X obj 39 142 s \$0-points;
#X obj 116 82 s \$0-points-update;
#X obj 309 163 pofcirc 500;
#X obj 309 138 pofcolor 1 1 1 0.1;
#X obj 39 113 t a a a, f 39;
#X obj 174 310 poftranslate;
#X obj 174 534 pofcirc 20;
#X obj 199 161 unpack f f, f 11;
#X obj 199 186 / 360;
#X obj 199 211 * 6.283;
#X obj 199 236 t f f;
#X obj 199 261 cos;
#X obj 199 286 *;
#X obj 230 286 *;
#X obj 230 262 sin;
#X obj 273 212 * 240;
#X obj 431 10 clone pofpoint 212 \$0-points 8 212 250 pixelsRGB;
#X obj 296 15 r \$1-from_emul;
#X obj 39 82 pofbang 1;
#X obj 296 45 spigot 1;
#X obj 420 382 / 255;
#X obj 213 383 / 255;
#X obj 281 385 / 255;
#X obj 350 383 / 255;
#X obj 213 481 sqrt;
#X obj 281 483 sqrt;
#X obj 350 482 sqrt;
#X listbox 443 278 20 0 0 0 - - - 0;
#X obj 296 74 route proj_goto proj_col proj_dim;
#X obj 213 429 +;
#X obj 213 455 clip 0 1;
#X obj 281 431 +;
#X obj 281 457 clip 0 1;
#X obj 350 429 +;
#X obj 350 455 clip 0 1;
#X obj 174 508 pofcolor 1 1 1 1, f 31;
#X obj 475 378 / 255;
#X obj 213 358 unpack f f f f, f 30;
#X floatatom 484 174 5 0 0 0 - - - 0;
#X connect 2 0 21 0;
#X connect 6 0 5 0;
#X connect 7 0 3 0;
#X connect 7 1 8 0;
#X connect 7 2 6 0;
#X connect 8 0 38 0;
#X connect 10 0 11 0;
#X connect 10 1 18 0;
#X connect 11 0 12 0;
#X connect 12 0 13 0;
#X connect 13 0 14 0;
#X connect 13 1 17 0;
#X connect 14 0 15 0;
#X connect 15 0 8 1;
#X connect 16 0 8 2;
#X connect 17 0 16 0;
#X connect 18 0 15 1;
#X connect 18 0 16 1;
#X connect 20 0 22 0;
#X connect 21 0 7 0;
#X connect 21 1 4 0;
#X connect 22 0 31 0;
#X connect 23 0 32 1;
#X connect 23 0 34 1;
#X connect 23 0 36 1;
#X connect 24 0 32 0;
#X connect 25 0 34 0;
#X connect 26 0 36 0;
#X connect 27 0 38 1;
#X connect 28 0 38 2;
#X connect 29 0 38 3;
#X connect 31 0 10 0;
#X connect 31 1 30 0;
#X connect 31 1 40 0;
#X connect 31 2 39 0;
#X connect 31 2 41 0;
#X connect 32 0 33 0;
#X connect 33 0 27 0;
#X connect 34 0 35 0;
#X connect 35 0 28 0;
#X connect 36 0 37 0;
#X connect 37 0 29 0;
#X connect 38 0 9 0;
#X connect 39 0 38 4;
#X connect 40 0 24 0;
#X connect 40 1 25 0;
#X connect 40 2 26 0;
#X connect 40 3 23 0;
