#N canvas 84 204 761 647 12;
#X declare -lib pdlua -path ..;
#X declare -path ../pofgui;
#X msg 539 35 \; pd dsp 1;
#X obj 539 8 loadbang;
#X obj 10 123 tgl 20 0 empty empty empty 0 -10 0 12 #fcfcfc #000000 #000000 0 1;
#X msg 92 49 start;
#X msg 141 49 stop;
#X obj 10 96 loadbang;
#X obj 301 100 list prepend players;
#X obj 301 175 list trim;
#X msg 301 48 50;
#X msg 337 49 50 150;
#X msg 395 50 bang;
#X msg 32 49 prepare;
#X floatatom 452 44 5 0 0 0 - - - 0;
#X obj 452 68 t f f, f 9;
#X obj 452 93 + 180;
#X obj 452 141 pack f f;
#X msg 518 93 120;
#X obj 452 117 mod 360;
#X obj 508 118 mod 360;
#X obj 88 236 pongaremul;
#X obj 87 548 dac~;
#X obj 186 31 tgl 20 0 empty empty empty 0 -10 0 12 #fcfcfc #000000 #000000 0 1;
#X obj 127 488 pow 2;
#X obj 88 513 *~ 0.1;
#X obj 10 148 metro 10;
#X obj 107 375 WavPlayer, f 19;
#X msg 237 400 wav_playing \$1;
#X msg 173 347 silence \$1;
#X obj 107 320 route say saysilence sayclear;
#X obj 237 425 s \$0-to_emul;
#X obj 125 204 r \$0-to_emul;
#X obj 107 294 r \$0-from_emul;
#X obj 155 263 s \$0-from_emul;
#X listbox 452 191 20 0 0 0 - - - 0;
#X obj 523 142 tgl 20 0 empty empty empty 0 -10 0 12 #fcfcfc #000000 #000000 0 1;
#N canvas 1373 60 450 405 swap/omit 0;
#X obj 37 11 inlet;
#X obj 37 101 list prepend 0;
#X obj 37 126 route 0 1, f 15;
#X msg 37 151 \$1 \$2;
#X msg 88 151 \$2 \$1;
#X obj 37 65 list, f 5;
#X obj 37 39 t b a;
#X obj 100 10 inlet;
#X obj 100 35 t b f;
#X obj 37 350 outlet;
#X obj 37 176 t b a b, f 17;
#X obj 95 203 unpack f f;
#X obj 95 228 spigot 1;
#X obj 162 227 spigot 1;
#X obj 37 284 list store, f 25;
#X obj 198 8 inlet;
#X obj 198 33 t b f;
#X obj 267 7 inlet;
#X obj 267 32 t b f;
#X obj 100 63 b;
#X obj 189 131 == 0;
#X obj 257 130 == 0;
#X msg 95 254 prepend \$1;
#X connect 0 0 6 0;
#X connect 1 0 2 0;
#X connect 2 0 3 0;
#X connect 2 1 4 0;
#X connect 3 0 10 0;
#X connect 4 0 10 0;
#X connect 5 0 1 0;
#X connect 6 0 5 0;
#X connect 6 1 5 1;
#X connect 7 0 8 0;
#X connect 8 0 19 0;
#X connect 8 1 1 1;
#X connect 10 0 14 0;
#X connect 10 1 11 0;
#X connect 10 2 14 1;
#X connect 11 0 12 0;
#X connect 11 1 13 0;
#X connect 12 0 22 0;
#X connect 13 0 22 0;
#X connect 14 0 9 0;
#X connect 15 0 16 0;
#X connect 16 0 19 0;
#X connect 16 1 20 0;
#X connect 17 0 18 0;
#X connect 18 0 19 0;
#X connect 18 1 21 0;
#X connect 19 0 5 0;
#X connect 20 0 12 1;
#X connect 21 0 13 1;
#X connect 22 0 14 0;
#X restore 452 166 pd swap/omit;
#X f 21;
#X obj 555 141 tgl 20 0 empty empty empty 0 -10 0 12 #fcfcfc #000000 #000000 0 1;
#X obj 600 140 tgl 20 0 empty empty empty 0 -10 0 12 #fcfcfc #000000 #000000 0 1;
#X obj 421 195 bng 20 250 50 0 empty empty empty 0 -10 0 12 #fcfcfc #000000 #000000;
#X obj 301 125 t b a;
#X obj 301 150 list, f 5;
#X msg 350 7 0 60 120 180 240;
#N canvas 735 420 450 300 pixels 0;
#X obj 43 194 s pixelsRGB;
#X obj 43 40 table pixelsRGB 636;
#X obj 43 94 route pixel;
#X obj 43 119 list split 1;
#X obj 43 144 * 3;
#X obj 43 169 list append;
#N canvas 735 420 450 300 sqrt 0;
#X obj 51 16 inlet;
#X obj 51 41 unpack f f f, f 18;
#X obj 51 91 pow 0.2;
#X obj 51 66 / 255;
#X obj 51 116 * 255;
#X obj 51 141 pack f f f, f 18;
#X obj 51 166 outlet;
#X obj 112 91 pow 0.2;
#X obj 112 66 / 255;
#X obj 112 116 * 255;
#X obj 174 91 pow 0.2;
#X obj 174 66 / 255;
#X obj 174 116 * 255;
#X obj 257 43 f;
#X msg 256 14 0.5;
#X connect 0 0 1 0;
#X connect 1 0 3 0;
#X connect 1 1 8 0;
#X connect 1 2 11 0;
#X connect 2 0 4 0;
#X connect 3 0 2 0;
#X connect 4 0 5 0;
#X connect 5 0 6 0;
#X connect 7 0 9 0;
#X connect 8 0 7 0;
#X connect 9 0 5 1;
#X connect 10 0 12 0;
#X connect 11 0 10 0;
#X connect 12 0 5 2;
#X connect 13 0 10 1;
#X connect 13 0 7 1;
#X connect 13 0 2 1;
#X connect 14 0 13 0;
#X restore 83 144 pd sqrt;
#X obj 43 69 r \$0-from_emul;
#X connect 2 0 3 0;
#X connect 3 0 4 0;
#X connect 3 1 6 0;
#X connect 4 0 5 0;
#X connect 5 0 0 0;
#X connect 6 0 5 1;
#X connect 7 0 2 0;
#X restore 379 322 pd pixels;
#N canvas 601 239 946 543 old_pdlua_interface 0;
#X msg 151 175 pos \$1 \$2;
#X obj 193 205 bng 20 250 50 0 empty empty empty 0 -10 0 12 #fcfcfc #000000 #000000;
#X obj 283 142 spigot;
#X obj 336 142 tgl 20 0 empty empty empty 0 -10 0 12 #fcfcfc #000000 #000000 0 1;
#X obj 152 281 s gameGui;
#X obj 151 235 t a;
#X obj 152 258 spigot;
#X obj 189 231 tgl 20 0 empty empty empty 0 -10 0 12 #fcfcfc #000000 #000000 0 1;
#X obj 151 121 route proj_goto;
#X obj 283 91 r \$0-to_emul;
#X obj 283 116 route players;
#X obj 151 93 r \$0-from_emul;
#X obj 314 215 timer;
#X obj 314 187 t b b;
#X floatatom 314 240 5 0 0 0 - - - 0;
#X obj 314 264 zexy/mavg 20;
#X floatatom 314 289 5 0 0 0 - - - 0;
#X obj 48 101 inlet;
#X obj 39 17 declare -lib pdlua -path ..;
#X obj 447 22 pongarGui gameGui;
#X msg 41 43 \; pdluax reload;
#X connect 0 0 5 0;
#X connect 1 0 5 0;
#X connect 2 0 5 0;
#X connect 3 0 2 1;
#X connect 5 0 6 0;
#X connect 6 0 4 0;
#X connect 7 0 6 1;
#X connect 8 0 0 0;
#X connect 8 0 13 0;
#X connect 9 0 10 0;
#X connect 10 0 2 0;
#X connect 11 0 8 0;
#X connect 12 0 14 0;
#X connect 13 0 12 0;
#X connect 13 1 12 1;
#X connect 14 0 15 0;
#X connect 15 0 16 0;
#X connect 17 0 6 0;
#X restore 10 178 pd old_pdlua_interface;
#X obj 301 201 s \$0-to_emul;
#X obj 130 464 hsl 170 20 0 1 0 1 empty empty empty 0 -9 0 12 #fcfcfc #000000 #000000 9600 1;
#N canvas 1187 144 806 858 lidar 1;
#X obj 14 8 table \$0-lidar 360;
#X obj 13 163 symbol \$0-lidar;
#X msg 13 188 lidar \$1;
#X obj 13 213 s \$0-to_emul;
#X obj 13 108 bng 20 250 50 0 empty empty empty 0 -10 0 12 #fcfcfc #000000 #000000;
#X obj 13 40 tgl 20 0 empty empty empty 0 -10 0 12 #fcfcfc #000000 #000000 0 1;
#X floatatom 82 291 5 0 0 0 - - - 0;
#X obj 82 437 array set \$0-lidar, f 25;
#X obj 82 358 t a a, f 15;
#X obj 184 383 unpack f;
#N canvas 1039 667 295 298 fill 0;
#X obj 56 24 inlet;
#X obj 56 52 t b f;
#X obj 88 76 change;
#X obj 88 101 t f b, f 7;
#X obj 88 126 until;
#X obj 56 206 list store, f 12;
#X obj 56 231 outlet;
#X msg 88 177 append \$1;
#X obj 88 152 f 1000;
#X connect 0 0 1 0;
#X connect 1 0 5 0;
#X connect 1 1 2 0;
#X connect 2 0 3 0;
#X connect 3 0 4 0;
#X connect 3 1 5 1;
#X connect 4 0 8 0;
#X connect 5 0 6 0;
#X connect 7 0 5 0;
#X connect 8 0 7 0;
#X restore 82 413 pd fill;
#X floatatom 721 455 5 0 0 0 - - - 0;
#X obj 13 136 t b b b, f 21;
#X msg 157 160 const 12000;
#X obj 157 185 s \$0-lidar;
#X obj 113 214 s \$0-lidar_compute;
#X obj 703 426 r \$0-lidar_compute;
#X obj 82 383 list split 1;
#X obj 82 325 pack f 30 1200;
#X text 888 487 two objects. args:;
#X text 900 504 1: position in deg 2: size each in mm 3: distbetween in mm 4: distance in mm, f 20;
#X obj 703 592 cmtodeg;
#X obj 703 561 unpack f f f f, f 23;
#X msg 703 535 \$2 \$3 \$4 \$1;
#X obj 768 593 cmtodeg;
#X floatatom 865 595 5 0 0 0 - - - 0;
#X obj 788 658 +;
#X obj 703 656 t f f;
#X obj 735 685 pack f f;
#X obj 703 716 pack f f, f 15;
#X obj 846 420 hsl 170 20 0 2000 0 0 empty empty empty -2 -10 0 12 #fcfcfc #000000 #000000 0 1;
#X floatatom 858 449 9 0 0 0 - - - 0;
#X obj 834 656 +;
#X obj 788 632 * 0.5;
#X obj 834 626 * -0.5;
#X msg 173 36 bounds 0 8000 360 0;
#X obj 173 61 s \$0-lidar;
#X obj 126 190 bng 20 250 50 0 empty empty empty 0 -10 0 12 #fcfcfc #000000 #000000;
#X obj 173 10 loadbang;
#X floatatom 762 466 5 0 0 0 - - - 0;
#X floatatom 807 465 5 0 0 0 - - - 0;
#X obj 703 751 list append 0;
#N canvas 699 449 450 332 fill_min 0;
#X obj 53 28 inlet;
#X text 99 31 width start dist;
#X obj 53 53 unpack f f f, f 26;
#X obj 53 78 t f b;
#X obj 53 103 until;
#X obj 53 128 i;
#X obj 87 127 + 1;
#X msg 97 103 0;
#X obj 53 153 +, f 13;
#X obj 53 206 t f f, f 17;
#X obj 53 259 min, f 26;
#X obj 53 285 tabwrite \$0-lidar;
#X obj 53 235 tabread \$0-lidar;
#X obj 53 180 mod 360;
#X connect 0 0 2 0;
#X connect 2 0 3 0;
#X connect 2 1 8 1;
#X connect 2 2 10 1;
#X connect 3 0 4 0;
#X connect 3 1 7 0;
#X connect 4 0 5 0;
#X connect 5 0 6 0;
#X connect 5 0 8 0;
#X connect 6 0 5 1;
#X connect 7 0 5 1;
#X connect 8 0 13 0;
#X connect 9 0 12 0;
#X connect 9 1 11 1;
#X connect 10 0 11 0;
#X connect 12 0 10 0;
#X connect 13 0 9 0;
#X restore 320 401 pd fill_min;
#X obj 371 211 cmtodeg, f 8;
#X obj 320 180 unpack f f f, f 15;
#X floatatom 338 46 5 0 0 0 - - - 0;
#X obj 320 17 r \$0-lidar_compute;
#X obj 463 11 hsl 170 20 0 2000 0 0 empty empty empty -2 -10 0 12 #fcfcfc #000000 #000000 0 1;
#X floatatom 475 40 9 0 0 0 - - - 0;
#X floatatom 379 57 5 0 0 0 - - - 0;
#X floatatom 424 56 5 0 0 0 - - - 0;
#X obj 320 241 pack f f f, f 15;
#X listbox 320 266 20 0 0 0 - - - 0;
#X msg 320 294 \$2 \$1 \$3;
#X obj 320 72 f 120;
#X obj 703 511 pack 120 150 350 800;
#X obj 320 153 pack 120 150 570;
#X obj 1028 421 tgl 20 0 empty empty empty 0 -10 0 12 #fcfcfc #000000 #000000 0 1;
#X obj 500 66 tgl 20 0 empty empty empty 0 -10 0 12 #fcfcfc #000000 #000000 0 1;
#X obj 500 116 + 570;
#X obj 1028 471 + 570;
#X obj 1028 446 * 250;
#X obj 500 91 * 250;
#X msg 88 41 50;
#X msg 124 41 200;
#X floatatom 88 66 5 0 0 0 - - - 0;
#X msg 362 340 -20;
#X msg 402 341 6;
#X msg 440 338 -6;
#X obj 703 481 f 60;
#X obj 45 555 text define \$0-masked_record;
#X msg 45 528 read ../masked_record.txt;
#X obj 353 591 text size \$0-masked_record;
#X floatatom 353 616 5 0 0 0 - - - 0;
#X obj 353 564 bng 20 250 50 0 empty empty empty 0 -10 0 12 #fcfcfc #000000 #000000;
#X obj 276 591 metro 100;
#X obj 276 616 i;
#X obj 314 617 + 1;
#X obj 314 642 mod 50;
#X obj 276 521 tgl 20 0 empty empty empty 0 -10 0 12 #fcfcfc #000000 #000000 0 1;
#X floatatom 232 621 5 0 0 0 - - - 0;
#X obj 308 681 text get \$0-masked_record 0 360;
#X obj 276 556 t f b, f 9;
#X obj 308 710 array set \$0-lidar 0;
#X obj 276 656 t b f;
#X obj 276 736 symbol \$0-lidar;
#X msg 276 761 lidar \$1;
#X obj 276 786 s \$0-to_emul;
#X obj 45 498 loadbang;
#X obj 369 511 tgl 20 0 empty empty empty 0 -10 0 12 #fcfcfc #000000 #000000 0 1;
#X obj 251 588 bng 20 250 50 0 empty empty empty 0 -10 0 12 #fcfcfc #000000 #000000;
#X obj 170 98 bng 20 250 50 0 empty empty empty 0 -10 0 12 #fcfcfc #000000 #000000;
#X obj 170 125 t b b;
#X obj 117 99 sel 0;
#X obj 13 71 metro 50;
#X obj 54 672 timer, f 13;
#X floatatom 54 697 10 0 0 0 - - - 0;
#X obj 110 632 bng 20 250 50 0 empty empty empty 0 -10 0 12 #fcfcfc #000000 #000000;
#X obj 54 630 bng 20 250 50 0 empty empty empty 0 -10 0 12 #fcfcfc #000000 #000000;
#X floatatom 97 794 10 0 0 0 - - - 0;
#X msg 50 750 29;
#X msg 95 754 26;
#X msg 163 753 23;
#X obj 540 200 r \$0-from_emul;
#X listbox 607 280 27 0 0 0 - - - 0;
#X obj 540 251 route bang;
#X msg 540 276 symbol;
#X obj 607 304 bng 20 250 50 0 empty empty empty 0 -10 0 12 #fcfcfc #000000 #000000;
#X obj 540 225 route fobjects fplayers;
#X listbox 608 366 27 0 0 0 - - - 0;
#X obj 541 337 route bang;
#X msg 541 362 symbol;
#X obj 608 390 bng 20 250 50 0 empty empty empty 0 -10 0 12 #fcfcfc #000000 #000000;
#X obj 585 45 t b f, f 10;
#X obj 585 95 moses, f 8;
#X obj 585 169 +, f 10;
#X obj 666 45 hradio 20 1 0 6 empty empty empty 0 -10 0 12 #fcfcfc #000000 #000000 0;
#X obj 585 120 + 1;
#X msg 585 70 0 \, 1 \, 2 \, 3 \, 4;
#X obj 585 144 * 60;
#X connect 1 0 2 0;
#X connect 2 0 3 0;
#X connect 4 0 12 0;
#X connect 5 0 93 0;
#X connect 5 0 94 0;
#X connect 6 0 18 0;
#X connect 8 0 17 0;
#X connect 8 1 9 0;
#X connect 9 0 7 1;
#X connect 10 0 7 0;
#X connect 11 0 69 1;
#X connect 12 0 1 0;
#X connect 12 1 15 0;
#X connect 12 2 13 0;
#X connect 13 0 14 0;
#X connect 17 1 10 0;
#X connect 18 0 8 0;
#X connect 21 0 27 0;
#X connect 22 0 21 0;
#X connect 22 1 24 0;
#X connect 22 2 21 1;
#X connect 22 2 24 1;
#X connect 22 2 41 1;
#X connect 22 3 25 0;
#X connect 22 3 26 1;
#X connect 22 3 32 1;
#X connect 23 0 22 0;
#X connect 24 0 33 0;
#X connect 24 0 34 0;
#X connect 26 0 28 1;
#X connect 27 0 29 0;
#X connect 27 1 28 0;
#X connect 28 0 41 0;
#X connect 29 0 41 0;
#X connect 30 0 31 0;
#X connect 30 0 55 3;
#X connect 32 0 29 1;
#X connect 33 0 26 0;
#X connect 34 0 32 0;
#X connect 35 0 36 0;
#X connect 37 0 15 0;
#X connect 38 0 35 0;
#X connect 39 0 55 1;
#X connect 40 0 55 2;
#X connect 41 0 42 0;
#X connect 43 0 51 1;
#X connect 44 0 51 0;
#X connect 44 1 43 0;
#X connect 44 2 43 1;
#X connect 44 2 51 2;
#X connect 45 0 54 1;
#X connect 46 0 54 0;
#X connect 47 0 48 0;
#X connect 47 0 56 2;
#X connect 49 0 56 1;
#X connect 50 0 56 2;
#X connect 51 0 52 0;
#X connect 52 0 53 0;
#X connect 53 0 42 0;
#X connect 54 0 56 0;
#X connect 54 0 113 0;
#X connect 55 0 23 0;
#X connect 56 0 44 0;
#X connect 57 0 61 0;
#X connect 58 0 62 0;
#X connect 59 0 47 0;
#X connect 60 0 30 0;
#X connect 61 0 60 0;
#X connect 62 0 59 0;
#X connect 63 0 65 0;
#X connect 64 0 65 0;
#X connect 65 0 94 1;
#X connect 66 0 45 0;
#X connect 67 0 45 0;
#X connect 68 0 45 0;
#X connect 69 0 55 0;
#X connect 71 0 70 0;
#X connect 72 0 73 0;
#X connect 73 0 78 1;
#X connect 74 0 72 0;
#X connect 75 0 76 0;
#X connect 76 0 77 0;
#X connect 76 0 80 0;
#X connect 76 0 84 0;
#X connect 77 0 78 0;
#X connect 78 0 76 1;
#X connect 79 0 82 0;
#X connect 81 0 83 0;
#X connect 82 0 75 0;
#X connect 82 1 72 0;
#X connect 84 0 85 0;
#X connect 84 1 81 0;
#X connect 85 0 86 0;
#X connect 86 0 87 0;
#X connect 88 0 71 0;
#X connect 89 0 77 1;
#X connect 90 0 76 0;
#X connect 91 0 92 0;
#X connect 92 0 1 0;
#X connect 92 1 13 0;
#X connect 93 0 91 0;
#X connect 94 0 4 0;
#X connect 95 0 96 0;
#X connect 97 0 95 1;
#X connect 98 0 95 0;
#X connect 103 0 108 0;
#X connect 104 0 107 0;
#X connect 105 0 106 0;
#X connect 105 1 104 0;
#X connect 106 0 104 0;
#X connect 108 0 105 0;
#X connect 108 1 110 0;
#X connect 109 0 112 0;
#X connect 110 0 111 0;
#X connect 110 1 109 0;
#X connect 111 0 109 0;
#X connect 113 0 118 0;
#X connect 113 1 115 1;
#X connect 114 0 117 0;
#X connect 115 0 56 0;
#X connect 116 0 114 1;
#X connect 117 0 119 0;
#X connect 118 0 114 0;
#X connect 119 0 115 0;
#X restore 377 353 pd lidar;
#X obj 46 253 bng 20 250 50 0 empty empty empty 0 -10 0 12 #fcfcfc #000000 #000000;
#X obj 212 150 spigot;
#X obj 252 124 tgl 20 0 empty empty empty 0 -10 0 12 #fcfcfc #000000 #000000 0 1;
#X obj 338 256 declare -path ../pofgui;
#X obj 509 256 pofGui \$0-from_emul;
#N canvas 0 0 450 332 scope 0;
#X obj 37 19 inlet~;
#N canvas 0 50 450 250 (subpatch) 0;
#X array \$0-scope 256 float 0;
#X coords 0 1 255 -1 372 191 1 0 0;
#X restore 39 111 graph;
#X obj 38 66 tabwrite~ \$0-scope;
#X obj 103 17 tgl 20 0 empty empty empty 0 -10 0 12 #fcfcfc #000000 #000000 0 1;
#X obj 103 42 metro 50;
#X obj 37 43 *~ 1;
#X connect 0 0 5 0;
#X connect 3 0 4 0;
#X connect 4 0 2 0;
#X connect 5 0 2 0;
#X restore 42 586 pd scope;
#N canvas 0 0 755 432 update_words 0;
#X obj 108 170 s \$0-to_emul;
#X msg 108 144 get_words;
#X obj 252 119 r \$0-from_emul;
#X obj 252 144 route word;
#X obj 22 228 text define \$0-words;
#X msg 194 144 clear;
#X obj 22 119 t a b b, f 25;
#X obj 252 169 text insert \$0-words 1e+06;
#X obj 22 79 bng 20 250 50 0 empty empty update_words 0 -10 0 12 #faff00 #000000 #000000;
#X msg 22 146 dir;
#X obj 22 171 pdcontrol;
#X msg 22 196 write \$1/words.txt;
#X obj 22 28 inlet;
#X msg 235 217 dir;
#X obj 235 242 pdcontrol;
#X obj 235 293 ggee/shell;
#X msg 235 267 nohup \$1/../wavs_info.sh \$1/../wavs > \$1/../wavs_dur_table.txt, f 62;
#X obj 162 324 del 2000;
#X msg 162 349 reload_words_duration;
#X obj 162 375 s \$0-to_emul;
#X connect 1 0 0 0;
#X connect 2 0 3 0;
#X connect 3 0 7 0;
#X connect 5 0 4 0;
#X connect 6 0 9 0;
#X connect 6 1 1 0;
#X connect 6 2 5 0;
#X connect 6 2 13 0;
#X connect 6 2 17 0;
#X connect 8 0 6 0;
#X connect 9 0 10 0;
#X connect 10 0 11 0;
#X connect 11 0 4 0;
#X connect 12 0 8 0;
#X connect 13 0 14 0;
#X connect 14 0 16 0;
#X connect 16 0 15 0;
#X connect 17 0 18 0;
#X connect 18 0 19 0;
#X restore 628 55 pd update_words;
#X obj 628 32 bng 20 250 50 0 empty empty update_words 0 -10 0 12 #faff00 #000000 #000000;
#N canvas 263 672 1049 300 test_say 0;
#X obj 123 204 s \$0-to_emul;
#X msg 123 166 saynumber \$1;
#X msg 123 136 1;
#X msg 170 135 20;
#X msg 209 135 25;
#X msg 248 134 51;
#X msg 322 130 511;
#X msg 396 128 1511;
#X floatatom 155 51 5 0 0 0 - - - 0;
#X obj 140 84 f;
#X obj 121 58 bng 20 250 50 0 empty empty empty 0 -10 0 12 #fcfcfc #000000 #000000;
#X msg 78 135 0;
#X msg 281 131 100;
#X msg 354 130 1000;
#X msg 437 129 181747;
#X msg 264 202 340;
#X msg 241 245 71;
#X msg 279 243 91;
#X msg 332 222 71591;
#X obj 531 220 s \$0-to_emul;
#X msg 531 152 1;
#X msg 578 151 20;
#X floatatom 563 67 5 0 0 0 - - - 0;
#X obj 548 100 f;
#X obj 529 74 bng 20 250 50 0 empty empty empty 0 -10 0 12 #fcfcfc #000000 #000000;
#X msg 629 144 15.235;
#X msg 531 182 say_hundredths \$1;
#X obj 729 229 s \$0-to_emul;
#X msg 729 161 1;
#X msg 776 160 20;
#X msg 827 153 15.235;
#X msg 729 94 1.23457e+07;
#X msg 729 191 say_time \$1;
#X msg 833 92 123456;
#X msg 672 15 21;
#X obj 672 40 * 60;
#X obj 672 89 * 1000;
#X obj 672 65 + 0;
#X msg 851 57 150;
#X obj 672 113 + 250;
#N canvas 486 515 359 336 test-words 0;
#X obj 100 234 s \$0-to_emul;
#X msg 100 196 testwords \$1;
#X msg 100 155 0;
#X msg 144 155 101;
#X floatatom 129 99 5 0 255 0 - - - 0;
#X msg 185 155 107;
#X connect 1 0 0 0;
#X connect 2 0 1 0;
#X connect 3 0 1 0;
#X connect 4 0 1 0;
#X connect 5 0 1 0;
#X restore 946 60 pd test-words;
#X connect 1 0 0 0;
#X connect 2 0 1 0;
#X connect 3 0 1 0;
#X connect 4 0 1 0;
#X connect 5 0 1 0;
#X connect 6 0 1 0;
#X connect 7 0 1 0;
#X connect 8 0 9 1;
#X connect 9 0 1 0;
#X connect 10 0 9 0;
#X connect 11 0 1 0;
#X connect 12 0 1 0;
#X connect 13 0 1 0;
#X connect 14 0 1 0;
#X connect 15 0 1 0;
#X connect 16 0 1 0;
#X connect 17 0 1 0;
#X connect 18 0 1 0;
#X connect 20 0 26 0;
#X connect 21 0 26 0;
#X connect 22 0 23 1;
#X connect 23 0 26 0;
#X connect 24 0 23 0;
#X connect 25 0 26 0;
#X connect 26 0 19 0;
#X connect 28 0 32 0;
#X connect 29 0 32 0;
#X connect 30 0 32 0;
#X connect 31 0 32 0;
#X connect 32 0 27 0;
#X connect 33 0 32 0;
#X connect 34 0 35 0;
#X connect 35 0 37 0;
#X connect 36 0 39 0;
#X connect 37 0 36 0;
#X connect 38 0 32 0;
#X connect 39 0 32 0;
#X restore 247 542 pd test_say;
#N canvas 80 141 256 311 ringmod 0;
#X obj 51 23 inlet~;
#X obj 51 273 outlet~;
#X obj 50 174 *~;
#X obj 50 232 cyclone/atan~;
#X obj 134 183 cyclone/atan~;
#X obj 132 34 osc~ 30;
#X obj 136 125 *~ 4;
#X obj 49 205 *~ 4;
#X obj 66 113 *~ 10;
#X obj 66 84 bp~ 3500 10;
#X obj 51 53 hip~ 300;
#X connect 0 0 10 0;
#X connect 2 0 7 0;
#X connect 3 0 1 0;
#X connect 5 0 2 1;
#X connect 6 0 4 0;
#X connect 7 0 3 0;
#X connect 8 0 2 0;
#X connect 9 0 8 0;
#X connect 10 0 9 0;
#X connect 10 0 2 0;
#X restore 123 416 pd ringmod;
#N canvas 648 107 348 300 tests_prelim_audio 0;
#N canvas 149 207 631 611 buzzer 0;
#X obj 44 45 hip~ 500;
#X obj 83 74 noise~;
#X obj 79 547 *~;
#X obj 105 514 pow 2;
#X obj 108 490 hsl 170 20 0 1 0 1 empty empty empty 0 -9 0 12 #fcfcfc #000000 #000000 6700 1;
#X obj 79 572 dac~;
#X obj 228 71 t b b;
#X obj 228 96 del 200;
#X msg 228 121 0;
#X msg 261 121 1;
#X obj 228 146 tgl 20 0 empty empty empty 0 -10 0 12 #fcfcfc #000000 #000000 0 1;
#X obj 227 7 tgl 20 0 empty empty empty 0 -10 0 12 #fcfcfc #000000 #000000 0 1;
#X obj 44 20 phasor~ 100;
#X obj 79 426 *~ 1, f 6;
#X obj 44 167 *~ 0;
#X obj 228 46 metro 1500;
#X obj 44 106 *~;
#X obj 82 102 +~ 1;
#X obj 173 27 bng 20 250 50 0 empty empty empty 0 -10 0 12 #fcfcfc #000000 #000000;
#N canvas 735 420 450 365 mode 0;
#X obj 20 130 inlet~;
#X obj 20 211 bp~, f 22;
#X obj 20 252 *~;
#X obj 110 131 nbx 5 18 0 128 0 1 empty empty midi 0 -10 0 12 #00faff #000000 #000000 73.5105 256;
#X obj 110 169 nbx 5 18 0 18000 0 0 empty empty empty 0 -10 0 12 #fcfcfc #000000 #000000 0 256;
#X obj 51 162 mtof;
#X obj 183 131 nbx 5 18 0 18000 0 1 empty empty q 0 -10 0 12 #faff00 #000000 #000000 209 256;
#X obj 110 169 nbx 5 18 0 18000 0 0 empty empty hz 0 -10 0 12 #fcfcfc #000000 #000000 0 256;
#X obj 185 169 hsl 80 20 0 1 0 1 empty empty empty -2 -10 0 12 #ff0400 #000000 #000000 4200 1;
#X obj 20 277 outlet~;
#X obj 115 265 *;
#X obj 145 264 t b f;
#X obj 182 216 pow 2;
#X connect 0 0 1 0;
#X connect 1 0 2 0;
#X connect 2 0 9 0;
#X connect 3 0 5 0;
#X connect 5 0 7 0;
#X connect 6 0 1 2;
#X connect 6 0 10 0;
#X connect 7 0 1 1;
#X connect 8 0 12 0;
#X connect 10 0 2 1;
#X connect 11 0 10 0;
#X connect 11 1 10 1;
#X connect 12 0 11 0;
#X coords 0 -1 1 1 170 90 1 100 100;
#X restore 59 260 pd mode;
#N canvas 735 420 450 365 mode 0;
#X obj 20 130 inlet~;
#X obj 20 211 bp~, f 22;
#X obj 20 252 *~;
#X obj 110 131 nbx 5 18 0 128 0 1 empty empty midi 0 -10 0 12 #00faff #000000 #000000 80.0105 256;
#X obj 110 169 nbx 5 18 0 18000 0 0 empty empty empty 0 -10 0 12 #fcfcfc #000000 #000000 0 256;
#X obj 51 162 mtof;
#X obj 183 131 nbx 5 18 0 18000 0 1 empty empty q 0 -10 0 12 #faff00 #000000 #000000 280 256;
#X obj 110 169 nbx 5 18 0 18000 0 0 empty empty hz 0 -10 0 12 #fcfcfc #000000 #000000 0 256;
#X obj 185 169 hsl 80 20 0 1 0 1 empty empty empty -2 -10 0 12 #ff0400 #000000 #000000 5200 1;
#X obj 20 277 outlet~;
#X obj 115 265 *;
#X obj 145 264 t b f;
#X obj 182 216 pow 2;
#X connect 0 0 1 0;
#X connect 1 0 2 0;
#X connect 2 0 9 0;
#X connect 3 0 5 0;
#X connect 5 0 7 0;
#X connect 6 0 1 2;
#X connect 6 0 10 0;
#X connect 7 0 1 1;
#X connect 8 0 12 0;
#X connect 10 0 2 1;
#X connect 11 0 10 0;
#X connect 11 1 10 1;
#X connect 12 0 11 0;
#X coords 0 -1 1 1 170 90 1 100 100;
#X restore 244 262 pd mode;
#N canvas 735 420 450 365 mode 0;
#X obj 20 130 inlet~;
#X obj 20 211 bp~, f 22;
#X obj 20 252 *~;
#X obj 110 131 nbx 5 18 0 128 0 1 empty empty midi 0 -10 0 12 #00faff #000000 #000000 93.5706 256;
#X obj 110 169 nbx 5 18 0 18000 0 0 empty empty empty 0 -10 0 12 #fcfcfc #000000 #000000 0 256;
#X obj 51 162 mtof;
#X obj 183 131 nbx 5 18 0 18000 0 1 empty empty q 0 -10 0 12 #faff00 #000000 #000000 147 256;
#X obj 110 169 nbx 5 18 0 18000 0 0 empty empty hz 0 -10 0 12 #fcfcfc #000000 #000000 0 256;
#X obj 185 169 hsl 80 20 0 1 0 1 empty empty empty -2 -10 0 12 #ff0400 #000000 #000000 5900 1;
#X obj 20 277 outlet~;
#X obj 115 265 *;
#X obj 145 264 t b f;
#X obj 182 216 pow 2;
#X connect 0 0 1 0;
#X connect 1 0 2 0;
#X connect 2 0 9 0;
#X connect 3 0 5 0;
#X connect 5 0 7 0;
#X connect 6 0 1 2;
#X connect 6 0 10 0;
#X connect 7 0 1 1;
#X connect 8 0 12 0;
#X connect 10 0 2 1;
#X connect 11 0 10 0;
#X connect 11 1 10 1;
#X connect 12 0 11 0;
#X coords 0 -1 1 1 170 90 1 100 100;
#X restore 425 262 pd mode;
#X obj 395 23 tgl 20 0 empty empty empty 0 -10 0 12 #fcfcfc #000000 #000000 0 1;
#X obj 395 48 switch~;
#X connect 0 0 16 0;
#X connect 1 0 17 0;
#X connect 2 0 5 0;
#X connect 2 0 5 1;
#X connect 3 0 2 1;
#X connect 4 0 3 0;
#X connect 6 0 7 0;
#X connect 6 1 9 0;
#X connect 7 0 8 0;
#X connect 8 0 10 0;
#X connect 9 0 10 0;
#X connect 10 0 14 1;
#X connect 11 0 15 0;
#X connect 12 0 0 0;
#X connect 13 0 2 0;
#X connect 14 0 19 0;
#X connect 14 0 20 0;
#X connect 14 0 21 0;
#X connect 15 0 6 0;
#X connect 16 0 14 0;
#X connect 17 0 16 1;
#X connect 18 0 6 0;
#X connect 19 0 13 0;
#X connect 20 0 13 0;
#X connect 21 0 13 0;
#X connect 22 0 23 0;
#X restore 81 48 pd buzzer;
#N canvas 1069 40 841 611 ring 0;
#X obj 44 45 hip~ 500;
#X obj 83 74 noise~;
#X obj 79 547 *~;
#X obj 105 514 pow 2;
#X obj 108 490 hsl 170 20 0 1 0 1 empty empty empty 0 -9 0 12 #fcfcfc #000000 #000000 3700 1;
#X obj 79 572 dac~;
#X obj 228 71 t b b;
#X obj 228 96 del 200;
#X msg 228 121 0;
#X msg 261 121 1;
#X obj 228 146 tgl 20 0 empty empty empty 0 -10 0 12 #fcfcfc #000000 #000000 0 1;
#X obj 227 7 tgl 20 0 empty empty empty 0 -10 0 12 #fcfcfc #000000 #000000 0 1;
#X obj 79 426 *~ 1, f 6;
#X obj 44 167 *~ 0;
#X obj 228 46 metro 1500;
#X obj 44 106 *~;
#X obj 82 102 +~ 1;
#X obj 173 27 bng 20 250 50 0 empty empty empty 0 -10 0 12 #fcfcfc #000000 #000000;
#N canvas 735 420 450 365 mode 0;
#X obj 20 130 inlet~;
#X obj 20 211 bp~, f 22;
#X obj 20 252 *~;
#X obj 110 131 nbx 5 18 0 128 0 1 empty empty midi 0 -10 0 12 #00faff #000000 #000000 86.3303 256;
#X obj 110 169 nbx 5 18 0 18000 0 0 empty empty empty 0 -10 0 12 #fcfcfc #000000 #000000 0 256;
#X obj 51 162 mtof;
#X obj 183 131 nbx 5 18 0 18000 0 1 empty empty q 0 -10 0 12 #faff00 #000000 #000000 833 256;
#X obj 110 169 nbx 5 18 0 18000 0 0 empty empty hz 0 -10 0 12 #fcfcfc #000000 #000000 0 256;
#X obj 185 169 hsl 80 20 0 1 0 1 empty empty empty -2 -10 0 12 #ff0400 #000000 #000000 2800 1;
#X obj 20 277 outlet~;
#X obj 115 265 *;
#X obj 145 264 t b f;
#X obj 182 216 pow 2;
#X connect 0 0 1 0;
#X connect 1 0 2 0;
#X connect 2 0 9 0;
#X connect 3 0 5 0;
#X connect 5 0 7 0;
#X connect 6 0 1 2;
#X connect 6 0 10 0;
#X connect 7 0 1 1;
#X connect 8 0 12 0;
#X connect 10 0 2 1;
#X connect 11 0 10 0;
#X connect 11 1 10 1;
#X connect 12 0 11 0;
#X coords 0 -1 1 1 170 90 1 100 100;
#X restore 59 260 pd mode;
#N canvas 735 420 450 365 mode 0;
#X obj 20 130 inlet~;
#X obj 20 211 bp~, f 22;
#X obj 20 252 *~;
#X obj 110 131 nbx 5 18 0 128 0 1 empty empty midi 0 -10 0 12 #00faff #000000 #000000 101.13 256;
#X obj 110 169 nbx 5 18 0 18000 0 0 empty empty empty 0 -10 0 12 #fcfcfc #000000 #000000 0 256;
#X obj 51 162 mtof;
#X obj 183 131 nbx 5 18 0 18000 0 1 empty empty q 0 -10 0 12 #faff00 #000000 #000000 1178 256;
#X obj 110 169 nbx 5 18 0 18000 0 0 empty empty hz 0 -10 0 12 #fcfcfc #000000 #000000 0 256;
#X obj 185 169 hsl 80 20 0 1 0 1 empty empty empty -2 -10 0 12 #ff0400 #000000 #000000 1900 1;
#X obj 20 277 outlet~;
#X obj 115 265 *;
#X obj 145 264 t b f;
#X obj 182 216 pow 2;
#X connect 0 0 1 0;
#X connect 1 0 2 0;
#X connect 2 0 9 0;
#X connect 3 0 5 0;
#X connect 5 0 7 0;
#X connect 6 0 1 2;
#X connect 6 0 10 0;
#X connect 7 0 1 1;
#X connect 8 0 12 0;
#X connect 10 0 2 1;
#X connect 11 0 10 0;
#X connect 11 1 10 1;
#X connect 12 0 11 0;
#X coords 0 -1 1 1 170 90 1 100 100;
#X restore 244 262 pd mode;
#N canvas 735 420 450 365 mode 0;
#X obj 20 130 inlet~;
#X obj 20 211 bp~, f 22;
#X obj 20 252 *~;
#X obj 110 131 nbx 5 18 0 128 0 1 empty empty midi 0 -10 0 12 #00faff #000000 #000000 110.45 256;
#X obj 110 169 nbx 5 18 0 18000 0 0 empty empty empty 0 -10 0 12 #fcfcfc #000000 #000000 0 256;
#X obj 51 162 mtof;
#X obj 183 131 nbx 5 18 0 18000 0 1 empty empty q 0 -10 0 12 #faff00 #000000 #000000 1637 256;
#X obj 110 169 nbx 5 18 0 18000 0 0 empty empty hz 0 -10 0 12 #fcfcfc #000000 #000000 0 256;
#X obj 185 169 hsl 80 20 0 1 0 1 empty empty empty -2 -10 0 12 #ff0400 #000000 #000000 1800 1;
#X obj 20 277 outlet~;
#X obj 115 265 *;
#X obj 145 264 t b f;
#X obj 182 216 pow 2;
#X connect 0 0 1 0;
#X connect 1 0 2 0;
#X connect 2 0 9 0;
#X connect 3 0 5 0;
#X connect 5 0 7 0;
#X connect 6 0 1 2;
#X connect 6 0 10 0;
#X connect 7 0 1 1;
#X connect 8 0 12 0;
#X connect 10 0 2 1;
#X connect 11 0 10 0;
#X connect 11 1 10 1;
#X connect 12 0 11 0;
#X coords 0 -1 1 1 170 90 1 100 100;
#X restore 425 262 pd mode;
#X obj 395 23 tgl 20 0 empty empty empty 0 -10 0 12 #fcfcfc #000000 #000000 0 1;
#X obj 395 48 switch~;
#X obj 44 20 phasor~ 30;
#N canvas 735 420 450 365 mode 0;
#X obj 20 130 inlet~;
#X obj 20 211 bp~, f 22;
#X obj 20 252 *~;
#X obj 110 131 nbx 5 18 0 128 0 1 empty empty midi 0 -10 0 12 #00faff #000000 #000000 117.61 256;
#X obj 110 169 nbx 5 18 0 18000 0 0 empty empty empty 0 -10 0 12 #fcfcfc #000000 #000000 0 256;
#X obj 51 162 mtof;
#X obj 183 131 nbx 5 18 0 18000 0 1 empty empty q 0 -10 0 12 #faff00 #000000 #000000 1690 256;
#X obj 110 169 nbx 5 18 0 18000 0 0 empty empty hz 0 -10 0 12 #fcfcfc #000000 #000000 0 256;
#X obj 185 169 hsl 80 20 0 1 0 1 empty empty empty -2 -10 0 12 #ff0400 #000000 #000000 1800 1;
#X obj 20 277 outlet~;
#X obj 115 265 *;
#X obj 145 264 t b f;
#X obj 182 216 pow 2;
#X connect 0 0 1 0;
#X connect 1 0 2 0;
#X connect 2 0 9 0;
#X connect 3 0 5 0;
#X connect 5 0 7 0;
#X connect 6 0 1 2;
#X connect 6 0 10 0;
#X connect 7 0 1 1;
#X connect 8 0 12 0;
#X connect 10 0 2 1;
#X connect 11 0 10 0;
#X connect 11 1 10 1;
#X connect 12 0 11 0;
#X coords 0 -1 1 1 170 90 1 100 100;
#X restore 606 263 pd mode;
#X connect 0 0 15 0;
#X connect 1 0 16 0;
#X connect 2 0 5 0;
#X connect 2 0 5 1;
#X connect 3 0 2 1;
#X connect 4 0 3 0;
#X connect 6 0 7 0;
#X connect 6 1 9 0;
#X connect 7 0 8 0;
#X connect 8 0 10 0;
#X connect 9 0 10 0;
#X connect 10 0 13 1;
#X connect 11 0 14 0;
#X connect 12 0 2 0;
#X connect 13 0 18 0;
#X connect 13 0 19 0;
#X connect 13 0 20 0;
#X connect 13 0 24 0;
#X connect 14 0 6 0;
#X connect 15 0 13 0;
#X connect 16 0 15 1;
#X connect 17 0 6 0;
#X connect 18 0 12 0;
#X connect 19 0 12 0;
#X connect 20 0 12 0;
#X connect 21 0 22 0;
#X connect 23 0 0 0;
#X connect 24 0 12 0;
#X restore 82 93 pd ring;
#N canvas 503 64 1270 953 test_musique 0;
#X obj 115 71 metro 600;
#X obj 115 162 bng 20 250 50 0 empty empty empty 0 -10 0 12 #fcfcfc #000000 #000000;
#X obj 115 18 tgl 20 0 empty empty empty 0 -10 0 12 #fcfcfc #000000 #000000 0 1;
#X obj 115 212 line~;
#X obj 116 270 *~;
#X obj 117 364 dac~;
#X obj 148 272 noise~;
#X obj 115 237 *~;
#X msg 115 187 1 \, 0 150;
#X obj 116 305 hip~ 2000;
#X msg 15 81 stop;
#X obj 261 233 line~;
#X obj 261 258 *~;
#X floatatom 329 137 5 0 0 0 - - - 0;
#X floatatom 276 82 5 0 0 0 - - - 0;
#X obj 27 112 del 300;
#X obj 385 199 line~;
#X obj 385 224 *~;
#X obj 384 274 osc~;
#X msg 385 174 1 \, 0 150;
#X obj 125 129 del 175;
#X obj 261 182 del 90;
#X obj 384 248 *~ 100;
#X obj 264 338 hip~ 5;
#X msg 261 208 0.7 \, 0 150;
#X msg 582 22 0 2 4 5 7 9 11;
#X obj 582 127 array define \$0-scale;
#X obj 582 97 array set \$0-scale;
#X obj 582 60 t a a, f 26;
#X obj 761 84 list length;
#X obj 761 109 s \$0-scale-len;
#X obj 906 59 t a a, f 26;
#X obj 1085 83 list length;
#X obj 906 96 array set \$0-chord;
#X obj 906 126 array define \$0-chord;
#X obj 1085 108 s \$0-chord-len;
#X obj 944 444 array define \$0-melody;
#X obj 22 215 i;
#X obj 53 215 + 1;
#X obj 115 43 t f f;
#X obj 15 56 sel 0 1;
#X msg 55 180 0;
#X floatatom 32 262 5 0 0 0 - - - 0;
#X msg 574 187 16;
#X obj 574 237 until;
#X obj 574 212 t f b, f 7;
#X obj 574 262 i;
#X obj 609 263 + 1;
#X msg 620 237 0;
#X obj 665 262 random;
#X obj 704 235 r \$0-chord-len;
#X msg 906 21 0 2 4;
#X obj 574 287 t b f, f 8;
#X obj 574 325 f, f 5;
#X obj 630 378 t f f, f 9;
#X obj 690 403 mod;
#X obj 708 375 r \$0-scale-len;
#X obj 630 403 div;
#X obj 630 453 +, f 9;
#X obj 451 417 random 1000;
#X obj 451 442 / 1000;
#X obj 451 467 pow 3;
#X obj 451 517 i;
#X obj 451 542 + 1;
#X obj 517 592 random 2;
#X obj 517 617 * 2;
#X obj 517 642 - 1;
#X obj 451 592 *;
#X obj 574 350 t f f;
#X obj 419 392 t f b;
#X obj 419 638 +;
#X obj 606 557 array set \$0-melody;
#X obj 736 616 array get \$0-melody 0 16;
#X listbox 736 641 74 0 0 0 - - - 0;
#X obj 756 577 bng 20 250 50 0 empty empty empty 0 -10 0 12 #fcfcfc #000000 #000000;
#X obj 451 567 t f b, f 10;
#X obj 665 287 array get \$0-chord 0 1;
#X obj 690 429 array get \$0-scale 0 1;
#X floatatom 930 376 5 0 0 0 - - - 0;
#X obj 630 428 * 12;
#X obj 21 460 array get \$0-melody 0 1;
#X obj 22 302 mod 16;
#X obj 21 674 mtof;
#X obj 21 699 phasor~;
#X obj 22 769 lop~ 800;
#X obj 21 734 *~;
#X obj 113 672 line~;
#X obj 113 697 *~;
#X obj 81 617 t f b;
#X obj 22 913 dac~;
#X obj 21 849 *~ 0.1;
#N canvas 1523 134 450 300 silence 0;
#X obj 51 17 inlet;
#X obj 51 42 t b f, f 15;
#X obj 51 85 random 1000;
#X obj 51 110 / 1000;
#X obj 247 32 pow 1;
#X obj 51 160 moses 0.5;
#X msg 51 185 -1000;
#X obj 51 259 outlet;
#X obj 111 183 b;
#X obj 111 208 f;
#X obj 124 128 hsl 170 20 0 1 0 0 empty empty empty -2 -10 0 12 #fcfcfc #000000 #000000 0 1;
#X connect 0 0 1 0;
#X connect 1 0 2 0;
#X connect 1 1 9 1;
#X connect 2 0 3 0;
#X connect 3 0 5 0;
#X connect 5 0 6 0;
#X connect 5 1 8 0;
#X connect 6 0 7 0;
#X connect 8 0 9 0;
#X connect 9 0 7 0;
#X connect 10 0 5 1;
#X restore 606 490 pd silence;
#X obj 21 491 sel -1000;
#X floatatom 7 539 5 0 0 0 - - - 0;
#X msg 76 241 3;
#N canvas 1129 20 729 424 transform_melody 0;
#X msg 162 36 16;
#X obj 162 86 until;
#X obj 162 61 t f b, f 7;
#X obj 162 111 i;
#X obj 197 112 + 1;
#X msg 208 86 0;
#X obj 162 242 array get \$0-melody 0 1;
#X obj 222 387 array set \$0-melody;
#X obj 222 292 +;
#X obj 162 137 t f b f, f 8;
#X obj 162 267 sel -1000;
#X msg 162 292 -1000;
#X obj 287 360 + 16;
#N canvas 50 103 623 864 to_chord 0;
#X obj 115 24 inlet;
#X obj 282 24 inlet time;
#X obj 282 49 mod 4;
#X obj 115 49 list prepend 0;
#X obj 115 326 outlet;
#X obj 115 74 route 0 1;
#X obj 282 74 == 0;
#X obj 145 132 t f f, f 9;
#X obj 205 157 mod;
#X obj 223 129 r \$0-scale-len;
#X obj 145 157 div;
#X obj 145 224 +, f 9;
#X obj 145 182 * 12;
#X obj 348 223 r \$0-chord-len;
#X obj 330 248 f;
#X obj 330 273 t f b;
#X obj 330 298 until;
#X obj 365 324 + 1;
#X obj 330 323 i;
#X msg 374 298 0;
#X obj 362 377 array get \$0-chord 0 1;
#X obj 362 402 moses;
#X obj 330 190 t b f;
#X obj 330 350 t f f;
#X obj 312 406 f;
#X obj 312 161 t b f;
#X obj 394 428 b;
#X obj 177 515 t f f, f 9;
#X obj 237 540 mod;
#X obj 255 512 r \$0-scale-len;
#X obj 177 540 div;
#X obj 177 607 +, f 9;
#X obj 177 565 * 12;
#X obj 380 606 r \$0-chord-len;
#X obj 362 631 f;
#X obj 362 656 t f b;
#X obj 362 681 until;
#X obj 397 707 + 1;
#X obj 362 706 i;
#X msg 406 681 0;
#X obj 394 760 array get \$0-chord 0 1;
#X obj 394 785 moses;
#X obj 362 573 t b f;
#X obj 362 733 t f f;
#X obj 344 789 f;
#X obj 344 544 t b f;
#X obj 426 811 b;
#X floatatom 177 632 5 0 0 0 - - - 0;
#X floatatom 185 462 5 0 0 0 - - - 0;
#X obj 53 683 t f f, f 9;
#X obj 113 708 mod;
#X obj 131 680 r \$0-scale-len;
#X obj 53 708 div;
#X obj 53 758 +, f 9;
#X obj 113 734 array get \$0-scale 0 1;
#X obj 53 733 * 12;
#X floatatom 213 838 5 0 0 0 - - - 0;
#X floatatom 355 836 5 0 0 0 - - - 0;
#X connect 0 0 3 0;
#X connect 1 0 2 0;
#X connect 2 0 6 0;
#X connect 3 0 5 0;
#X connect 5 0 4 0;
#X connect 5 1 7 0;
#X connect 6 0 3 1;
#X connect 7 0 10 0;
#X connect 7 1 8 0;
#X connect 8 0 25 0;
#X connect 9 0 8 1;
#X connect 9 0 10 1;
#X connect 9 0 12 1;
#X connect 10 0 12 0;
#X connect 11 0 4 0;
#X connect 12 0 11 0;
#X connect 13 0 14 1;
#X connect 14 0 15 0;
#X connect 15 0 16 0;
#X connect 15 1 19 0;
#X connect 16 0 18 0;
#X connect 17 0 18 1;
#X connect 18 0 17 0;
#X connect 18 0 23 0;
#X connect 19 0 18 1;
#X connect 20 0 21 0;
#X connect 20 0 24 1;
#X connect 21 1 26 0;
#X connect 22 0 14 0;
#X connect 22 1 21 1;
#X connect 23 1 20 0;
#X connect 24 0 11 1;
#X connect 25 0 24 0;
#X connect 25 1 22 0;
#X connect 26 0 16 1;
#X connect 27 0 30 0;
#X connect 27 1 28 0;
#X connect 28 0 45 0;
#X connect 29 0 28 1;
#X connect 29 0 30 1;
#X connect 29 0 32 1;
#X connect 30 0 32 0;
#X connect 31 0 47 0;
#X connect 32 0 31 0;
#X connect 33 0 34 1;
#X connect 34 0 35 0;
#X connect 35 0 36 0;
#X connect 35 1 39 0;
#X connect 36 0 38 0;
#X connect 37 0 38 1;
#X connect 38 0 37 0;
#X connect 38 0 43 0;
#X connect 39 0 38 1;
#X connect 40 0 41 0;
#X connect 40 0 44 1;
#X connect 41 1 46 0;
#X connect 42 0 34 0;
#X connect 42 1 41 1;
#X connect 43 1 40 0;
#X connect 44 0 31 1;
#X connect 44 0 57 0;
#X connect 45 0 44 0;
#X connect 45 1 42 0;
#X connect 46 0 36 1;
#X connect 47 0 49 0;
#X connect 48 0 27 0;
#X connect 49 0 52 0;
#X connect 49 1 50 0;
#X connect 50 0 54 0;
#X connect 51 0 50 1;
#X connect 51 0 52 1;
#X connect 52 0 55 0;
#X connect 53 0 56 0;
#X connect 54 0 53 1;
#X connect 55 0 53 0;
#X restore 222 324 pd to_chord;
#X f 15;
#X obj 162 11 inlet;
#X obj 187 162 random 5;
#X obj 188 187 - 2;
#X connect 0 0 2 0;
#X connect 1 0 3 0;
#X connect 2 0 1 0;
#X connect 2 1 5 0;
#X connect 3 0 4 0;
#X connect 3 0 9 0;
#X connect 4 0 3 1;
#X connect 5 0 3 1;
#X connect 6 0 10 0;
#X connect 8 0 13 0;
#X connect 9 0 6 0;
#X connect 9 1 15 0;
#X connect 9 2 12 0;
#X connect 9 2 13 1;
#X connect 10 0 11 0;
#X connect 10 1 8 0;
#X connect 11 0 7 0;
#X connect 12 0 7 1;
#X connect 13 0 7 0;
#X connect 14 0 0 0;
#X connect 15 0 16 0;
#X connect 16 0 8 1;
#X restore 971 312 pd transform_melody;
#X obj 81 519 t f f, f 9;
#X obj 141 544 mod;
#X obj 159 516 r \$0-scale-len;
#X obj 81 544 div;
#X obj 81 594 +, f 9;
#X obj 141 570 array get \$0-scale 0 1;
#X obj 81 569 * 12;
#X floatatom 23 616 5 0 0 0 - - - 0;
#X obj 21 417 +;
#X obj 69 398 hradio 20 1 0 8 empty empty empty 0 -10 0 12 #fcfcfc #000000 #000000 0;
#X obj 69 423 * 16;
#X msg 430 29 0 2 3 5 7 8 10;
#N canvas 50 103 623 864 to_chord 0;
#X obj 55 24 inlet;
#X obj 282 24 inlet time;
#X obj 282 49 mod 4;
#X obj 55 49 list prepend 0;
#X obj 55 329 outlet;
#X obj 55 74 route 0 1;
#X obj 282 74 == 0;
#X obj 145 132 t f f, f 9;
#X obj 205 157 mod;
#X obj 223 129 r \$0-scale-len;
#X obj 145 157 div;
#X obj 145 224 +, f 9;
#X obj 145 182 * 12;
#X obj 348 223 r \$0-chord-len;
#X obj 330 248 f;
#X obj 330 273 t f b;
#X obj 330 298 until;
#X obj 365 324 + 1;
#X obj 330 323 i;
#X msg 374 298 0;
#X obj 362 377 array get \$0-chord 0 1;
#X obj 362 402 moses;
#X obj 330 190 t b f;
#X obj 330 350 t f f;
#X obj 312 406 f;
#X obj 312 161 t b f;
#X obj 394 428 b;
#X obj 177 515 t f f, f 9;
#X obj 237 540 mod;
#X obj 255 512 r \$0-scale-len;
#X obj 177 540 div;
#X obj 177 607 +, f 9;
#X obj 177 565 * 12;
#X obj 380 606 r \$0-chord-len;
#X obj 362 631 f;
#X obj 362 656 t f b;
#X obj 362 681 until;
#X obj 397 707 + 1;
#X obj 362 706 i;
#X msg 406 681 0;
#X obj 394 760 array get \$0-chord 0 1;
#X obj 394 785 moses;
#X obj 362 573 t b f;
#X obj 362 733 t f f;
#X obj 344 789 f;
#X obj 344 544 t b f;
#X obj 426 811 b;
#X floatatom 177 632 5 0 0 0 - - - 0;
#X floatatom 185 462 5 0 0 0 - - - 0;
#X obj 53 683 t f f, f 9;
#X obj 113 708 mod;
#X obj 131 680 r \$0-scale-len;
#X obj 53 708 div;
#X obj 53 758 +, f 9;
#X obj 113 734 array get \$0-scale 0 1;
#X obj 53 733 * 12;
#X floatatom 213 838 5 0 0 0 - - - 0;
#X floatatom 355 836 5 0 0 0 - - - 0;
#X obj 85 103 sel -1000;
#X msg 85 128 -1000;
#X connect 0 0 3 0;
#X connect 1 0 2 0;
#X connect 2 0 6 0;
#X connect 3 0 5 0;
#X connect 5 0 4 0;
#X connect 5 1 58 0;
#X connect 6 0 3 1;
#X connect 7 0 10 0;
#X connect 7 1 8 0;
#X connect 8 0 25 0;
#X connect 9 0 8 1;
#X connect 9 0 10 1;
#X connect 9 0 12 1;
#X connect 10 0 12 0;
#X connect 11 0 4 0;
#X connect 12 0 11 0;
#X connect 13 0 14 1;
#X connect 14 0 15 0;
#X connect 15 0 16 0;
#X connect 15 1 19 0;
#X connect 16 0 18 0;
#X connect 17 0 18 1;
#X connect 18 0 17 0;
#X connect 18 0 23 0;
#X connect 19 0 18 1;
#X connect 20 0 21 0;
#X connect 20 0 24 1;
#X connect 21 1 26 0;
#X connect 22 0 14 0;
#X connect 22 1 21 1;
#X connect 23 1 20 0;
#X connect 24 0 11 1;
#X connect 25 0 24 0;
#X connect 25 1 22 0;
#X connect 26 0 16 1;
#X connect 27 0 30 0;
#X connect 27 1 28 0;
#X connect 28 0 45 0;
#X connect 29 0 28 1;
#X connect 29 0 30 1;
#X connect 29 0 32 1;
#X connect 30 0 32 0;
#X connect 31 0 47 0;
#X connect 32 0 31 0;
#X connect 33 0 34 1;
#X connect 34 0 35 0;
#X connect 35 0 36 0;
#X connect 35 1 39 0;
#X connect 36 0 38 0;
#X connect 37 0 38 1;
#X connect 38 0 37 0;
#X connect 38 0 43 0;
#X connect 39 0 38 1;
#X connect 40 0 41 0;
#X connect 40 0 44 1;
#X connect 41 1 46 0;
#X connect 42 0 34 0;
#X connect 42 1 41 1;
#X connect 43 1 40 0;
#X connect 44 0 31 1;
#X connect 44 0 57 0;
#X connect 45 0 44 0;
#X connect 45 1 42 0;
#X connect 46 0 36 1;
#X connect 47 0 49 0;
#X connect 48 0 27 0;
#X connect 49 0 52 0;
#X connect 49 1 50 0;
#X connect 50 0 54 0;
#X connect 51 0 50 1;
#X connect 51 0 52 1;
#X connect 52 0 55 0;
#X connect 53 0 56 0;
#X connect 54 0 53 1;
#X connect 55 0 53 0;
#X connect 58 0 59 0;
#X connect 58 1 7 0;
#X connect 59 0 4 0;
#X restore 606 522 pd to_chord;
#X f 15;
#X obj 226 789 mtof;
#X obj 226 849 *~;
#X obj 318 787 line~;
#X obj 318 812 *~;
#X obj 226 712 tabread \$0-chord;
#X obj 226 737 tabread \$0-scale;
#X obj 226 589 mod 8;
#X obj 226 614 sel 0;
#X obj 225 875 lop~ 300;
#X obj 226 637 t b b;
#X msg 317 762 1 \, 0 500;
#X obj 226 764 + 38;
#X obj 226 814 phasor~;
#X obj 117 339 *~ 0.05;
#X obj 451 492 * 5;
#X obj 226 660 random 2;
#X obj 973 287 bng 20 250 50 0 empty empty empty 0 -10 0 12 #fcfcfc #000000 #000000;
#X obj 226 686 * 0;
#X msg 113 647 1 \, 0 1000;
#X obj 21 649 + 62;
#X msg 971 20 3 5 7;
#X msg 1031 18 4 6 8;
#X obj 419 662 clip -8 14;
#X obj 567 730 melody \$0;
#X obj 662 735 melody \$0;
#X obj 596 700 bng 20 250 50 0 empty empty empty 0 -10 0 12 #fcfcfc #000000 #000000;
#X obj 714 704 bng 20 250 50 0 empty empty empty 0 -10 0 12 #fcfcfc #000000 #000000;
#X obj 640 626 bng 20 250 50 0 empty empty empty 0 -10 0 12 #fcfcfc #000000 #000000;
#X obj 829 29 loadbang;
#X connect 0 0 1 0;
#X connect 0 0 19 0;
#X connect 0 0 15 0;
#X connect 0 0 20 0;
#X connect 0 0 21 0;
#X connect 1 0 8 0;
#X connect 1 0 37 0;
#X connect 2 0 39 0;
#X connect 3 0 7 0;
#X connect 3 0 7 1;
#X connect 4 0 9 0;
#X connect 6 0 4 1;
#X connect 7 0 4 0;
#X connect 8 0 3 0;
#X connect 9 0 122 0;
#X connect 10 0 15 0;
#X connect 10 0 20 0;
#X connect 10 0 21 0;
#X connect 11 0 12 0;
#X connect 11 0 12 1;
#X connect 12 0 4 0;
#X connect 13 0 21 1;
#X connect 14 0 20 1;
#X connect 15 0 1 0;
#X connect 15 0 20 0;
#X connect 15 0 21 0;
#X connect 16 0 17 0;
#X connect 16 0 17 1;
#X connect 17 0 22 0;
#X connect 18 0 23 0;
#X connect 19 0 16 0;
#X connect 20 0 1 0;
#X connect 20 0 21 0;
#X connect 21 0 24 0;
#X connect 22 0 18 0;
#X connect 23 0 122 0;
#X connect 25 0 28 0;
#X connect 28 0 27 0;
#X connect 28 1 29 0;
#X connect 29 0 30 0;
#X connect 31 0 33 0;
#X connect 31 1 32 0;
#X connect 32 0 35 0;
#X connect 37 0 38 0;
#X connect 37 0 42 0;
#X connect 37 0 132 0;
#X connect 37 0 81 0;
#X connect 37 0 133 0;
#X connect 38 0 37 1;
#X connect 39 0 0 0;
#X connect 39 1 40 0;
#X connect 40 0 10 0;
#X connect 40 1 41 0;
#X connect 41 0 37 1;
#X connect 43 0 45 0;
#X connect 44 0 46 0;
#X connect 45 0 44 0;
#X connect 45 1 48 0;
#X connect 45 1 49 0;
#X connect 46 0 47 0;
#X connect 46 0 52 0;
#X connect 47 0 46 1;
#X connect 48 0 46 1;
#X connect 49 0 76 0;
#X connect 50 0 49 1;
#X connect 51 0 31 0;
#X connect 52 0 53 0;
#X connect 52 1 71 1;
#X connect 52 1 108 1;
#X connect 53 0 68 0;
#X connect 54 0 57 0;
#X connect 54 1 55 0;
#X connect 55 0 77 0;
#X connect 56 0 55 1;
#X connect 56 0 57 1;
#X connect 57 0 79 0;
#X connect 59 0 60 0;
#X connect 60 0 61 0;
#X connect 61 0 123 0;
#X connect 62 0 63 0;
#X connect 63 0 75 0;
#X connect 64 0 65 0;
#X connect 65 0 66 0;
#X connect 66 0 67 1;
#X connect 67 0 70 1;
#X connect 68 0 69 0;
#X connect 68 1 91 0;
#X connect 69 0 70 0;
#X connect 69 1 59 0;
#X connect 70 0 131 0;
#X connect 72 0 73 0;
#X connect 74 0 72 0;
#X connect 75 0 67 0;
#X connect 75 1 64 0;
#X connect 76 0 53 1;
#X connect 77 0 58 1;
#X connect 79 0 58 0;
#X connect 80 0 92 0;
#X connect 80 0 93 0;
#X connect 81 0 115 0;
#X connect 82 0 83 0;
#X connect 83 0 85 0;
#X connect 84 0 90 0;
#X connect 85 0 84 0;
#X connect 86 0 87 0;
#X connect 86 0 87 1;
#X connect 87 0 85 1;
#X connect 88 0 128 0;
#X connect 88 1 127 0;
#X connect 90 0 89 1;
#X connect 90 0 89 0;
#X connect 91 0 108 0;
#X connect 92 1 96 0;
#X connect 94 0 81 0;
#X connect 96 0 99 0;
#X connect 96 1 97 0;
#X connect 97 0 101 0;
#X connect 98 0 97 1;
#X connect 98 0 99 1;
#X connect 99 0 102 0;
#X connect 100 0 88 0;
#X connect 100 0 103 0;
#X connect 101 0 100 1;
#X connect 102 0 100 0;
#X connect 104 0 80 0;
#X connect 105 0 106 0;
#X connect 106 0 104 1;
#X connect 107 0 28 0;
#X connect 108 0 71 0;
#X connect 109 0 121 0;
#X connect 110 0 117 0;
#X connect 111 0 112 0;
#X connect 111 0 112 1;
#X connect 112 0 110 1;
#X connect 113 0 114 0;
#X connect 114 0 120 0;
#X connect 115 0 116 0;
#X connect 116 0 118 0;
#X connect 117 0 90 0;
#X connect 118 0 124 0;
#X connect 118 1 119 0;
#X connect 119 0 111 0;
#X connect 120 0 109 0;
#X connect 121 0 110 0;
#X connect 122 0 5 0;
#X connect 122 0 5 1;
#X connect 123 0 62 0;
#X connect 124 0 126 0;
#X connect 125 0 95 0;
#X connect 126 0 113 0;
#X connect 127 0 86 0;
#X connect 128 0 82 0;
#X connect 129 0 31 0;
#X connect 130 0 31 0;
#X connect 131 0 53 1;
#X connect 132 0 90 0;
#X connect 133 0 90 0;
#X connect 134 0 132 1;
#X connect 135 0 133 1;
#X connect 136 0 134 0;
#X connect 136 0 135 0;
#X connect 137 0 51 0;
#X connect 137 0 25 0;
#X restore 86 128 pd test_musique;
#X restore 247 594 pd tests_prelim_audio;
#X msg 161 86 sfx buzz 500;
#X msg 134 111 sfx tut 1500 50;
#X msg 186 61 sfx bounce \$1;
#N canvas 436 310 1197 615 sfx/melody 0;
#X obj 27 244 s \$0-to_emul;
#X obj 168 100 tgl 20 0 empty empty empty 0 -10 0 12 #fcfcfc #000000 #000000 0 1;
#X msg 59 74 sfx buzz 500;
#X msg 60 101 sfx bounce \$1;
#X msg 56 135 sfx tut 1500 50;
#X msg 56 159 sfx ring 500;
#X msg 79 192 sfx _unexisting_;
#X obj 250 194 s \$0-to_emul;
#X msg 250 129 shuffle \$1;
#X obj 253 94 hsl 120 20 0 1 0 0 empty empty empty -2 -10 0 12 #fcfcfc #000000 #000000 0 1;
#X obj 390 45 tgl 20 0 empty empty empty 0 -10 0 12 #fcfcfc #000000 #000000 0 1;
#X obj 419 221 hsl 120 20 10 300 0 0 empty empty empty -2 -10 0 12 #fcfcfc #000000 #000000 0 1;
#X floatatom 563 220 5 0 0 1 bpm - - 0;
#X msg 416 246 60000 \$1;
#X obj 416 271 /;
#X floatatom 450 271 5 0 0 1 ms - - 0;
#X msg 390 13 1;
#X msg 249 329 testrand \$1;
#X msg 255 297 2;
#X msg 311 299 10;
#X msg 348 299 20;
#X msg 281 296 3;
#X text 528 74 new song;
#X obj 390 71 pack f f;
#X obj 443 45 tgl 20 0 empty empty once 0 -10 0 12 #fcfcfc #000000 #000000 0 1;
#X text 632 72 new song \, play once;
#X text 394 119 play;
#X msg 390 97 sfx seqplay \$1 \$2;
#X msg 527 96 sfx seqnew;
#X msg 621 94 sfx seqnew \, sfx seqplay 1 1;
#X msg 416 309 sfx seqms \$1;
#X msg 355 13 0;
#X obj 906 276 s \$0-to_emul;
#X obj 942 156 t b f;
#X floatatom 968 79 5 0 0 0 - - - 0;
#X obj 968 103 mtof;
#X obj 968 128 * 256;
#X obj 894 59 hsl 170 20 0 32000 0 0 empty empty empty -2 -10 0 12 #fcfcfc #000000 #000000 0 1;
#X obj 906 184 pack f f 256;
#X floatatom 1048 120 5 0 0 0 - - - 0;
#X obj 1078 189 hradio 20 1 0 5 empty empty SIN\ SAW\ SQU\ BLSAW\ BLSQU 0 -10 0 8 #fcfcfc #000000 #000000 0;
#X obj 996 153 t b f;
#X msg 906 102 73.75;
#X msg 906 219 sfx osc1 \$1 \$2 \$3;
#X msg 1078 220 sfx osc1wf \$1;
#X obj 290 591 s \$0-to_emul;
#X obj 334 471 t b f;
#X obj 249 381 hsl 170 20 0 16000 0 0 empty empty feedback -2 -10 0 12 #fcfcfc #000000 #000000 0 1;
#X obj 298 499 pack f f 256;
#X floatatom 440 435 5 0 0 0 - - - 0;
#X obj 388 468 t b f;
#X obj 437 387 hsl 170 20 0 32000 0 0 empty empty volume -2 -10 0 12 #fcfcfc #000000 #000000 0 1;
#X obj 454 527 hsl 170 20 0 10000 0 0 empty empty time -2 -10 0 12 #fcfcfc #000000 #000000 0 1;
#X floatatom 238 470 8 0 0 0 - - - 0;
#X floatatom 485 490 8 0 0 0 - - - 0;
#X msg 290 542 sfx rev1 \$1 \$2 \$3;
#X connect 1 0 3 0;
#X connect 2 0 0 0;
#X connect 3 0 0 0;
#X connect 4 0 0 0;
#X connect 5 0 0 0;
#X connect 6 0 0 0;
#X connect 8 0 7 0;
#X connect 9 0 8 0;
#X connect 10 0 23 0;
#X connect 11 0 12 0;
#X connect 11 0 13 0;
#X connect 13 0 14 0;
#X connect 14 0 15 0;
#X connect 14 0 30 0;
#X connect 16 0 10 0;
#X connect 17 0 7 0;
#X connect 18 0 17 0;
#X connect 19 0 17 0;
#X connect 20 0 17 0;
#X connect 21 0 17 0;
#X connect 23 0 27 0;
#X connect 24 0 23 1;
#X connect 27 0 7 0;
#X connect 28 0 7 0;
#X connect 29 0 7 0;
#X connect 30 0 7 0;
#X connect 31 0 10 0;
#X connect 33 0 38 0;
#X connect 33 1 38 1;
#X connect 34 0 35 0;
#X connect 35 0 36 0;
#X connect 36 0 33 0;
#X connect 37 0 38 0;
#X connect 38 0 43 0;
#X connect 39 0 41 0;
#X connect 40 0 44 0;
#X connect 41 0 38 0;
#X connect 41 1 38 2;
#X connect 42 0 34 0;
#X connect 43 0 32 0;
#X connect 44 0 32 0;
#X connect 46 0 48 0;
#X connect 46 1 48 1;
#X connect 47 0 48 0;
#X connect 47 0 53 0;
#X connect 48 0 55 0;
#X connect 49 0 50 0;
#X connect 50 0 48 0;
#X connect 50 1 48 2;
#X connect 51 0 46 0;
#X connect 51 0 54 0;
#X connect 52 0 50 0;
#X connect 55 0 45 0;
#X restore 246 516 pd sfx/melody;
#X connect 1 0 0 0;
#X connect 2 0 24 0;
#X connect 3 0 19 0;
#X connect 4 0 19 0;
#X connect 5 0 2 0;
#X connect 6 0 39 0;
#X connect 7 0 44 0;
#X connect 8 0 6 0;
#X connect 9 0 6 0;
#X connect 10 0 6 0;
#X connect 11 0 19 0;
#X connect 12 0 13 0;
#X connect 13 0 14 0;
#X connect 13 1 18 0;
#X connect 14 0 17 0;
#X connect 15 0 35 0;
#X connect 16 0 18 0;
#X connect 17 0 15 0;
#X connect 18 0 15 1;
#X connect 19 0 23 0;
#X connect 19 0 52 0;
#X connect 19 1 32 0;
#X connect 21 0 60 0;
#X connect 22 0 23 1;
#X connect 23 0 20 0;
#X connect 23 0 20 1;
#X connect 24 0 19 0;
#X connect 24 0 43 0;
#X connect 24 0 48 0;
#X connect 25 0 23 0;
#X connect 25 1 26 0;
#X connect 26 0 29 0;
#X connect 27 0 25 0;
#X connect 28 0 25 0;
#X connect 28 1 27 0;
#X connect 28 2 25 1;
#X connect 30 0 19 0;
#X connect 31 0 28 0;
#X connect 34 0 35 1;
#X connect 35 0 6 0;
#X connect 35 0 33 0;
#X connect 35 0 38 0;
#X connect 36 0 35 2;
#X connect 37 0 35 3;
#X connect 39 0 40 0;
#X connect 39 1 40 1;
#X connect 40 0 7 0;
#X connect 41 0 6 0;
#X connect 45 0 22 0;
#X connect 47 0 19 0;
#X connect 48 0 40 0;
#X connect 49 0 48 1;
#X connect 54 0 53 0;
#X connect 58 0 19 0;
#X connect 59 0 19 0;
#X connect 60 0 19 0;
