#N canvas 1040 58 673 752 12;
#X obj 304 661 outlet~;
#X obj 41 8 inlet;
#X msg 90 41 1 103;
#X obj 303 346 unpack f f, f 22;
#X obj 303 371 makefilename %02d;
#X listbox 303 396 20 0 0 0 - - - 0;
#X listbox 454 395 20 0 0 0 - - - 0;
#X obj 454 370 makefilename %03d.wav;
#X obj 303 420 pack s s, f 22;
#X obj 303 556 readsf~;
#X msg 303 445 stop \, open ../wavs/\$1/\$2;
#X obj 303 495 del 10;
#X msg 303 520 start;
#X msg 147 42 1 101;
#X obj 298 46 text define \$0-queue;
#X obj 73 90 text insert \$0-queue 1e+09;
#X msg 349 581 0;
#X msg 387 580 1;
#X obj 368 644 tgl 20 0 empty empty empty 0 -10 0 12 #fcfcfc #000000 #000000 0 1;
#X obj 349 606 f;
#X msg 284 115 1 103;
#X msg 339 113 1 200;
#X obj 303 470 t b a b;
#X obj 41 65 t b a;
#X obj 113 135 == 0;
#X obj 113 167 sel 1;
#X obj 41 201 b;
#X msg 41 226 0;
#X obj 41 251 text get \$0-queue;
#X msg 240 48 clear;
#X obj 43 312 t a b;
#X msg 46 353 0;
#X obj 46 378 text delete \$0-queue;
#X obj 41 276 route bang;
#X obj 368 696 outlet playing;
#X obj 368 669 change;
#X obj 240 20 inlet clear;
#X obj 190 289 route silence;
#X obj 190 316 t f b, f 7;
#X obj 190 341 del, f 4;
#X obj 41 37 list;
#X msg 459 123 silence 500;
#X obj 190 264 list trim;
#X obj 41 135 spigot 1;
#X connect 1 0 40 0;
#X connect 2 0 23 0;
#X connect 3 0 4 0;
#X connect 3 1 7 0;
#X connect 4 0 5 0;
#X connect 5 0 8 0;
#X connect 6 0 8 1;
#X connect 7 0 6 0;
#X connect 8 0 10 0;
#X connect 9 0 0 0;
#X connect 9 1 16 0;
#X connect 10 0 22 0;
#X connect 11 0 12 0;
#X connect 12 0 9 0;
#X connect 13 0 23 0;
#X connect 16 0 19 0;
#X connect 17 0 19 0;
#X connect 18 0 35 0;
#X connect 19 0 18 0;
#X connect 19 0 24 0;
#X connect 20 0 3 0;
#X connect 21 0 3 0;
#X connect 22 0 11 0;
#X connect 22 1 9 0;
#X connect 22 2 17 0;
#X connect 23 0 43 0;
#X connect 23 1 15 0;
#X connect 24 0 25 0;
#X connect 24 0 43 1;
#X connect 25 0 26 0;
#X connect 26 0 27 0;
#X connect 27 0 28 0;
#X connect 28 0 33 0;
#X connect 29 0 14 0;
#X connect 30 0 42 0;
#X connect 30 1 31 0;
#X connect 31 0 32 0;
#X connect 33 1 30 0;
#X connect 35 0 34 0;
#X connect 36 0 29 0;
#X connect 37 0 38 0;
#X connect 37 1 3 0;
#X connect 38 0 39 0;
#X connect 38 1 17 0;
#X connect 39 0 16 0;
#X connect 40 0 23 0;
#X connect 41 0 40 0;
#X connect 42 0 37 0;
#X connect 43 0 26 0;
