#N canvas 77 423 557 251 12;
#X obj 32 27 bng 20 250 50 0 \$0-reload-words \$0-reload-words reload-words 0 -10 0 12 #faff00 #000000 #000000;
#N canvas 319 112 287 298 guts 1;
#N canvas 156 402 450 300 words 0;
#X obj 25 183 text define \$0-words;
#X obj 25 132 pdcontrol;
#X msg 25 157 read \$1/words.txt;
#X obj 28 13 loadbang;
#X obj 28 38 s \$0-reload-words;
#X obj 25 81 r \$0-reload-words;
#X msg 25 106 dir;
#X connect 1 0 2 0;
#X connect 2 0 0 0;
#X connect 3 0 4 0;
#X connect 5 0 6 0;
#X connect 6 0 1 0;
#X restore 39 101 pd words;
#X obj 37 20 loadbang;
#X msg 37 45 \; pd dsp 1;
#N canvas 619 48 983 657 select_gui 0;
#X obj 288 206 r \$0-word_num-snd;
#X obj 25 206 r \$0-word_down-snd;
#X msg 25 231 -1;
#X msg 165 231 1;
#X obj 165 206 r \$0-word_up-snd;
#X obj 25 256 +, f 38;
#X obj 25 308 s \$0-word_num-rcv;
#X obj 25 347 r \$0-word_num-snd;
#X obj 175 528 text get \$0-words;
#X obj 215 581 s \$0-word_name-rcv;
#X obj 175 556 list split 1;
#X obj 25 495 s \$0-item_num-rcv;
#X obj 25 396 >= 40;
#X obj 25 421 * 4;
#X obj 25 446 + 1;
#X obj 162 395 moses 40;
#X obj 215 419 - 40;
#X obj 215 444 * 5;
#X obj 215 469 + 40;
#X obj 25 281 clip 0 83;
#X floatatom 258 470 5 0 0 0 - - - 0;
#X msg 25 471 number \$1 \, 0;
#X obj 598 155 r \$0-dir_num-snd;
#X listbox 761 208 20 0 0 0 - - - 0;
#X obj 433 207 pack s s, f 24;
#X obj 598 181 makefilename %02d;
#X obj 298 162 s \$0-dir_num-rcv;
#X obj 298 110 loadbang;
#X msg 298 135 1;
#X obj 433 375 readsf~;
#X obj 433 314 del 10;
#X msg 433 339 start;
#X msg 479 400 0;
#X msg 517 399 1;
#X obj 479 449 tgl 20 0 empty empty empty 0 -10 0 12 #fcfcfc #000000 #000000 0 1;
#X obj 479 425 f;
#X obj 433 289 t b a b;
#X obj 432 481 throw~ \$0-out;
#X obj 433 179 makefilename %03d.wav;
#X msg 433 232 symbol ../wavs/\$2/\$1;
#X msg 433 264 stop \, open \$1;
#X obj 540 265 s \$0-filename;
#X obj 761 182 r \$0-filename;
#X obj 25 370 t a a, f 20;
#X obj 162 500 f;
#X obj 433 32 r \$0-item_num-snd;
#X obj 433 79 +;
#X obj 162 608 s \$0-word_num;
#X obj 451 56 r \$0-word_num;
#X obj 469 79 s \$0-file_num;
#X obj 763 142 s \$0-item_num-rcv;
#X msg 763 113 label item_num:\$1\\\ (file:\$2);
#X obj 763 57 pipe 1;
#X obj 763 86 pack f f;
#X obj 816 60 r \$0-file_num;
#X obj 763 30 r \$0-item_num-snd;
#X obj 433 104 t b f;
#X obj 433 129 del 100;
#X obj 433 154 f;
#X msg 21 56 -1;
#X msg 161 56 1;
#X obj 21 81 +, f 38;
#X obj 21 133 s \$0-dir_num-rcv;
#X obj 21 31 r \$0-dir_down-snd;
#X obj 161 31 r \$0-dir_up-snd;
#X obj 284 31 r \$0-dir_num-snd;
#X obj 21 106 clip 1 99;
#X connect 0 0 5 1;
#X connect 1 0 2 0;
#X connect 2 0 5 0;
#X connect 3 0 5 0;
#X connect 4 0 3 0;
#X connect 5 0 19 0;
#X connect 7 0 43 0;
#X connect 8 0 10 0;
#X connect 10 1 9 0;
#X connect 12 0 13 0;
#X connect 13 0 14 0;
#X connect 14 0 21 0;
#X connect 15 0 44 0;
#X connect 15 1 16 0;
#X connect 16 0 17 0;
#X connect 17 0 18 0;
#X connect 18 0 20 0;
#X connect 18 0 44 0;
#X connect 19 0 6 0;
#X connect 21 0 11 0;
#X connect 22 0 25 0;
#X connect 24 0 39 0;
#X connect 25 0 24 1;
#X connect 27 0 28 0;
#X connect 28 0 26 0;
#X connect 29 0 37 0;
#X connect 29 1 32 0;
#X connect 30 0 31 0;
#X connect 31 0 29 0;
#X connect 32 0 35 0;
#X connect 33 0 35 0;
#X connect 35 0 34 0;
#X connect 36 0 30 0;
#X connect 36 1 29 0;
#X connect 36 2 33 0;
#X connect 38 0 24 0;
#X connect 39 0 40 0;
#X connect 39 0 41 0;
#X connect 40 0 36 0;
#X connect 42 0 23 0;
#X connect 43 0 12 0;
#X connect 43 1 15 0;
#X connect 44 0 8 0;
#X connect 44 0 47 0;
#X connect 45 0 46 0;
#X connect 46 0 49 0;
#X connect 46 0 56 0;
#X connect 48 0 46 1;
#X connect 51 0 50 0;
#X connect 52 0 53 0;
#X connect 53 0 51 0;
#X connect 54 0 53 1;
#X connect 55 0 52 0;
#X connect 56 0 57 0;
#X connect 56 1 58 1;
#X connect 57 0 58 0;
#X connect 58 0 38 0;
#X connect 59 0 61 0;
#X connect 60 0 61 0;
#X connect 61 0 66 0;
#X connect 63 0 59 0;
#X connect 64 0 60 0;
#X connect 65 0 61 1;
#X connect 66 0 62 0;
#X restore 38 137 pd select_gui;
#N canvas 105 260 620 551 autorec 0;
#X obj 44 156 t b f;
#X msg 143 76 60;
#X obj 143 52 loadbang;
#X text 168 75 max(sec);
#X obj 294 197 i;
#X obj 44 181 samplerate~;
#X obj 44 206 *;
#X floatatom 80 208 8 0 0 0 - - - 0;
#X msg 294 245 label tHi:\$1s;
#X obj 418 199 i;
#X msg 418 247 label tLow:\$1s;
#N canvas 2 658 644 537 record 0;
#X obj 210 308 timer;
#X obj 210 356 / 1000;
#X obj 279 298 delay 100;
#X obj 215 101 sel 1 0;
#X msg 251 247 stop;
#X msg 264 334 0;
#X obj 279 272 * 1000;
#X obj 145 203 t b b b;
#X obj 317 245 f;
#X obj 266 502 s \$0-insamplength;
#X obj 320 424 - 0;
#X obj 297 101 sel 1;
#X msg 297 125 1;
#X obj 351 357 r \$0-recorder_cut;
#X obj 297 149 s \$0-recording;
#X obj 38 32 delwrite~ \$0-indel 1000;
#X obj 19 83 r \$0-recorder_indel;
#X obj 336 386 f;
#X obj 215 76 t f b;
#X floatatom 434 441 0 0 0 0 - - - 0;
#X floatatom 438 407 0 0 0 0 - - - 0;
#X floatatom 56 236 0 0 0 0 - - - 0;
#X obj 237 203 b;
#X obj 237 177 del;
#X obj 19 262 delread~ \$0-indel 200;
#X obj 335 220 r \$0-recmax;
#X obj 215 51 change;
#X obj 210 332 t f b;
#X obj 38 8 inlet~;
#X obj 320 474 outlet;
#X obj 352 71 tgl 15 0 empty empty empty 17 7 0 10 #fcfcfc #000000 #000000 0 1;
#X floatatom 249 422 5 0 0 0 - - - 0;
#X floatatom 426 471 0 0 0 0 - - - 0;
#X obj 215 25 r \$0-rec;
#X obj 264 358 s \$0-rec;
#X obj 112 412 tabwrite~ \$0-sample;
#X connect 0 0 27 0;
#X connect 0 0 31 0;
#X connect 1 0 10 0;
#X connect 3 0 7 0;
#X connect 3 1 23 0;
#X connect 4 0 2 0;
#X connect 4 0 35 0;
#X connect 5 0 34 0;
#X connect 6 0 2 0;
#X connect 7 0 35 0;
#X connect 7 1 0 0;
#X connect 7 2 8 0;
#X connect 8 0 6 0;
#X connect 10 0 29 0;
#X connect 10 0 32 0;
#X connect 11 0 12 0;
#X connect 12 0 14 0;
#X connect 13 0 17 1;
#X connect 13 0 20 0;
#X connect 16 0 21 0;
#X connect 16 0 23 1;
#X connect 16 0 24 0;
#X connect 17 0 19 0;
#X connect 17 0 10 1;
#X connect 18 0 11 0;
#X connect 18 0 3 0;
#X connect 18 1 17 0;
#X connect 22 0 4 0;
#X connect 22 0 0 1;
#X connect 23 0 22 0;
#X connect 24 0 35 0;
#X connect 25 0 8 1;
#X connect 26 0 18 0;
#X connect 26 0 30 0;
#X connect 27 0 1 0;
#X connect 27 1 5 0;
#X connect 28 0 15 0;
#X connect 33 0 26 0;
#X restore 44 127 pd record;
#X obj 143 100 s \$0-recmax;
#N canvas 612 201 445 420 auto 0;
#N canvas 232 299 515 509 autorec 0;
#X obj 64 15 inlet;
#X obj 233 427 outlet;
#X obj 254 107 env~;
#X obj 254 131 > 75;
#X obj 307 38 inlet;
#X obj 348 37 inlet;
#X obj 348 62 * 1000;
#X obj 289 427 outlet;
#X obj 407 38 inlet;
#X obj 407 63 * 1000;
#X obj 254 155 change;
#X obj 210 250 sel 1 0;
#X obj 233 300 delay;
#X msg 233 276 stop;
#X msg 233 324 1;
#X obj 316 301 delay;
#X msg 316 277 stop;
#X obj 293 251 sel 0 1;
#X msg 362 325 2;
#X msg 316 349 0;
#X obj 316 325 t b b;
#X obj 233 348 t f f;
#X obj 64 65 sel 0 1;
#X obj 144 119 t b b;
#X msg 177 169 0;
#X msg 144 146 1;
#X obj 64 92 t b b;
#X msg 94 141 2;
#X msg 64 141 0;
#X obj 257 384 t f f;
#X obj 177 193 t f f;
#X msg 100 114 stop;
#X obj 177 145 del 0;
#X obj 64 38 t f b;
#X obj 9 14 inlet~;
#X obj 324 145 tgl 15 0 empty empty empty 17 7 0 10 #fcfcfc #000000 #000000 0 1;
#X floatatom 345 115 5 0 0 0 - - - 0;
#X obj 393 207 s \$0-signal;
#X obj 228 14 hip~ 200;
#X obj 72 255 f;
#X text 98 255 switch~;
#X obj 437 110 loadbang;
#X msg 437 132 2;
#X obj 254 180 list prepend 0;
#X obj 254 204 route 0 1 2;
#X obj 228 55 hip~ 3000;
#X obj 228 78 *~ 3;
#X connect 0 0 33 0;
#X connect 2 0 3 0;
#X connect 3 0 10 0;
#X connect 4 0 3 1;
#X connect 5 0 6 0;
#X connect 6 0 12 1;
#X connect 6 0 36 0;
#X connect 8 0 9 0;
#X connect 9 0 15 1;
#X connect 10 0 35 0;
#X connect 10 0 43 0;
#X connect 11 0 12 0;
#X connect 11 1 13 0;
#X connect 12 0 14 0;
#X connect 13 0 12 0;
#X connect 14 0 21 0;
#X connect 15 0 20 0;
#X connect 16 0 15 0;
#X connect 17 0 15 0;
#X connect 17 1 16 0;
#X connect 18 0 43 1;
#X connect 19 0 29 0;
#X connect 20 0 19 0;
#X connect 20 1 18 0;
#X connect 21 0 1 0;
#X connect 21 1 43 1;
#X connect 22 0 26 0;
#X connect 22 1 23 0;
#X connect 23 0 25 0;
#X connect 23 1 32 0;
#X connect 24 0 30 0;
#X connect 25 0 39 0;
#X connect 26 0 28 0;
#X connect 26 1 27 0;
#X connect 26 1 31 0;
#X connect 27 0 43 1;
#X connect 28 0 29 0;
#X connect 28 0 39 0;
#X connect 29 0 7 0;
#X connect 29 1 1 0;
#X connect 30 0 10 0;
#X connect 30 1 43 1;
#X connect 31 0 32 0;
#X connect 32 0 24 0;
#X connect 33 0 22 0;
#X connect 33 1 13 0;
#X connect 33 1 16 0;
#X connect 34 0 38 0;
#X connect 35 0 37 0;
#X connect 38 0 2 0;
#X connect 38 0 45 0;
#X connect 41 0 42 0;
#X connect 42 0 43 1;
#X connect 43 0 44 0;
#X connect 44 0 11 0;
#X connect 44 1 17 0;
#X connect 45 0 46 0;
#X connect 46 0 2 0;
#X restore 25 148 pd autorec;
#X obj 249 364 s \$0-recorder_cut;
#X obj 41 108 t f f;
#X obj 170 278 s \$0-recorder_indel;
#X obj 186 154 * 1000;
#X obj 170 230 f;
#X obj 249 338 *;
#X floatatom 320 340 5 0 0 0 - - - 0;
#X obj 41 82 change;
#X obj 24 16 inlet~;
#X obj 194 59 tgl 15 0 empty empty empty 17 7 0 10 #fcfcfc #000000 #000000 0 1;
#X obj 76 245 tgl 15 0 empty empty empty 17 7 0 10 #fcfcfc #000000 #000000 0 1;
#X obj 170 177 sel 1 0;
#X obj 233 205 del 3000;
#X msg 197 205 stop;
#X msg 233 230 0;
#X obj 41 55 r \$0-auto;
#X obj 94 81 r \$0-thres-snd;
#X obj 205 82 r \$0-thi-snd;
#X obj 315 84 r \$0-tlow-snd;
#X obj 92 176 s \$0-auto;
#X obj 25 332 s \$0-rec;
#X obj 267 310 - 0.2;
#X obj 170 253 + 120;
#X connect 0 0 11 0;
#X connect 0 0 21 0;
#X connect 0 1 20 0;
#X connect 2 0 0 1;
#X connect 2 1 6 0;
#X connect 2 1 12 0;
#X connect 4 0 5 1;
#X connect 5 0 23 0;
#X connect 6 0 1 0;
#X connect 8 0 2 0;
#X connect 8 0 10 0;
#X connect 9 0 0 0;
#X connect 12 0 5 0;
#X connect 12 0 14 0;
#X connect 12 1 13 0;
#X connect 13 0 15 0;
#X connect 14 0 13 0;
#X connect 15 0 3 0;
#X connect 16 0 8 0;
#X connect 17 0 0 2;
#X connect 18 0 0 3;
#X connect 18 0 4 0;
#X connect 19 0 0 4;
#X connect 19 0 22 0;
#X connect 22 0 6 1;
#X connect 22 0 7 0;
#X connect 23 0 3 0;
#X restore 63 100 pd auto;
#X obj 294 173 * 100;
#X obj 294 221 / 100;
#X obj 418 175 * 100;
#X obj 418 223 / 100;
#X obj 294 16 r \$0-signal;
#X obj 294 42 sel 0 1, f 31;
#X msg 294 70 color 4 22 22;
#X msg 401 69 color 14 22 22;
#X obj 294 95 t a;
#N canvas 0 1172 450 300 ReRec 0;
#X obj 83 79 sel 0;
#X obj 83 107 del 2000;
#X msg 83 132 1;
#X obj 83 162 spigot;
#X obj 190 80 r \$0-ReRec-snd;
#X obj 229 140 tgl 15 0 empty empty empty 17 7 0 10 #fcfcfc #000000 #000000 0 1;
#X obj 83 51 r \$0-rec;
#X obj 83 188 s \$0-auto;
#X connect 0 0 1 0;
#X connect 1 0 2 0;
#X connect 2 0 3 0;
#X connect 3 0 7 0;
#X connect 4 0 3 1;
#X connect 4 0 5 0;
#X connect 6 0 0 0;
#X restore 165 145 pd ReRec;
#X obj 44 238 s \$0-sample-len;
#X obj 43 281 table \$0-sample 2.646e+06;
#X obj 294 119 s \$0-thres-rcv;
#X floatatom 167 213 5 0 0 0 - - - 0;
#X obj 294 149 r \$0-thi-snd;
#X obj 294 269 s \$0-thi-rcv;
#X obj 418 151 r \$0-tlow-snd;
#X obj 418 271 s \$0-tlow-rcv;
#X obj 44 333 r \$0-autorec-play-snd;
#X obj 62 356 r \$0-sample-len;
#X obj 44 382 f;
#X obj 44 435 tabplay~ \$0-sample;
#X obj 43 24 r~ \$0-in;
#X obj 44 460 throw~ \$0-out;
#X msg 44 407 0 \$1;
#X obj 295 321 r \$0-sample-len;
#X obj 295 466 soundfiler;
#X obj 295 378 list append \$0-sample;
#X obj 295 350 f;
#X obj 453 376 r \$0-filename;
#X obj 295 407 list append filename, f 23;
#X obj 268 323 bng 20 250 50 0 empty empty empty 0 -10 0 12 #fcfcfc #000000 #000000;
#X msg 295 436 write -normalize -nframes \$1 \$3 \$2;
#X connect 0 0 5 0;
#X connect 0 1 6 1;
#X connect 0 1 27 0;
#X connect 1 0 12 0;
#X connect 2 0 1 0;
#X connect 4 0 15 0;
#X connect 5 0 6 0;
#X connect 6 0 7 0;
#X connect 6 0 24 0;
#X connect 8 0 29 0;
#X connect 9 0 17 0;
#X connect 10 0 31 0;
#X connect 11 0 0 0;
#X connect 14 0 4 0;
#X connect 15 0 8 0;
#X connect 16 0 9 0;
#X connect 17 0 10 0;
#X connect 18 0 19 0;
#X connect 19 0 20 0;
#X connect 19 1 21 0;
#X connect 20 0 22 0;
#X connect 21 0 22 0;
#X connect 22 0 26 0;
#X connect 28 0 14 0;
#X connect 30 0 16 0;
#X connect 32 0 34 0;
#X connect 33 0 34 1;
#X connect 34 0 38 0;
#X connect 35 0 37 0;
#X connect 36 0 11 0;
#X connect 36 0 13 0;
#X connect 38 0 35 0;
#X connect 39 0 42 0;
#X connect 41 0 44 0;
#X connect 42 0 41 0;
#X connect 43 0 44 1;
#X connect 44 0 46 0;
#X connect 45 0 42 0;
#X connect 46 0 40 0;
#X restore 38 168 pd autorec;
#N canvas 0 0 385 227 master 0;
#X obj 47 40 r \$0-volume-snd;
#X obj 47 65 pow 2;
#X msg 47 90 \$1 10;
#X obj 47 115 line~;
#X obj 29 142 *~;
#X obj 29 167 dac~;
#X obj 212 8 adc~;
#X obj 211 74 s~ \$0-in;
#X obj 28 12 catch~ \$0-out;
#X connect 0 0 1 0;
#X connect 1 0 2 0;
#X connect 2 0 3 0;
#X connect 3 0 4 1;
#X connect 4 0 5 0;
#X connect 4 0 5 1;
#X connect 6 0 7 0;
#X connect 8 0 4 0;
#X restore 46 212 pd master;
#X connect 1 0 2 0;
#X restore 182 21 pd guts;
#X obj 32 75 nbx 5 18 1 100 0 0 \$0-dir_num-snd \$0-dir_num-rcv dir_num 0 -10 0 12 #c6feff #000000 #000000 0 256;
#X obj 33 165 hradio 20 1 0 5 \$0-item_num-snd \$0-item_num-rcv item_num:0\ (file:50) 0 -10 0 12 #ffe3c6 #000000 #000000 0;
#X obj 32 119 nbx 5 18 0 83 0 0 \$0-word_num-snd \$0-word_num-rcv word_num 0 -10 0 12 #feffc6 #000000 #000000 0 256;
#X obj 102 117 bng 20 250 50 0 \$0-word_down-snd \$0-word_down-rcv <- 2 10 0 12 #feffc6 #000000 #000000;
#X obj 128 117 bng 20 250 50 0 \$0-word_up-snd \$0-word_up-rcv -> 2 10 0 12 #feffc6 #000000 #000000;
#X symbolatom 158 118 24 0 0 0 - \$0-word_name-rcv \$0-word_name-snd 0;
#X obj 35 209 hsl 170 20 0 1 0 1 \$0-volume-snd \$0-volume-rcv volume -2 -10 0 12 #ff0400 #000000 #000000 9900 1;
#X obj 431 74 tgl 30 0 \$0-rec \$0-rec rec 2 15 0 10 #fc0400 #000000 #000000 0 1;
#X obj 362 45 tgl 60 0 \$0-auto \$0-auto auto 10 30 0 10 #f8fc00 #000000 #000000 0 1;
#X obj 362 128 nbx 5 14 10 100 0 0 \$0-thres-snd \$0-thres-rcv seuil 0 -8 0 10 #fce0c0 #000000 #000000 0 256;
#X obj 364 160 hsl 60 12 0 1 0 1 \$0-thi-snd \$0-thi-rcv tHi:0.1s -2 -8 0 10 #00f8fc #000000 #000000 611 1;
#X obj 363 192 hsl 60 12 0.1 3 0 1 \$0-tlow-snd \$0-tlow-rcv tLow:1.13s -2 -8 0 10 #00f8fc #000000 #000000 2100 1;
#X obj 488 83 tgl 20 0 \$0-ReRec-snd \$0-ReRec-rcv ReRec 23 7 0 10 #fc0400 #000000 #000000 0 1;
#X obj 465 147 bng 40 250 50 0 \$0-autorec-play-snd \$0-autorec-play-rcv play 6 20 0 12 #00ff04 #000000 #000000;
#X obj 103 73 bng 20 250 50 0 \$0-dir_down-snd \$0-dir_down-rcv <- 2 10 0 12 #c6feff #000000 #000000;
#X obj 129 73 bng 20 250 50 0 \$0-dir_up-snd \$0-dir_up-rcv -> 2 10 0 12 #c6feff #000000 #000000;
