#N canvas 174 19 1177 861 12;
#X declare -lib pdlua -path ..;
#X msg 340 37 \; pd dsp 1;
#X obj 340 10 loadbang;
#X obj 86 240 ponggame;
#X obj 86 119 tgl 20 0 empty empty empty 0 -10 0 12 #fcfcfc #000000 #000000 0 1;
#X msg 196 66 start;
#X msg 251 66 stop;
#X obj 86 92 loadbang;
#X listbox 86 303 22 0 0 0 - - - 0;
#X obj 258 446 print;
#X obj 898 11 declare -lib pdlua -path ..;
#X obj 21 462 s gameGui;
#X obj 617 105 pongarGui gameGui;
#X msg 60 361 pos \$1 \$2;
#X listbox 275 468 32 0 0 0 - - - 0;
#X msg 900 37 \; pdluax reload;
#X obj 289 373 list;
#X floatatom 450 61 5 0 0 0 - - - 0;
#X msg 451 87 players \$1 50 100 150 200 250 300;
#X obj 220 176 list prepend players;
#X obj 220 201 list trim;
#X msg 234 123 50;
#X msg 289 122 50 150;
#X msg 359 123 bang;
#X msg 136 66 prepare;
#X obj 86 144 metro 20;
#X obj 167 532 timer;
#X obj 195 500 b;
#X obj 151 501 b;
#X floatatom 167 557 9 0 0 0 - - - 0;
#X obj 78 645 timer;
#X obj 69 593 t b b;
#X floatatom 78 670 5 0 0 0 - - - 0;
#X obj 78 694 zexy/mavg 20;
#X floatatom 78 719 5 0 0 0 - - - 0;
#X floatatom 458 147 5 0 0 0 - - - 0;
#X obj 458 171 t f f, f 9;
#X obj 458 196 + 180;
#X listbox 323 523 32 0 0 0 - - - 0;
#X obj 86 277 route proj_goto sound_command say saysilence sayclear;
#X floatatom 297 311 8 0 0 0 - - - 0;
#X obj 378 313 bng 20 250 50 0 empty empty empty 0 -10 0 12 #fcfcfc #000000 #000000;
#X obj 423 603 * 65536;
#X floatatom 423 628 18 0 0 0 - - - 0;
#X msg 423 578 127;
#X obj 25 337 bng 20 250 50 0 empty empty empty 0 -10 0 12 #fcfcfc #000000 #000000;
#X msg 505 729 0 255 0 0 0 255 0 0 0 255 255 255 0;
#X obj 434 406 s pixelsRGB;
#X obj 328 741 table pixelsRGB 636;
#X listbox 599 600 20 0 0 0 - - - 0;
#X obj 434 306 route pixel;
#X obj 434 331 list split 1;
#X obj 434 356 * 3;
#X obj 434 381 list append;
#X obj 458 244 pack f f;
#X msg 548 173 120;
#X obj 542 449 print;
#X obj 458 220 mod 360;
#X obj 514 221 mod 360;
#X obj 159 357 spigot;
#X obj 215 355 tgl 20 0 empty empty empty 0 -10 0 12 #fcfcfc #000000 #000000 0 1;
#X connect 1 0 0 0;
#X connect 2 0 38 0;
#X connect 3 0 24 0;
#X connect 4 0 2 0;
#X connect 5 0 2 0;
#X connect 6 0 3 0;
#X connect 12 0 10 0;
#X connect 15 0 13 0;
#X connect 15 0 26 0;
#X connect 16 0 17 0;
#X connect 18 0 19 0;
#X connect 19 0 2 0;
#X connect 19 0 58 0;
#X connect 20 0 18 0;
#X connect 20 0 27 0;
#X connect 21 0 18 0;
#X connect 22 0 18 0;
#X connect 23 0 2 0;
#X connect 23 0 27 0;
#X connect 24 0 2 0;
#X connect 24 0 10 0;
#X connect 25 0 28 0;
#X connect 26 0 25 1;
#X connect 27 0 25 0;
#X connect 29 0 31 0;
#X connect 30 0 29 0;
#X connect 30 1 29 1;
#X connect 31 0 32 0;
#X connect 32 0 33 0;
#X connect 34 0 35 0;
#X connect 35 0 36 0;
#X connect 35 1 57 0;
#X connect 36 0 56 0;
#X connect 38 0 7 0;
#X connect 38 0 12 0;
#X connect 38 0 30 0;
#X connect 38 1 15 0;
#X connect 38 1 8 0;
#X connect 38 2 37 0;
#X connect 38 3 39 0;
#X connect 38 4 40 0;
#X connect 38 5 49 0;
#X connect 41 0 42 0;
#X connect 43 0 41 0;
#X connect 44 0 10 0;
#X connect 45 0 46 0;
#X connect 49 0 50 0;
#X connect 50 0 51 0;
#X connect 50 1 52 1;
#X connect 51 0 52 0;
#X connect 52 0 46 0;
#X connect 53 0 18 0;
#X connect 54 0 57 0;
#X connect 56 0 53 0;
#X connect 57 0 53 1;
#X connect 58 0 10 0;
#X connect 59 0 58 1;
