#N canvas 690 64 1220 873 12;
#X declare -lib pdlua;
#X msg 144 141 devices;
#X msg 205 141 open 32;
#X msg 268 141 165 32;
#X msg 326 141 165 37;
#X msg 41 184 baud 460800;
#X obj 144 185 comport;
#X obj 144 215 t b f, f 14;
#X obj 239 451 list store;
#X msg 239 389 append \$1;
#X obj 144 283 i;
#X obj 176 283 + 1;
#X obj 268 111 t b b;
#X obj 278 70 sel 1 0;
#X obj 278 35 tgl 20 0 empty empty empty 0 -10 0 12 #fcfcfc #000000 #000000 0 1;
#X obj 144 318 sel 5 7, f 12;
#X obj 144 370 spigot;
#X msg 184 344 1;
#X msg 182 251 0;
#X obj 144 395 t b b;
#X msg 79 137 close;
#X obj 239 476 unpack f f f f f, f 31;
#X obj 239 505 div 4;
#X obj 346 504 * 128;
#X obj 292 533 +;
#X obj 292 558 / 64;
#X obj 399 501 +;
#X obj 453 501 * 256;
#X obj 399 526 / 4;
#X obj 239 591 pack f f f, f 15;
#X obj 292 505 div 2;
#X msg 216 344 0;
#X obj 553 748 loadbang;
#X obj 239 627 unpack f f f;
#X obj 279 654 i;
#X obj 279 679 pack f f;
#X msg 279 704 \$2 \$1;
#X obj 279 729 route 0;
#X msg 309 775 \$2 \$1;
#X obj 538 16 scan;
#X obj 38 11 declare -lib pdlua;
#X obj 50 66 pdlua;
#X obj 404 802 table lidar-scan 360;
#X obj 553 801 s lidar-scan;
#X obj 309 803 s lidar-scan;
#X msg 327 211 stty -F /dev/ttyUSB0 460800;
#X obj 327 236 ggee/shell;
#X obj 202 86 t b b;
#X obj 204 52 bng 20 250 50 0 empty empty empty 0 -10 0 12 #fcfcfc #000000 #000000;
#X msg 401 93 maxdist \$1;
#X obj 337 21 hsl 170 20 0.5 12 0 0 empty empty empty -2 -10 0 12 #fcfcfc #000000 #000000 0 1;
#X obj 334 46 * 1000;
#X msg 553 776 bounds 0 8000 360 0 \, const 12000;
#X obj 35 456 print comport_info;
#X msg 16 131 info;
#X msg 133 84 dtr \$1;
#X obj 144 44 tgl 20 0 empty empty empty 0 -10 0 12 #fcfcfc #000000 #000000 0 1;
#X obj 40 338 bng 20 250 50 0 empty empty empty 0 -10 0 12 #fcfcfc #000000 #000000;
#X connect 0 0 5 0;
#X connect 1 0 5 0;
#X connect 2 0 5 0;
#X connect 3 0 5 0;
#X connect 4 0 5 0;
#X connect 5 0 6 0;
#X connect 5 1 52 0;
#X connect 6 0 9 0;
#X connect 6 1 8 0;
#X connect 7 0 20 0;
#X connect 8 0 7 0;
#X connect 9 0 10 0;
#X connect 10 0 9 1;
#X connect 10 0 14 0;
#X connect 11 0 2 0;
#X connect 11 1 7 1;
#X connect 11 1 17 0;
#X connect 11 1 30 0;
#X connect 12 0 11 0;
#X connect 12 1 3 0;
#X connect 13 0 12 0;
#X connect 14 0 15 0;
#X connect 14 1 16 0;
#X connect 14 1 17 0;
#X connect 14 1 7 1;
#X connect 15 0 17 0;
#X connect 15 0 18 0;
#X connect 16 0 15 1;
#X connect 17 0 9 1;
#X connect 18 0 7 1;
#X connect 18 1 7 0;
#X connect 19 0 5 0;
#X connect 20 0 21 0;
#X connect 20 1 29 0;
#X connect 20 2 22 0;
#X connect 20 3 25 0;
#X connect 20 4 26 0;
#X connect 21 0 28 0;
#X connect 22 0 23 1;
#X connect 23 0 24 0;
#X connect 24 0 28 1;
#X connect 25 0 27 0;
#X connect 26 0 25 1;
#X connect 27 0 28 2;
#X connect 28 0 32 0;
#X connect 29 0 23 0;
#X connect 30 0 15 1;
#X connect 31 0 51 0;
#X connect 32 1 33 0;
#X connect 32 2 34 1;
#X connect 33 0 34 0;
#X connect 34 0 35 0;
#X connect 35 0 36 0;
#X connect 36 1 37 0;
#X connect 37 0 43 0;
#X connect 44 0 45 0;
#X connect 46 0 44 0;
#X connect 46 1 1 0;
#X connect 47 0 46 0;
#X connect 48 0 38 0;
#X connect 49 0 50 0;
#X connect 50 0 48 0;
#X connect 51 0 42 0;
#X connect 53 0 5 0;
#X connect 54 0 5 0;
#X connect 55 0 54 0;
#X connect 56 0 52 0;
