#N canvas 735 299 1096 610 12;
#X declare -lib pof;
#X obj 36 16 declare -lib pof;
#N canvas 79 381 450 300 window 0;
#X obj 78 70 pofwin;
#X listbox 100 122 20 0 0 0 - - - 0;
#X obj 41 32 bng 20 250 50 0 empty empty empty 0 -10 0 12 #fcfcfc #000000 #000000;
#X obj 78 95 route window;
#X obj 78 148 spigot 1;
#X msg 78 173 0;
#X obj 119 174 b;
#X obj 119 199 del 200;
#X msg 212 75 framerate 60;
#X msg 78 41 window 900 900 0 \, framerate 60;
#X connect 0 0 3 0;
#X connect 2 0 0 0;
#X connect 3 0 1 0;
#X connect 3 0 4 0;
#X connect 4 0 5 0;
#X connect 4 0 6 0;
#X connect 5 0 4 1;
#X connect 6 0 7 0;
#X connect 7 0 9 0;
#X connect 8 0 0 0;
#X connect 9 0 0 0;
#X restore 164 17 pd window;
#X obj 39 54 pofhead;
#X obj 39 142 s \$0-points;
#X obj 116 82 s \$0-points-update;
#X obj 309 163 pofcirc 500;
#X obj 309 138 pofcolor 1 1 1 0.1;
#X obj 39 113 t a a a, f 39;
#X obj 174 310 poftranslate;
#X obj 174 534 pofcirc 20;
#X obj 199 161 unpack f f, f 11;
#X obj 199 186 / 360;
#X obj 199 211 * 6.283;
#X obj 199 236 t f f;
#X obj 199 261 cos;
#X obj 199 286 *;
#X obj 230 286 *;
#X obj 230 262 sin;
#X obj 273 212 * 240;
#X obj 431 10 clone pofpoint 212 \$0-points 8 212 250 pixelsRGB;
#X obj 39 82 pofbang 1;
#X obj 296 45 spigot 1;
#X obj 420 382 / 255;
#X obj 213 383 / 255;
#X obj 281 385 / 255;
#X obj 350 383 / 255;
#X obj 213 481 sqrt;
#X obj 281 483 sqrt;
#X obj 350 482 sqrt;
#X listbox 443 278 20 0 0 0 - - - 0;
#X obj 296 74 route proj_goto proj_col proj_dim;
#X obj 213 429 +;
#X obj 213 455 clip 0 1;
#X obj 281 431 +;
#X obj 281 457 clip 0 1;
#X obj 350 429 +;
#X obj 350 455 clip 0 1;
#X obj 174 508 pofcolor 1 1 1 1, f 31;
#X obj 475 378 / 255;
#X obj 213 358 unpack f f f f, f 30;
#X floatatom 484 174 5 0 0 0 - - - 0;
#X obj 609 67 r \$0-points;
#X obj 641 154 s \$0-objs-head;
#X obj 595 381 route bang, f 11;
#X obj 595 346 t a b, f 16;
#X obj 704 371 s \$0-objs-reset;
#X obj 669 459 s \$0-objs-props;
#X obj 817 118 clone pofobj 20 \$0-objs;
#X obj 784 10 poffonts bold Quicksand-Bold.ttf;
#X obj 784 36 poffonts vera vera.ttf;
#X msg 817 94 vis 3 1;
#X obj 609 99 t a a;
#X obj 609 181 s \$0-players-head;
#X msg 819 151 vis 3 1;
#X obj 819 175 clone pofobj 20 \$0-players;
#X obj 595 314 route fobjects fplayers, f 66;
#X obj 824 385 route bang, f 11;
#X obj 824 350 t a b, f 16;
#X obj 933 375 s \$0-players-reset;
#X obj 898 463 s \$0-players-props;
#X obj 641 127 pofcolor 0.7 0.2 0.2 1;
#X obj 669 409 list split 4;
#X obj 709 434 t a;
#X obj 898 413 list split 4;
#X obj 938 438 t a;
#X obj 296 15 r \$1;
#X obj 607 253 route fobject fplayer objreset, f 40;
#X listbox 614 519 20 0 0 0 - - - 0;
#X msg 490 227 0;
#X obj 476 349 max 20;
#X connect 2 0 20 0;
#X connect 6 0 5 0;
#X connect 7 0 3 0;
#X connect 7 1 8 0;
#X connect 7 2 6 0;
#X connect 8 0 37 0;
#X connect 10 0 11 0;
#X connect 10 1 18 0;
#X connect 11 0 12 0;
#X connect 12 0 13 0;
#X connect 13 0 14 0;
#X connect 13 1 17 0;
#X connect 14 0 15 0;
#X connect 15 0 8 1;
#X connect 16 0 8 2;
#X connect 17 0 16 0;
#X connect 18 0 15 1;
#X connect 18 0 16 1;
#X connect 20 0 7 0;
#X connect 20 1 4 0;
#X connect 21 0 30 0;
#X connect 22 0 31 1;
#X connect 22 0 33 1;
#X connect 22 0 35 1;
#X connect 23 0 31 0;
#X connect 24 0 33 0;
#X connect 25 0 35 0;
#X connect 26 0 37 1;
#X connect 27 0 37 2;
#X connect 28 0 37 3;
#X connect 30 0 10 0;
#X connect 30 1 29 0;
#X connect 30 1 39 0;
#X connect 30 2 40 0;
#X connect 30 2 69 0;
#X connect 30 3 55 0;
#X connect 30 3 66 0;
#X connect 31 0 32 0;
#X connect 32 0 26 0;
#X connect 33 0 34 0;
#X connect 34 0 27 0;
#X connect 35 0 36 0;
#X connect 36 0 28 0;
#X connect 37 0 9 0;
#X connect 38 0 37 4;
#X connect 39 0 23 0;
#X connect 39 1 24 0;
#X connect 39 2 25 0;
#X connect 39 3 22 0;
#X connect 41 0 51 0;
#X connect 43 1 61 0;
#X connect 44 0 43 0;
#X connect 44 1 45 0;
#X connect 50 0 47 0;
#X connect 51 0 52 0;
#X connect 51 1 60 0;
#X connect 53 0 54 0;
#X connect 55 0 44 0;
#X connect 55 1 57 0;
#X connect 56 1 63 0;
#X connect 57 0 56 0;
#X connect 57 1 58 0;
#X connect 60 0 42 0;
#X connect 61 0 46 0;
#X connect 61 1 62 0;
#X connect 62 0 61 0;
#X connect 63 0 59 0;
#X connect 63 1 64 0;
#X connect 64 0 63 0;
#X connect 65 0 21 0;
#X connect 66 0 46 0;
#X connect 66 0 67 0;
#X connect 66 1 59 0;
#X connect 66 2 45 0;
#X connect 66 2 58 0;
#X connect 68 0 69 0;
#X connect 69 0 38 0;
