#N canvas 241 410 450 569 12;
#X obj 26 10 r \$2-head;
#X obj 26 172 pofrotate, f 24;
#X obj 26 272 poftranslate, f 27;
#X obj 58 348 pofcirc 20, f 28;
#X obj 185 16 r \$2-props;
#X obj 275 342 loadbang;
#X obj 275 367 f \$1;
#X obj 213 139 unpack f f f;
#X obj 26 125 pofvisible;
#X obj 49 39 r \$2-reset;
#X msg 49 95 0;
#X msg 89 96 1;
#X obj 26 298 t a a;
#X obj 313 370 bng 20 250 50 0 empty empty empty 0 -10 0 12 #fcfcfc #000000 #000000;
#X msg 211 468 size \$1;
#X floatatom 211 440 5 0 0 0 - - - 0;
#X obj 26 378 pofcolor 1 1 1 1;
#X obj 26 421 pofrotate, f 10;
#X obj 114 419 * -1;
#X msg 275 394 text \$1;
#X obj 58 323 poffill 0;
#X obj 27 500 poftexts bold 30;
#X obj 185 41 route \$1;
#X floatatom 297 269 5 0 0 0 - - - 0;
#X obj 88 244 * 0.25;
#X obj 164 321 * 0.5;
#X obj 49 67 del 5;
#X msg 127 39 stop;
#X connect 0 0 8 0;
#X connect 1 0 2 0;
#X connect 2 0 12 0;
#X connect 4 0 22 0;
#X connect 5 0 6 0;
#X connect 6 0 19 0;
#X connect 7 0 1 1;
#X connect 7 0 18 0;
#X connect 7 1 24 0;
#X connect 7 2 25 0;
#X connect 8 0 1 0;
#X connect 9 0 26 0;
#X connect 10 0 8 0;
#X connect 11 0 8 0;
#X connect 12 0 16 0;
#X connect 12 1 20 0;
#X connect 13 0 6 0;
#X connect 14 0 21 0;
#X connect 15 0 14 0;
#X connect 16 0 17 0;
#X connect 17 0 21 0;
#X connect 18 0 17 1;
#X connect 19 0 21 0;
#X connect 20 0 3 0;
#X connect 22 0 11 0;
#X connect 22 0 7 0;
#X connect 22 0 27 0;
#X connect 24 0 2 1;
#X connect 25 0 3 1;
#X connect 26 0 10 0;
#X connect 27 0 26 0;
