#N canvas 305 463 450 507 12;
#X obj 24 41 r \$2;
#X obj 24 198 poftranslate, f 23;
#X obj 76 15 loadbang;
#X obj 76 40 f \$1;
#X obj 24 437 pofcirc \$3;
#X obj 76 65 / \$4;
#X obj 76 90 * 6.283;
#X obj 76 115 t f f, f 8;
#X obj 76 140 cos;
#X obj 129 140 sin;
#X obj 76 165 * \$5;
#X obj 129 164 * \$5;
#X obj 24 408 pofcolor 1 1 1 1, f 25;
#X obj 67 248 r \$2-update;
#X obj 67 273 f \$1;
#X obj 67 298 * 3;
#X obj 162 248 loadbang;
#X obj 67 324 array get \$6 0 3;
#X obj 171 277 bng 20 250 50 0 empty empty empty 0 -10 0 12 #fcfcfc #000000 #000000;
#X obj 67 349 unpack f f f, f 13;
#X obj 67 374 / 255;
#X obj 111 374 / 255;
#X obj 155 374 / 255;
#X connect 0 0 1 0;
#X connect 1 0 12 0;
#X connect 2 0 3 0;
#X connect 3 0 5 0;
#X connect 5 0 6 0;
#X connect 6 0 7 0;
#X connect 7 0 8 0;
#X connect 7 1 9 0;
#X connect 8 0 10 0;
#X connect 9 0 11 0;
#X connect 10 0 1 1;
#X connect 11 0 1 2;
#X connect 12 0 4 0;
#X connect 13 0 14 0;
#X connect 14 0 15 0;
#X connect 15 0 17 0;
#X connect 16 0 14 0;
#X connect 17 0 19 0;
#X connect 18 0 14 0;
#X connect 19 0 20 0;
#X connect 19 1 21 0;
#X connect 19 2 22 0;
#X connect 20 0 12 1;
#X connect 21 0 12 2;
#X connect 22 0 12 3;
