#N canvas 439 88 450 605 12;
#X obj 24 41 r \$2;
#X obj 24 198 poftranslate, f 23;
#X obj 76 15 loadbang;
#X obj 76 40 f \$1;
#X obj 76 90 * 6.283;
#X obj 76 115 t f f, f 8;
#X obj 76 140 cos;
#X obj 129 140 sin;
#X obj 76 65 / 4;
#X obj 76 165 * \$3;
#X obj 129 164 * \$3;
#X obj 67 282 r \$2_col;
#X obj 67 307 route \$1;
#X obj 67 332 unpack f f f;
#X obj 24 408 pofcolor 1 1 1 0.3, f 25;
#X obj 67 370 / 255;
#X obj 108 370 / 255;
#X obj 150 370 / 255;
#X floatatom 235 416 5 0 0 0 - - - 0;
#X obj 24 437 pofimage spot.png \$4;
#X msg 226 290 255 0 0;
#X connect 0 0 1 0;
#X connect 1 0 14 0;
#X connect 2 0 3 0;
#X connect 3 0 8 0;
#X connect 4 0 5 0;
#X connect 5 0 6 0;
#X connect 5 1 7 0;
#X connect 6 0 9 0;
#X connect 7 0 10 0;
#X connect 8 0 4 0;
#X connect 9 0 1 1;
#X connect 10 0 1 2;
#X connect 11 0 12 0;
#X connect 12 0 13 0;
#X connect 13 0 15 0;
#X connect 13 1 16 0;
#X connect 13 2 17 0;
#X connect 14 0 19 0;
#X connect 15 0 14 1;
#X connect 16 0 14 2;
#X connect 17 0 14 3;
#X connect 18 0 19 1;
#X connect 20 0 13 0;
